<svg width="140" height="42" viewBox="0 0 140 42" fill="none" xmlns="http://www.w3.org/2000/svg">
<path fill-rule="evenodd" clip-rule="evenodd" d="M10.2523 0.42042C10.5716 0.412017 11.3111 0.52126 11.8909 0.655714C12.4708 0.798571 13.3783 1.10109 13.9077 1.33639C14.4371 1.58008 15.4792 1.91622 16.2186 2.09269C17.0422 2.29437 18.1514 2.42042 19.0758 2.41201C19.9077 2.41201 21.0758 2.29437 21.6808 2.15991C22.2775 2.01706 23.3783 1.85739 24.1178 1.79857C24.9161 1.73975 25.6976 1.77336 26.0506 1.89101C26.3699 1.99185 27.2018 2.43722 27.8993 2.89101C28.5884 3.33638 29.7648 4.05067 30.5043 4.47924C31.2438 4.89941 32.7901 5.6389 33.9497 6.11789C35.101 6.60529 36.2774 7.1515 36.5548 7.33638C36.8321 7.52965 37.2774 7.8826 37.5379 8.11789C37.8069 8.36159 38.4203 9.15991 38.8993 9.8994C39.3783 10.6389 39.8825 11.328 40.0169 11.4372C40.143 11.5465 41.4203 12.0254 42.8573 12.5044C44.2858 12.9918 46.3699 13.5633 47.4791 13.7902C48.9329 14.0759 50.0589 14.1851 51.5127 14.1851C52.8825 14.1851 53.8236 14.1011 54.4539 13.9162C54.9581 13.7649 55.7396 13.4624 56.1766 13.2439C56.6136 13.017 57.3278 12.5212 57.748 12.1263C58.1766 11.7313 58.706 11.0927 58.9245 10.6977C59.1514 10.3028 59.3614 9.98343 59.4119 9.98343C59.4539 9.98343 60.269 10.4372 61.2186 11.0002C62.1682 11.5549 63.5463 12.2439 64.2858 12.5296C65.0253 12.8154 66.0085 13.1179 66.4707 13.2019C66.9329 13.286 68.6303 13.6137 70.2522 13.933C71.8656 14.2439 74.1009 14.7733 75.2102 15.1095C76.3194 15.4456 77.7564 15.9414 78.4034 16.2187C79.4623 16.6557 79.6471 16.807 80.1934 17.6725C80.5295 18.2019 81.0925 19.2019 81.437 19.8994C81.79 20.5885 82.1513 21.6053 82.2522 22.1431C82.437 23.1263 82.4455 23.1347 83.4034 23.6137C83.9328 23.8826 84.9581 24.2943 85.6723 24.538C86.3866 24.7733 87.7648 25.0759 88.7396 25.2103C89.8404 25.3532 92.1429 25.4372 99.2438 25.454L100.336 26.1095C100.933 26.4624 101.656 27.0002 101.933 27.2859C102.412 27.7817 102.429 27.8406 102.21 28.3532C102.084 28.6473 101.866 29.3448 101.731 29.8994C101.555 30.6137 101.504 31.3784 101.563 32.5044C101.613 33.3784 101.84 34.8153 102.067 35.6977C102.294 36.5716 102.748 37.9918 103.084 38.8489C103.588 40.1263 103.664 40.454 103.487 40.6641C103.347 40.8377 102.997 40.9218 102.437 40.9162C101.975 40.9162 101.252 40.8069 100.84 40.6809C100.42 40.5632 99.2101 40.0674 98.1513 39.5968C97.0841 39.1263 95.5379 38.5548 94.7059 38.3195C93.874 38.0842 92.1681 37.7061 88.6555 37.0506L87.4791 37.37C86.832 37.5464 85.7312 37.8069 85.0421 37.9582C84.3446 38.101 83.3446 38.2187 82.8152 38.2187C82.2858 38.2187 81.4539 38.1347 80.9665 38.0338C80.4791 37.9246 79.7396 37.6725 79.3278 37.4624C78.8908 37.2439 78.1009 36.5632 77.4539 35.8489C76.7228 35.0254 76.0421 34.454 75.4371 34.1599C74.9413 33.9078 74.2354 33.6389 73.8656 33.5548C73.4959 33.4792 72.3194 33.4708 71.2606 33.5464C70.1934 33.6137 69.1345 33.7061 68.9077 33.7397C68.6724 33.7733 67.9917 33.8994 67.395 34.017C66.79 34.1347 65.0505 34.2355 63.5295 34.2523C61.1009 34.2691 60.5799 34.2187 59.3278 33.8742C58.5379 33.6557 57.0253 33.1431 55.9665 32.7313C54.8993 32.3195 53.0841 31.4876 49.832 29.7985L46.8909 30.0002C45.1178 30.1179 42.6808 30.1515 40.7564 30.0843C39.0001 30.017 36.5043 29.8153 35.2102 29.6305C33.9161 29.4456 31.7228 29.0674 30.3363 28.7817C28.9497 28.5044 27.6052 28.2439 27.3531 28.2019C27.101 28.1683 26.7564 28.0674 26.5968 27.9834C26.4371 27.8994 25.9245 27.7733 25.4623 27.7061C25.0001 27.6389 24.4707 27.5128 24.2859 27.412C24.101 27.3195 23.6472 26.9246 23.2775 26.5464C22.9077 26.1683 22.1094 25.454 21.5128 24.9582C20.9077 24.454 19.8741 23.6809 19.2018 23.2355C18.5296 22.7901 17.9077 22.4204 17.8153 22.4204C17.7228 22.4204 17.6472 22.3616 17.6556 22.2943C17.6556 22.2271 16.9161 21.8154 16.017 21.3784C15.1094 20.9498 13.5716 20.37 12.6052 20.0927C11.6304 19.8238 10.5716 19.5296 10.2523 19.4456C9.73126 19.3196 9.5716 19.1347 8.90773 17.8826C8.48756 17.1011 7.73126 16.0254 7.22706 15.4792C6.61362 14.8154 5.94135 14.3112 5.21026 13.9666C4.3027 13.5296 3.87413 13.4288 2.68925 13.3784C1.82371 13.3448 1.00858 13.2103 0.622029 13.0423C0.277491 12.8826 -0.00822259 12.7145 0.000180764 12.6725C0.00858411 12.6221 0.815306 11.8322 1.79009 10.9078C2.77329 9.98343 4.02539 8.62209 4.58001 7.8826C5.13463 7.1431 5.83211 6.04226 6.13463 5.44562C6.42874 4.84058 6.8321 3.82378 7.02538 3.17672C7.26908 2.36159 7.55479 1.80697 7.97496 1.37C8.30269 1.02546 8.8153 0.672521 9.11782 0.588487C9.42034 0.504454 9.92454 0.428824 10.2523 0.42042ZM137.992 33.6809C138.361 33.6809 138.958 33.7901 140 34.1851L139.916 39.6221L138.487 40.1599C137.697 40.454 136.681 40.8237 136.218 40.975C135.756 41.1178 134.807 41.3195 134.118 41.4036C133.42 41.496 132.479 41.5716 132.017 41.58C131.555 41.58 130.933 41.5128 130.63 41.412C130.227 41.2859 130.084 41.1431 130.084 40.8658C130.076 40.6557 130.193 40.2019 130.336 39.8573C130.471 39.5128 130.597 38.7733 130.613 38.2271C130.63 37.4372 130.697 37.1851 130.95 37.0506C131.118 36.9498 131.563 36.8742 131.933 36.8742C132.303 36.8742 132.891 36.9918 133.235 37.1431C133.622 37.3027 134.555 37.4372 135.63 37.4876C136.908 37.5464 137.513 37.5044 137.815 37.3447C138.084 37.2019 138.294 36.8826 138.403 36.4792C138.563 35.8742 138.538 35.8069 138.034 35.3868C137.731 35.1431 137.42 34.7481 137.345 34.5212C137.261 34.2859 137.227 34.0086 137.261 33.891C137.303 33.7733 137.613 33.6809 137.992 33.6809ZM90.0841 15.6305C90.6807 15.6725 93.2522 15.8238 95.7984 15.9666C99.5043 16.1767 100.513 16.2775 100.882 16.5044C101.135 16.6641 101.437 16.9666 101.555 17.1851C101.731 17.5044 101.723 17.6473 101.513 18.0086C101.37 18.2523 101.034 18.5801 100.756 18.7397C100.437 18.933 99.4875 19.1179 98.1513 19.2607C96.9328 19.3868 94.0841 19.4792 91.3446 19.4792C88.5631 19.4792 85.8152 19.3868 84.6219 19.2523C83.227 19.1011 82.5127 18.9414 82.2942 18.7481C82.1261 18.5969 81.874 18.2607 81.748 18.0086C81.6219 17.7565 81.5127 17.2607 81.5127 16.2859L84.1597 16.2691C86.3446 16.2607 87.0001 16.1935 87.8992 15.9078C88.6975 15.6557 89.2858 15.5801 90.0841 15.6305ZM112.143 31.3532C112.765 31.3448 113.445 31.3952 113.655 31.4792C113.866 31.5632 114.748 31.7985 115.63 32.0002C116.504 32.2103 117.513 32.5128 117.857 32.6893C118.202 32.8658 118.529 33.1011 118.588 33.2187C118.647 33.3363 118.437 33.6725 118.126 33.975C117.815 34.2775 117.336 34.6473 117.059 34.7901C116.664 35.0002 116.496 35.2691 116.269 36.0086C116.118 36.5296 115.95 37.1431 115.899 37.3784C115.849 37.6053 115.58 38.0842 115.303 38.4288C114.882 38.9414 114.681 39.059 114.202 39.059C113.874 39.059 113.445 38.9918 113.235 38.9078C113.025 38.8237 112.706 38.4792 112.521 38.1431C112.286 37.7145 111.924 37.3952 111.345 37.1179C110.882 36.8994 110.05 36.6473 109.496 36.5548C108.941 36.4708 108.143 36.2691 107.731 36.1179C107.311 35.975 106.765 35.6473 106.513 35.3952C106.252 35.1431 106.042 34.849 106.05 34.7313C106.05 34.6137 105.84 34.3784 105.588 34.2019C105.177 33.9162 105.143 33.8237 105.294 33.4204C105.437 33.017 105.605 32.9246 106.471 32.7481C107.025 32.6389 107.773 32.496 108.135 32.4372C108.496 32.37 108.983 32.1431 109.227 31.9246C109.479 31.6893 109.941 31.496 110.336 31.454C110.706 31.4204 111.521 31.37 112.143 31.3532ZM123.731 32.1683H125.269C126.143 32.1683 127.168 32.2691 127.647 32.412C128.109 32.5548 128.697 32.8574 128.95 33.0842C129.336 33.4456 129.412 33.6473 129.412 34.3532C129.412 34.9498 129.328 35.2691 129.118 35.4456C128.958 35.58 128.445 36.0086 127.983 36.4036C127.521 36.7901 126.597 37.6389 124.698 39.4792L123.235 39.5632C122.235 39.6221 121.546 39.5716 121.092 39.4204C120.723 39.2943 120.294 39.0338 120.134 38.8321C119.924 38.5716 119.84 38.1515 119.84 37.3363C119.832 36.2523 119.849 36.1935 120.294 36.0254C120.546 35.9246 121.076 35.7733 121.471 35.6893C121.866 35.5968 122.336 35.4372 122.521 35.3195C122.706 35.2019 122.924 34.9162 123.017 34.6893C123.101 34.454 123.303 33.7985 123.454 33.2187L123.731 32.1683Z" fill="white"/>
</svg>
