<svg width="479" height="809" viewBox="0 0 479 809" fill="none" xmlns="http://www.w3.org/2000/svg">
<path d="M191.351 521.325L182.703 313.757H229.189C247.207 313.757 262.702 310.514 275.675 304.027C289.369 297.541 299.82 288.532 307.027 277C314.955 264.748 318.919 250.334 318.919 233.757C318.919 217.901 315.315 204.208 308.108 192.676C300.901 180.424 290.811 171.415 277.838 165.649C264.865 159.163 249.729 155.92 232.432 155.92C205.766 155.92 181.261 163.847 158.919 179.703C137.297 194.838 119.64 215.739 105.946 242.406L0 142.947C21.6216 100.424 52.9729 66.1899 94.054 40.244C135.135 13.5773 183.784 0.244019 240 0.244019C286.847 0.244019 328.288 9.97374 364.324 29.4332C400.36 48.8926 428.468 75.5593 448.648 109.433C468.828 142.586 478.918 180.064 478.918 221.865C478.918 264.388 470.27 300.784 452.973 331.055C435.675 361.325 412.252 386.19 382.702 405.649C353.153 424.388 319.639 437.721 282.162 445.649L330.81 381.865L321.081 521.325H191.351ZM256.216 808.892C227.387 808.892 203.603 799.162 184.865 779.703C166.847 760.243 157.838 736.82 157.838 709.432C157.838 680.604 166.847 656.82 184.865 638.081C203.603 618.622 227.387 608.892 256.216 608.892C284.324 608.892 307.387 618.622 325.405 638.081C344.144 656.82 353.513 680.604 353.513 709.432C353.513 736.82 344.144 760.243 325.405 779.703C307.387 799.162 284.324 808.892 256.216 808.892Z" fill="#7743DB" fill-opacity="0.5"/>
</svg>
