<svg width="75" height="86" viewBox="0 0 75 86" fill="none" xmlns="http://www.w3.org/2000/svg">
<path fill-rule="evenodd" clip-rule="evenodd" d="M71.5041 0.188778C71.5693 0.184709 71.8378 0.351559 72.0942 0.550965C72.5215 0.884665 72.6029 0.917221 73.0099 0.917221C73.4046 0.917221 73.4616 0.937568 73.5063 1.10035C73.5348 1.20209 73.5308 1.44626 73.5023 1.64973C73.4494 2.00378 73.4616 2.0282 73.84 2.40666C74.1941 2.76071 74.2429 2.78513 74.3528 2.66711C74.4179 2.59793 74.5278 2.54096 74.597 2.54503C74.6621 2.54909 74.7801 2.59386 74.8574 2.65083C74.9347 2.70374 74.9999 2.82989 74.9999 2.93163C75.0039 3.03337 74.9185 3.30602 74.8127 3.54206C74.6946 3.80657 74.4505 4.13213 74.1615 4.39665C73.9092 4.63268 73.6569 4.82395 73.5999 4.82802C73.543 4.82802 73.4534 4.78326 73.4005 4.72628C73.3436 4.66524 73.3273 4.54316 73.3598 4.42921C73.4046 4.27864 73.3924 4.25015 73.2947 4.28678C73.2256 4.31119 73.0384 4.50653 72.8756 4.72221C72.7128 4.93383 72.5378 5.2716 72.4849 5.47507C72.432 5.67448 72.3343 5.98783 72.2651 6.16689C72.196 6.34595 72.0291 6.72848 71.8908 7.02149C71.7524 7.31042 71.3292 7.99817 70.9548 8.54755C70.2955 9.49982 70.2507 9.54865 69.8479 9.68295C69.6159 9.76027 69.152 10.0289 68.8183 10.2812C68.4805 10.5375 68.1102 10.8509 67.9881 10.9771C67.866 11.1073 67.7032 11.4328 67.6218 11.7014C67.516 12.0473 67.3492 12.3322 67.048 12.6781C66.7917 12.9711 66.5271 13.3943 66.3847 13.7362C66.2545 14.0495 66.0998 14.428 66.0388 14.5786C65.9615 14.7698 65.8028 14.9245 65.522 15.0832C65.2981 15.2053 64.6755 15.4983 64.1383 15.7343C63.6012 15.9663 62.9419 16.1982 62.6733 16.2552C62.4047 16.3081 61.9815 16.3366 61.7373 16.3122C61.4077 16.2837 61.1595 16.3203 60.8013 16.4505C60.5327 16.5441 59.8369 16.7191 59.2549 16.8331C58.673 16.9511 57.8306 17.0732 57.3829 17.1139C56.9353 17.1505 56.4592 17.2197 56.3249 17.2726C56.1377 17.3458 55.9545 17.3458 55.5517 17.2726C55.218 17.2115 54.5261 17.1871 53.6797 17.2115C52.7193 17.236 52.2106 17.2156 51.8891 17.1383C51.6246 17.0732 51.3234 16.9267 51.1566 16.7802C50.9979 16.6459 50.5014 16.1413 49.2236 14.7943L48.8695 14.9326C48.5725 15.0506 48.2388 15.075 46.8836 15.071C45.9883 15.0669 44.9994 15.0913 44.6861 15.1198C44.2873 15.1605 43.86 15.1361 43.2617 15.0344C42.6269 14.9285 42.1874 14.9041 41.5525 14.9448C41.0805 14.9733 40.4212 15.0466 40.0875 15.1117C39.7498 15.1768 39.1475 15.2216 38.7446 15.2134C38.3417 15.2012 37.9185 15.2216 37.8086 15.2622C37.6947 15.2989 37.1453 15.425 36.5877 15.539C35.7901 15.6977 35.4564 15.7302 35.0413 15.6855C34.6181 15.6407 34.4716 15.5837 34.3088 15.4128C34.1949 15.2948 34.0321 15.0954 33.9426 14.9733C33.792 14.7698 33.7106 14.7454 32.2334 14.5948L31.7857 14.8879C31.3706 15.1605 31.3055 15.1809 30.8904 15.1361C30.5974 15.1035 30.2759 15.132 29.9544 15.2175C29.5963 15.3152 29.401 15.3274 29.2219 15.2704C29.0551 15.2175 28.8191 15.2216 28.4894 15.2826C28.2208 15.3355 27.6511 15.482 26.4547 15.8401L25.946 15.6814C25.4576 15.5349 25.4251 15.5308 25.1524 15.6692C24.9937 15.7465 24.7862 15.8116 24.6844 15.8076C24.5827 15.8076 24.3182 15.7018 24.0943 15.5715C23.8705 15.4413 23.4676 15.2785 23.1991 15.2093C22.9305 15.1402 22.5357 14.9692 22.3241 14.8349C22.0596 14.6681 21.791 14.5745 21.4695 14.5419C21.2131 14.5175 20.798 14.5338 20.5539 14.5786C20.3056 14.6233 19.7929 14.7698 19.4144 14.9041C18.7714 15.132 18.6738 15.2012 18.0064 15.8686C17.5913 16.2837 17.1518 16.8209 16.9605 17.1546C16.7774 17.4679 16.4884 17.8708 16.3175 18.0499C16.1466 18.2289 15.9309 18.5504 15.8373 18.762C15.7478 18.9736 15.6501 19.3602 15.6216 19.6166C15.5972 19.873 15.5158 20.2108 15.4385 20.3695C15.3652 20.5241 15.1943 20.7886 15.06 20.9514C14.8647 21.1875 14.8199 21.3136 14.8281 21.6025C14.8362 21.806 14.7711 22.1316 14.6734 22.3635C14.5188 22.7339 14.5147 22.8193 14.6002 23.3402C14.6531 23.6536 14.7833 24.1663 14.8891 24.4797C14.9949 24.793 15.1251 25.3587 15.178 25.7412C15.231 26.1197 15.3083 26.6894 15.353 27.0028C15.4019 27.3568 15.524 27.7394 15.6745 28.0202C15.8088 28.2643 16.1262 28.7445 16.3826 29.0823C16.639 29.4241 17.0337 29.9043 17.6645 30.6124L18.0715 30.5677C18.3401 30.5392 18.6453 30.5758 18.9668 30.6694C19.2679 30.7589 19.6097 30.9461 19.8621 31.1496C20.0859 31.3327 20.4155 31.7031 20.5905 31.9717C20.7818 32.2565 20.9527 32.6391 21.0056 32.9036C21.0788 33.2373 21.0788 33.4611 20.9201 34.2058L21.3027 34.5924C21.5509 34.8407 21.734 35.1174 21.8114 35.3656C21.9212 35.7034 21.966 35.7522 22.1613 35.7522C22.2834 35.7522 22.6049 35.679 22.8735 35.5895C23.1421 35.4999 23.4351 35.4226 23.5246 35.4226C23.6141 35.4226 23.8827 35.561 24.1228 35.7278C24.542 36.029 24.5705 36.033 24.9489 35.9557C25.3111 35.8825 25.3844 35.8947 26.3204 36.3627L26.6948 36.0574C26.9186 35.8743 27.1587 35.5691 27.2971 35.2842C27.4273 35.0279 27.5738 34.6331 27.6226 34.4093C27.6959 34.0797 27.8017 33.9169 28.1761 33.5547C28.4324 33.3065 28.7295 32.9605 28.8394 32.7815C28.9493 32.6024 29.283 32.1996 29.58 31.8862C29.8771 31.5728 30.2474 31.1293 30.4021 30.9014C30.5608 30.6694 30.866 30.3601 31.0858 30.2096C31.3055 30.0549 31.7003 29.7945 31.9607 29.6276C32.2212 29.4608 32.5101 29.3224 32.5996 29.3224C32.7054 29.3224 32.8845 29.4933 33.1083 29.7985C33.2996 30.059 33.617 30.3968 33.8123 30.5514C34.1542 30.8118 34.2152 30.8281 34.9111 30.8566C35.3181 30.8688 35.8715 30.881 36.1401 30.881C36.4412 30.881 36.8156 30.8118 37.1168 30.702C37.4301 30.588 37.7272 30.5311 37.951 30.5514C38.2929 30.584 38.2969 30.584 38.419 30.2177C38.4882 30.0142 38.6795 29.6317 39.1515 28.8666L39.9247 28.8096C40.348 28.7812 41.2107 28.7486 41.8374 28.7445C42.5374 28.7364 43.103 28.769 43.3024 28.83C43.571 28.9155 43.7053 28.9114 44.5233 28.6754L45.4186 29.1637L45.9069 29.0009C46.1755 28.9073 46.5784 28.8096 47.2092 28.7283L46.8429 28.6306C46.6394 28.5777 46.2203 28.4678 45.9069 28.3905C45.5936 28.3172 45.2884 28.2114 45.2273 28.1585C45.1703 28.1056 45.1419 27.9876 45.1663 27.8981C45.1907 27.8045 45.3982 27.6417 45.6424 27.5196C45.8784 27.4016 46.379 27.251 46.7615 27.1818C47.14 27.1127 47.7463 27.0313 48.1045 26.9987C48.5114 26.9621 48.9184 26.8685 49.1829 26.7464C49.5491 26.5836 49.7363 26.5551 50.4851 26.5551C51.238 26.5551 51.413 26.5836 51.7263 26.7423C51.9257 26.8441 52.3856 27.0801 52.7437 27.2673C53.3663 27.5888 53.403 27.6254 53.578 28.0568C53.7041 28.3701 53.7611 28.6754 53.7611 29.0579C53.7611 29.4323 53.696 29.7863 53.5576 30.177C53.4477 30.4904 53.3541 30.8363 53.3501 30.9502C53.3501 31.0601 53.2402 31.4101 52.8821 32.2931L52.4059 32.4356C52.1455 32.5129 51.885 32.578 51.8281 32.578C51.7711 32.578 51.5351 32.4437 51.299 32.2809C51.063 32.1141 50.6601 31.7763 50.3997 31.5281C50.0415 31.1822 49.9113 30.9909 49.773 30.3805L49.3864 30.5717C49.1218 30.706 48.7841 30.7834 48.3079 30.82C47.9254 30.8525 47.3882 30.9136 47.1074 30.9543C46.6069 31.0316 46.5987 31.0357 46.4685 31.3775C46.3993 31.5688 46.2081 31.9432 46.0412 32.2118C45.8784 32.4763 45.5936 32.8629 45.4064 33.0664C45.2192 33.2658 44.9587 33.5791 44.8326 33.7582C44.7023 33.9372 44.4012 34.2669 44.1611 34.4907C43.9251 34.7145 43.5954 35.0848 43.4327 35.3168C43.2739 35.5447 42.7937 36.1307 42.3746 36.619C41.7479 37.3393 41.5037 37.555 41.0642 37.787C40.7712 37.9416 40.4009 38.1655 40.2462 38.2835C40.0916 38.4015 39.7823 38.5887 39.5585 38.7026C39.2858 38.841 38.8585 38.9509 38.2562 39.0363C37.4708 39.1462 37.2389 39.2195 36.3843 39.6223C35.8471 39.8787 35.2692 40.2002 35.0983 40.3426C34.9315 40.481 34.7565 40.7048 34.7158 40.8391C34.6751 40.9734 34.5001 41.303 34.3251 41.5716C34.1542 41.8402 33.9588 42.1169 33.8978 42.1861C33.8327 42.2512 33.5397 42.3855 33.2507 42.4832C32.9577 42.5768 32.5386 42.6704 32.3148 42.6907C31.92 42.7233 31.8956 42.7152 31.4602 42.3041C31.2119 42.0722 30.809 41.7385 30.5649 41.5554C30.3166 41.3763 29.9789 41.1688 29.812 41.0955C29.5109 40.9653 29.5068 40.9653 29.458 41.1443C29.4295 41.2461 29.4295 41.417 29.4539 41.5309C29.4783 41.6408 29.5597 41.8809 29.7672 42.3855L29.8812 42.1617C29.9504 42.0315 30.0603 41.9379 30.1579 41.9379C30.2637 41.9379 30.4428 42.1088 30.6666 42.414C30.8579 42.6745 31.2241 43.0407 31.4805 43.2279C31.8875 43.5209 31.9648 43.6186 32.0665 43.993C32.1601 44.3348 32.2537 44.4732 32.5345 44.6848C32.8234 44.9046 32.9577 44.9534 33.2914 44.9534C33.6699 44.9534 33.7269 44.9778 34.146 45.3807C34.3902 45.6127 34.8134 45.9952 35.082 46.2231C35.4401 46.5283 35.6111 46.744 35.7169 47.037C35.7983 47.2527 36.0587 47.7044 36.2947 48.0422C36.5308 48.3759 36.9133 48.9619 37.1412 49.3444C37.4993 49.9385 37.5604 50.0973 37.5604 50.4635C37.5644 50.8176 37.6133 50.96 37.8493 51.2978C38.0894 51.6437 38.2033 51.7251 38.5859 51.8471C38.9928 51.9733 39.0742 52.0384 39.3387 52.4535C39.6033 52.8605 39.6806 52.9256 39.9654 52.9703C40.1445 53.0029 40.3439 53.0558 40.4131 53.0883C40.4782 53.1209 40.6003 53.3814 40.6857 53.6703C40.8241 54.1505 40.8241 54.2115 40.702 54.5127C40.6288 54.6917 40.5718 54.8545 40.5718 54.8789C40.5718 54.8993 40.7264 55.0336 40.9177 55.1719C41.109 55.3144 41.4793 55.4853 41.7357 55.5585C42.1019 55.6643 42.2118 55.7335 42.2403 55.876C42.2606 55.9777 42.3095 56.2219 42.3461 56.4253C42.3827 56.6248 42.4031 56.8567 42.3909 56.934C42.3746 57.0317 42.2199 57.1131 41.8985 57.1986C41.6421 57.2677 41.3735 57.3532 41.3084 57.3898C41.2392 57.4264 41.1212 57.6014 40.8892 58.0938L41.2595 58.4601C41.4671 58.6595 41.6339 58.8711 41.6339 58.9281C41.6339 58.9891 41.7031 59.0136 41.8171 58.9932C41.9188 58.9729 42.045 58.981 42.1019 59.0136C42.1548 59.0461 42.2769 59.3066 42.3664 59.5996C42.456 59.8885 42.5292 60.1367 42.5292 60.1489C42.5292 60.1612 42.4723 60.2222 42.4071 60.2914C42.3258 60.3728 42.2362 60.3891 42.1426 60.3443C42.0653 60.3036 41.8781 60.0594 41.7275 59.7949C41.5729 59.5304 41.4386 59.2944 41.4223 59.274C41.406 59.2496 41.3328 59.2862 41.2636 59.3554C41.17 59.4409 41.0601 59.4612 40.8933 59.4164C40.6776 59.3595 40.6613 59.3717 40.7061 59.5385C40.7305 59.6403 40.6857 59.9373 40.6044 60.2019C40.4782 60.6007 40.3968 60.7187 40.1282 60.8896C39.9492 61.0035 39.7905 61.1012 39.7782 61.1012C39.762 61.1053 39.7864 61.2314 39.8352 61.3901C39.9085 61.6343 40.0265 61.7361 40.6735 62.1145C41.0886 62.3546 41.6665 62.6273 41.9554 62.725C42.4682 62.8918 42.4926 62.9121 42.8629 63.5063C43.1722 64.0068 43.3024 64.1452 43.5954 64.2714C43.7948 64.3609 44.1733 64.5074 44.4419 64.5969C44.7959 64.719 44.9384 64.8126 44.9547 64.9306C44.975 65.0405 44.8814 65.1748 44.3809 65.5817L44.7146 65.887C45.0279 66.1678 45.0523 66.2207 45.032 66.5706C45.0116 66.9206 45.0279 66.9572 45.2558 67.0508C45.3901 67.1078 45.6098 67.1811 45.7441 67.2136C45.9761 67.2706 45.9842 67.2665 45.8581 67.12C45.7848 67.0346 45.7035 66.8921 45.675 66.8026C45.6465 66.7131 45.6668 66.5951 45.7238 66.534C45.7848 66.4689 46.0209 66.4323 46.3342 66.4323C46.7941 66.4363 46.8551 66.4567 46.9935 66.6602C47.0789 66.7823 47.2499 67.0834 47.376 67.3316C47.5998 67.7589 47.608 67.8403 47.665 70.3838L47.1522 70.7826C46.6801 71.1488 46.6232 71.1733 46.4156 71.0878C46.2366 71.0145 46.1796 71.0186 46.1307 71.1041C46.0982 71.1692 45.8581 71.3523 45.6017 71.511C45.3453 71.6738 45.0605 71.8081 44.9709 71.8081C44.8692 71.8081 44.7023 71.6616 44.5314 71.4215C44.3076 71.1041 44.2018 71.0268 43.9413 70.9861C43.7012 70.9494 43.5344 70.9861 43.221 71.1407C42.8304 71.336 42.7937 71.3401 42.3258 71.2384C41.8659 71.1366 41.8171 71.1407 41.4712 71.3157C41.2677 71.4174 40.9014 71.5192 40.6573 71.5436C40.409 71.5639 39.88 71.7064 39.4771 71.8569C39.0742 72.0075 38.6998 72.1296 38.6428 72.1337C38.5859 72.1337 38.4557 72.3086 38.3458 72.5203C38.24 72.7319 38.0975 73.09 38.0284 73.3138C37.9225 73.6557 37.9185 73.7899 38.0039 74.1684C38.0609 74.4126 38.1871 74.7707 38.2847 74.962C38.3783 75.1532 38.4597 75.3811 38.4597 75.4707C38.4597 75.5968 38.3336 75.6782 37.8696 75.8491C37.3203 76.0526 37.2185 76.0607 36.3843 76.016C35.7738 75.9834 35.3465 75.9142 35.0413 75.7962C34.6181 75.6375 34.5693 75.6334 33.7391 75.8776L33.2711 75.5195C33.0147 75.3242 32.5833 75.0596 32.3148 74.9294C31.9241 74.7422 31.7613 74.5998 31.4886 74.2091C31.3015 73.9405 31.0939 73.5173 31.0288 73.2731C30.923 72.8906 30.9189 72.7482 31.0125 72.2964C31.0695 72.0034 31.1956 71.5476 31.2892 71.2791C31.4195 70.9128 31.4642 70.5954 31.4642 69.2443L31.8956 68.7967C32.2619 68.4182 32.3432 68.2758 32.4287 67.8607C32.4857 67.5921 32.5182 67.2625 32.506 67.1282C32.4816 66.9328 32.4084 66.8474 32.1113 66.7009C31.9078 66.5991 31.5416 66.4811 31.2974 66.4323C31.0491 66.3834 30.6015 66.2736 30.3004 66.1881C29.7835 66.0375 29.7347 66.005 29.4661 65.5817C29.1853 65.1422 29.1772 65.1341 28.7946 65.1382C28.5749 65.1382 28.3673 65.0934 28.3144 65.0364C28.2534 64.9672 28.2371 64.8045 28.2737 64.5888C28.3104 64.3487 28.2982 64.2307 28.2249 64.2022C28.1679 64.1778 28.0214 64.1574 27.8993 64.1574C27.7244 64.1574 27.5209 64.0028 26.9837 63.4575C26.6012 63.0749 25.9623 62.4808 25.5594 62.143C25.1565 61.8052 24.6519 61.3576 24.4403 61.1541C24.0984 60.8204 24.0455 60.7227 23.9641 60.2507C23.8746 59.742 23.8787 59.7013 24.0943 59.274C24.2164 59.0258 24.4484 58.6432 24.6071 58.4194C24.7658 58.1956 25.1077 57.7927 25.364 57.5241C25.6245 57.2555 25.8971 56.8893 25.9745 56.7102C26.064 56.4945 26.1047 56.1893 26.0965 55.8149C26.0884 55.4975 26.1535 54.8911 26.414 53.6581L26.2024 53.2308C26.0192 52.8605 25.9989 52.7384 26.0436 52.3151C26.0803 51.9774 26.064 51.7251 25.9826 51.5012C25.8727 51.196 25.832 51.1675 25.3071 51.0048C24.9978 50.9112 24.4321 50.7565 24.0537 50.6629C23.4188 50.5083 23.3252 50.5042 22.9142 50.61C22.6659 50.6751 22.1735 50.8745 21.8154 51.0536C21.4573 51.2327 20.9039 51.6111 20.5824 51.8878C20.2609 52.1686 19.6382 52.6122 19.1987 52.8767C18.7592 53.1453 18.218 53.4912 17.9982 53.6499C17.7703 53.8168 17.5343 54.0813 17.2861 54.5941L17.4936 55.0621C17.6198 55.3388 17.6971 55.644 17.6849 55.8068C17.6727 55.9614 17.6808 56.1039 17.7052 56.1242C17.7256 56.1405 17.9087 56.2544 18.1122 56.3724C18.3116 56.4864 18.6982 56.7794 19.4551 57.459L19.3127 57.8985C19.2109 58.2159 19.1702 58.6107 19.1702 59.3147C19.1702 59.8519 19.2109 60.5274 19.2557 60.8204C19.3005 61.1094 19.4144 61.6587 19.508 62.0413C19.6708 62.7087 19.6708 62.7453 19.5365 63.0993C19.4592 63.2988 19.2679 63.7016 19.1133 63.9946C18.9586 64.2836 18.7796 64.6865 18.7185 64.8899C18.6493 65.1097 18.6005 65.6062 18.6005 66.1311C18.6005 66.9043 18.6249 67.0549 18.804 67.413C18.9912 67.7834 18.9993 67.8566 18.922 68.2473C18.8487 68.5973 18.8569 68.7641 18.9708 69.1629C19.0766 69.5414 19.0888 69.7164 19.0237 69.9361C18.979 70.0908 18.9179 70.3594 18.8935 70.5262C18.865 70.6931 18.8976 71.043 18.9586 71.2994C19.0237 71.5558 19.1011 71.9668 19.1377 72.215C19.1702 72.4592 19.3005 72.8458 19.4266 73.0696C19.5528 73.2935 19.6545 73.5214 19.6586 73.5783C19.6586 73.6353 19.5487 73.8551 19.4185 74.0667C19.2598 74.319 19.154 74.6242 19.1092 74.9416C19.0482 75.4259 19.0441 75.434 18.2343 75.8654L18.1651 76.6223C18.1284 77.0415 18.0104 77.7781 17.7052 79.1332L17.9006 79.4791C18.0064 79.6704 18.1773 80.0244 18.279 80.2727C18.3808 80.5169 18.6046 80.9564 18.7714 81.2494C18.9423 81.5383 19.158 82.0714 19.2557 82.4295C19.3534 82.7876 19.5284 83.3818 19.6464 83.744C19.8376 84.3381 19.8498 84.4236 19.74 84.5416C19.6708 84.6148 19.5609 84.6555 19.4958 84.6352C19.4266 84.6149 19.2191 84.5579 19.0278 84.509C18.8325 84.4602 18.4866 84.2649 18.2343 84.0573C17.7947 83.6951 17.7825 83.6911 17.4407 83.7806C17.2494 83.8294 16.9117 83.9637 16.6878 84.0818C16.464 84.1957 16.0408 84.3341 15.7519 84.391C15.292 84.4765 15.1129 84.4684 13.5136 84.1713L12.7404 84.9933C12.0445 85.7299 11.9387 85.8113 11.6823 85.8113C11.5236 85.8113 11.2876 85.7869 11.1533 85.7625C11.019 85.734 10.726 85.5508 10.5022 85.3555C10.2784 85.1561 10.0586 84.9933 10.0138 84.9933C9.96908 84.9933 9.77781 85.0584 9.59061 85.1358C9.2854 85.2619 9.23249 85.266 9.11041 85.1561C9.03716 85.0869 8.92728 84.8956 8.86624 84.7288C8.7645 84.4561 8.72787 84.4277 8.52847 84.4684C8.40638 84.4928 8.22326 84.5294 8.12152 84.5497C8.01978 84.5701 7.88956 84.5416 7.83258 84.4846C7.77561 84.4277 7.70236 84.1998 7.6698 83.9759C7.62911 83.7155 7.49481 83.394 7.29134 83.0806C7.11635 82.8121 6.91694 82.3725 6.84776 82.104C6.74195 81.6726 6.73788 81.5017 6.84369 80.6389C6.90473 80.1018 6.95764 79.6053 6.95764 79.5402C6.95764 79.471 7.12449 79.1983 7.32796 78.9297C7.53958 78.653 7.75119 78.2583 7.8163 78.0141C7.88549 77.7781 7.97502 77.5665 8.01978 77.5461C8.06454 77.5217 8.18256 77.3508 8.28023 77.1595C8.37383 76.9682 8.4837 76.6101 8.52033 76.3659C8.56509 76.0404 8.54475 75.7962 8.45115 75.4707C8.34534 75.1003 8.34127 74.9538 8.41859 74.6161C8.4715 74.3922 8.71567 73.7696 8.96391 73.2324C9.3912 72.3127 9.42376 72.1947 9.5255 71.2384C9.58654 70.6768 9.65979 70.1274 9.68828 70.0175C9.72084 69.9036 9.68421 69.6024 9.61096 69.3257C9.48073 68.8536 9.48073 68.8251 9.8185 68.0235L9.65165 67.5758C9.49701 67.1607 9.49294 67.0956 9.60282 66.7212C9.71677 66.3143 9.71677 66.3143 9.45225 65.9073C9.30981 65.6835 8.95984 65.0405 8.67904 64.483C8.39824 63.9214 8.07268 63.2988 7.95874 63.0993C7.8041 62.8267 7.75933 62.6598 7.79189 62.4482C7.8163 62.2895 7.96281 61.8866 8.41045 60.9425L8.07268 60.6047C7.88549 60.4175 7.58027 60.1896 7.38901 60.096C7.18146 59.9943 6.88846 59.9251 6.65649 59.9292C6.36756 59.9292 6.16815 59.9943 5.86294 60.1815C5.48854 60.4135 5.39495 60.4379 4.72348 60.446C4.02352 60.4542 3.96248 60.4704 3.42123 60.7797C3.10788 60.9588 2.83115 61.1175 2.81081 61.1297C2.78639 61.1419 2.51373 61.0442 1.63065 60.6617L1.25218 59.7013C0.918483 58.8671 0.86558 58.6432 0.828954 57.9718C0.784189 57.227 0.771981 57.1782 0.44642 56.7102C0.141207 56.2666 0.11679 56.1893 0.157485 55.8556C0.185971 55.6521 0.206319 55.4324 0.202249 55.3673C0.202249 55.2981 0.377238 55.0254 0.588853 54.7528C0.804537 54.4842 1.02429 54.1464 1.08126 53.9999C1.17893 53.7476 1.17079 53.7232 0.816746 53.3122C0.61327 53.0761 0.336543 52.6651 0.19818 52.3965C-0.0500602 51.9204 -0.0541297 51.896 0.124929 50.8094L0.674313 50.5368C0.975457 50.3862 1.38648 50.2356 1.58995 50.2071C1.78936 50.1746 2.14748 50.0403 2.38351 49.9101C2.71721 49.7229 2.85557 49.5804 3.01428 49.263C3.16485 48.9659 3.3317 48.7828 3.64506 48.5834C3.95841 48.384 4.10084 48.2334 4.17409 48.0137C4.25955 47.7695 4.25548 47.6393 4.15781 47.2893C4.06828 46.9678 4.06015 46.7318 4.11305 46.333C4.15374 46.04 4.23513 45.6208 4.30025 45.397C4.36129 45.1731 4.50779 44.8069 4.62174 44.5831C4.73568 44.3592 4.8537 44.0093 4.87812 43.8099C4.9066 43.6064 4.97579 43.3826 5.03276 43.3093C5.08566 43.2361 5.3339 43.0163 5.57807 42.821C5.82631 42.6256 6.17222 42.357 6.35128 42.2268C6.53034 42.0966 6.70533 41.9501 6.73788 41.9013C6.77044 41.8524 6.79893 41.6978 6.79893 41.5513C6.79893 41.4048 6.69312 41.0955 6.56289 40.8595C6.4286 40.6234 6.26582 40.2206 6.19664 39.9642C6.07862 39.5409 6.07862 39.4514 6.19257 39.0282C6.29838 38.6416 6.30245 38.4625 6.22919 37.9905C6.17629 37.6771 6.11525 37.1277 6.09083 36.7696C6.05828 36.2975 6.08269 35.9883 6.17629 35.6505C6.24954 35.3941 6.31058 34.9912 6.30652 34.7552C6.30245 34.3727 6.34314 34.2709 6.68498 33.7989C6.89253 33.5059 7.23029 33.103 7.43377 32.9036C7.73491 32.6106 7.82851 32.4478 7.91397 32.0693C7.97095 31.8129 8.21919 31.2066 8.45929 30.7264C8.86624 29.9206 8.94356 29.8189 9.45632 29.4323C9.97315 29.0457 10.0179 28.9887 10.079 28.6184C10.14 28.2765 10.2132 28.1626 10.6487 27.7516C10.9783 27.4423 11.2103 27.2877 11.3161 27.3039C11.4382 27.3243 11.548 27.5155 11.7678 28.1016C11.9306 28.5248 12.1463 29.0579 12.2521 29.2817C12.3945 29.5951 12.4474 29.652 12.4759 29.5259C12.4962 29.4364 12.4678 29.1963 12.4189 28.9968C12.366 28.7934 12.1992 28.4393 12.0445 28.2033C11.8655 27.9306 11.723 27.5766 11.6539 27.2266C11.5928 26.9255 11.4829 26.5307 11.4056 26.3517C11.312 26.1278 11.2713 25.7982 11.2754 25.2936C11.2754 24.8907 11.312 24.2681 11.3527 23.91C11.3934 23.5518 11.5155 23.0554 11.6172 22.8112C11.723 22.5629 11.8004 22.2618 11.7881 22.1397C11.7637 21.92 11.7556 21.9159 11.3771 21.9688C11.0109 22.0217 10.9661 22.0054 10.5266 21.6636C10.1481 21.3706 10.0342 21.2281 9.91617 20.8782C9.81036 20.5648 9.7127 20.4265 9.56619 20.3736C9.39527 20.3125 9.38714 20.3003 9.5255 20.2922C9.61503 20.2881 9.76153 20.227 9.85106 20.1619C9.95687 20.0846 10.2051 20.0399 10.5429 20.0399C10.9213 20.0358 11.1045 20.0724 11.194 20.166C11.2591 20.2352 11.3608 20.2922 11.4178 20.2922C11.4748 20.2881 11.5847 20.3288 11.662 20.3776C11.7475 20.4305 11.7963 20.5485 11.7841 20.6625C11.7678 20.8334 11.7963 20.8578 12.0486 20.8578C12.2806 20.8578 12.3416 20.8212 12.3701 20.6747C12.3904 20.573 12.3742 20.4549 12.3335 20.4102C12.2887 20.3613 12.3213 20.2881 12.4189 20.227C12.5166 20.1619 12.5898 20.0114 12.6061 19.8201C12.6305 19.5637 12.5817 19.4416 12.3009 19.0672C12.1178 18.819 11.8573 18.408 11.723 18.1516C11.5399 17.8016 11.4992 17.6511 11.5603 17.5493C11.605 17.4761 11.7963 17.358 12.3335 17.1546V16.7273C12.3335 16.3814 12.3904 16.2023 12.6387 15.7791C12.8055 15.4901 13.1555 15.071 13.4119 14.8431C13.6683 14.6152 13.9328 14.428 14.002 14.428C14.0671 14.428 14.2014 14.2896 14.295 14.1228C14.4496 13.842 14.4577 13.7809 14.3641 13.3699C14.2828 12.9915 14.2868 12.8612 14.3967 12.5153C14.47 12.2915 14.5839 12.027 14.6531 11.9252C14.7304 11.8113 14.8891 11.7258 15.0804 11.6974C15.2472 11.6729 15.6053 11.5346 15.8739 11.3921C16.289 11.1683 16.3948 11.0666 16.5861 10.684C16.7123 10.4358 16.814 10.1062 16.814 9.95153C16.814 9.79282 16.8588 9.58121 16.9117 9.4754C16.9686 9.37366 17.2332 9.16612 17.5017 9.02369C17.7703 8.87718 18.043 8.77545 18.1122 8.79579C18.1773 8.82021 18.2587 8.87718 18.2912 8.92602C18.3197 8.97485 18.3726 9.17833 18.4011 9.3818C18.4296 9.58121 18.5435 9.93933 18.6493 10.1754C18.8162 10.5375 18.9057 10.6311 19.2313 10.7736C19.5365 10.9119 19.7033 10.9364 20.0248 10.8957C20.2487 10.8631 20.5702 10.8021 20.737 10.7614C21.0178 10.6881 21.0463 10.6556 21.087 10.3381C21.1114 10.1347 21.2579 9.79282 21.4451 9.50389C21.6974 9.11729 21.852 8.97078 22.1939 8.80393C22.5113 8.65336 22.7026 8.48651 22.8938 8.19351C23.0892 7.90457 23.1624 7.70517 23.1584 7.46913C23.1584 7.29007 23.2153 6.97672 23.2886 6.77732C23.37 6.54128 23.4147 6.17096 23.4025 5.06812L23.9519 4.90534C24.2531 4.81174 24.7007 4.73849 24.9489 4.74256C25.1931 4.74256 25.6896 4.81581 26.0477 4.90534C26.4058 4.99487 26.8087 5.06812 26.943 5.06812C27.0773 5.06812 27.4069 5.20242 27.6755 5.3652C27.9441 5.52798 28.3266 5.73145 28.5301 5.81691C28.8109 5.939 28.99 5.96341 29.3033 5.92272C29.5434 5.89016 29.9015 5.75587 30.1783 5.59309C30.5201 5.38554 30.6829 5.33264 30.7887 5.38554C30.8904 5.43438 30.9474 5.6053 30.9922 5.97562C31.0288 6.26049 31.0939 6.61861 31.1387 6.77732C31.1875 6.93603 31.4032 7.24531 32.034 7.87608H32.9903C33.5153 7.87608 34.3617 7.81097 34.8786 7.73365C35.3913 7.65633 35.9529 7.57494 36.1198 7.55052C36.4087 7.5139 36.4372 7.52611 36.6488 7.87608C36.7709 8.07956 36.9011 8.24234 36.9337 8.24234C36.9662 8.24234 37.1209 8.18537 37.2796 8.12026C37.5441 8.00631 37.6499 8.01445 38.7649 8.23827C39.6724 8.41733 40.1852 8.4743 40.8607 8.47023C41.6828 8.46616 41.8293 8.49058 42.6106 8.7551C43.0786 8.91788 43.6036 9.06845 43.7704 9.09287C43.9373 9.11729 44.1937 9.15391 44.3402 9.17426C44.4989 9.19868 44.8366 9.39401 45.1744 9.6626C45.4878 9.90677 45.8906 10.1794 46.0697 10.2649C46.2488 10.3503 46.5336 10.4439 46.7005 10.4724C46.9894 10.5172 47.022 10.5009 47.3516 10.1021C47.5998 9.79689 47.8399 9.61783 48.2062 9.45099C48.487 9.32483 48.7678 9.21902 48.837 9.21902C48.9021 9.21902 49.0974 9.276 49.2643 9.34925C49.4311 9.41843 49.7526 9.50796 49.9764 9.54458C50.3427 9.60563 50.4241 9.58935 50.7903 9.37773C51.0142 9.24751 51.2624 9.1417 51.3397 9.1417C51.417 9.13763 51.6694 9.25565 51.9013 9.40215C52.2676 9.63411 52.3815 9.6626 52.7763 9.64225C53.1303 9.6219 53.3948 9.67074 53.9646 9.87828C54.5506 10.0899 54.8069 10.1428 55.2465 10.1306C55.5476 10.1225 55.9871 10.1672 56.2231 10.2323C56.4592 10.2974 56.7766 10.3707 56.9353 10.391C57.0899 10.4155 57.6393 10.4602 59.0921 10.5416L59.4991 10.2161C59.7555 10.0085 60.2072 9.77655 60.7199 9.58528C61.1676 9.4225 61.9164 9.06031 62.3803 8.78359C63.1617 8.31966 63.239 8.25048 63.4058 7.87608C63.4994 7.65226 63.7599 7.27787 63.9837 7.0459C64.2034 6.81394 64.4842 6.58605 64.6063 6.53722C64.7284 6.48838 65.1313 6.45176 65.5016 6.45583C66.0714 6.45583 66.1975 6.43141 66.3359 6.29304C66.4254 6.19945 66.4783 6.10992 66.458 6.08957C66.4335 6.06922 66.2708 6.00004 66.0917 5.939C65.7987 5.83319 65.7661 5.79656 65.7702 5.54832C65.7743 5.39368 65.8394 5.10475 65.9126 4.90534C66.0266 4.6042 66.1405 4.48211 66.5597 4.21759C67.0521 3.90831 67.0806 3.90017 67.4143 3.99377C67.6056 4.04667 67.7968 4.09144 67.8416 4.09144C67.8864 4.09144 68.0776 3.95715 68.2689 3.79436C68.4602 3.63158 68.8264 3.14731 69.0828 2.71594C69.4572 2.09331 69.738 1.75554 70.4664 1.06372C70.971 0.583521 71.435 0.188778 71.5041 0.188778ZM33.088 21.6758C33.1531 21.6717 33.263 21.7246 33.3321 21.7979C33.4257 21.8996 33.4339 21.981 33.3728 22.1357C33.3118 22.2903 33.1571 22.392 32.7624 22.5345C32.4694 22.6403 32.1683 22.7095 32.0909 22.6891C32.0136 22.6647 31.9485 22.5752 31.9485 22.4856C31.9485 22.3961 31.9933 22.2822 32.0502 22.2333C32.1072 22.1845 32.3351 22.0421 32.5589 21.9159C32.7828 21.7938 33.0188 21.6839 33.088 21.6758ZM40.1567 22.6159C40.409 22.6443 40.7061 22.7135 40.82 22.7664C40.9299 22.8234 41.1415 22.9373 41.288 23.0228C41.463 23.1245 41.5688 23.2588 41.5973 23.4216C41.6258 23.5559 41.6339 23.8286 41.6177 24.032C41.5973 24.3413 41.5648 24.4024 41.4101 24.4186C41.2758 24.4349 41.1375 24.3291 40.8811 24.0036C40.6695 23.735 40.3643 23.4786 40.0957 23.3321C39.8556 23.2019 39.6155 23.035 39.5666 22.9618C39.5015 22.86 39.5056 22.7949 39.587 22.6972C39.6724 22.5955 39.7945 22.5792 40.1567 22.6159ZM37.9673 23.2955C38.0365 23.2955 38.2685 23.4867 38.4841 23.7228C38.712 23.9751 38.8707 24.2314 38.8707 24.3373C38.8667 24.439 38.8097 24.5367 38.7446 24.5611C38.6754 24.5814 38.4923 24.6018 38.3376 24.6018C38.1586 24.6018 37.9999 24.6628 37.9103 24.7564C37.833 24.8459 37.5482 25.0291 37.2796 25.1674C36.9174 25.3546 36.722 25.4075 36.5267 25.379C36.3802 25.3546 36.2622 25.3506 36.2622 25.375C36.2622 25.3953 36.307 25.4849 36.3639 25.5703C36.4412 25.6883 36.4412 25.7534 36.3721 25.8348C36.3232 25.8959 36.0668 25.9895 35.8023 26.0465C35.5419 26.1034 35.1349 26.1482 34.8989 26.1482C34.5123 26.1482 34.4268 26.1848 34.0036 26.5185C33.7187 26.7464 33.4705 26.8807 33.3728 26.8644C33.2304 26.8441 33.206 26.7668 33.1694 25.5785L34.2274 24.671L34.7768 24.7239C35.078 24.7564 35.371 24.8215 35.4279 24.8744C35.4849 24.9273 35.55 24.9477 35.5704 24.9273C35.5907 24.9029 35.5704 24.7564 35.5256 24.6018C35.4849 24.4431 35.4483 24.2518 35.4483 24.1745C35.4483 24.0809 35.6029 23.9629 35.8959 23.8286C36.1401 23.7146 36.425 23.6251 36.5267 23.6251C36.6284 23.621 36.8197 23.6576 36.954 23.6983C37.0883 23.739 37.2999 23.796 37.422 23.8204C37.6173 23.8652 37.6458 23.8448 37.6295 23.6821C37.6214 23.5803 37.6662 23.4501 37.7272 23.3972C37.7883 23.3443 37.8981 23.2995 37.9673 23.2955ZM50.7293 33.2332C50.8554 33.2291 50.9694 33.3227 51.1037 33.5344C51.2095 33.7012 51.3519 33.9494 51.4252 34.0837C51.5473 34.3157 51.5473 34.3483 51.1362 35.1418L51.3316 35.2883C51.4374 35.3697 51.5391 35.4348 51.5635 35.4348C51.5839 35.4348 51.7019 35.2924 51.824 35.1255C51.942 34.9546 52.2635 34.6413 52.5362 34.4296C52.8047 34.218 53.0652 34.043 53.11 34.043C53.1547 34.043 53.4192 34.1488 53.7 34.2791C53.9808 34.4093 54.3919 34.6697 54.6157 34.8569C54.8395 35.0441 55.0511 35.2517 55.0837 35.3127C55.1162 35.3738 55.0715 35.6546 54.9819 35.9354C54.8924 36.2162 54.75 36.5539 54.6645 36.6882C54.5139 36.9202 54.5139 36.9365 54.6523 37.0545C54.7296 37.1196 54.8761 37.3963 54.9779 37.6649C55.0796 37.9335 55.279 38.2997 55.4255 38.4788C55.572 38.6579 55.7144 38.8491 55.7429 38.9061C55.7714 38.9631 55.7389 39.2357 55.6656 39.5165C55.5964 39.7973 55.4947 40.0741 55.4418 40.131C55.3726 40.2083 55.218 40.2246 54.8598 40.1839C54.5913 40.1514 54.3227 40.0863 54.2616 40.0334C54.2047 39.9845 54.0459 39.7526 53.9157 39.5165C53.7204 39.1625 53.6797 38.9956 53.6797 38.5398C53.6797 38.1858 53.7204 37.9254 53.8018 37.8073C53.8669 37.7056 53.9157 37.6079 53.9035 37.5876C53.8913 37.5632 53.7448 37.6364 53.578 37.7504C53.4111 37.8602 53.228 37.9498 53.171 37.9457C53.114 37.9457 52.8902 37.787 52.6704 37.5998C52.2961 37.2783 52.2594 37.262 51.6856 37.4207L51.6042 38.2997C51.5473 38.9265 51.4862 39.195 51.4008 39.2479C51.3316 39.2886 51.2421 39.3049 51.1973 39.2886C51.1525 39.2724 50.9694 39.2235 50.7903 39.1788C50.6113 39.134 50.2369 38.9305 49.9561 38.727C49.6753 38.5236 49.4474 38.3201 49.4474 38.2753C49.4474 38.2306 49.6305 38.0027 49.8503 37.7666C50.2125 37.3882 50.2572 37.2986 50.2613 36.9731C50.2654 36.6719 50.2206 36.5621 49.777 36.1185L49.6061 36.2813C49.5166 36.3708 49.3172 36.6801 49.1666 36.9731C48.9835 37.3312 48.7271 37.6527 48.3771 37.9701C47.9498 38.3527 47.783 38.4503 47.4126 38.5236C47.1644 38.5724 46.908 38.6009 46.8429 38.5846C46.7737 38.5683 46.6313 38.2957 46.5133 37.9498C46.3993 37.612 46.2284 37.1928 46.1307 37.0138C45.9924 36.7493 45.968 36.5946 46.0005 36.1999C46.0249 35.9313 46.1145 35.5284 46.2081 35.3046C46.2976 35.0808 46.5296 34.6413 47.0708 33.7582L47.5469 33.6931C47.8074 33.6605 48.2428 33.575 48.5114 33.5018C48.8288 33.4204 49.1544 33.396 49.4474 33.4285C49.7485 33.4611 50.0009 33.4367 50.2206 33.3594C50.3997 33.2942 50.6276 33.2373 50.7293 33.2332ZM52.6949 39.3497C52.996 39.37 53.0733 39.4067 53.0937 39.5369C53.1059 39.6264 52.9797 39.9113 52.8088 40.1677C52.6379 40.424 52.4263 40.656 52.3368 40.6845C52.2472 40.7089 52.1251 40.6804 52.0682 40.6234C51.9786 40.5339 51.9786 40.424 52.06 40.0252C52.1129 39.7566 52.1984 39.488 52.2432 39.4311C52.292 39.366 52.4588 39.3334 52.6949 39.3497ZM49.6346 40.0618C49.6875 40.0618 49.8096 40.1432 49.9032 40.245C50.0008 40.3508 50.1758 40.5787 50.2979 40.7577C50.4485 40.9775 50.5055 41.1484 50.477 41.2868C50.4526 41.4007 50.2206 41.6774 49.9398 41.9175C49.6712 42.1536 49.3741 42.3448 49.2846 42.3448C49.1829 42.3448 49.1056 42.2757 49.0771 42.1617C49.0527 42.06 49.0242 41.7588 49.016 41.4902C49.0038 41.0711 49.0364 40.9368 49.2683 40.5339C49.4189 40.2775 49.5817 40.0659 49.6346 40.0618ZM57.4359 41.5309C57.5172 41.5309 57.8062 41.7303 58.0748 41.9786C58.3433 42.2228 58.5631 42.4913 58.5631 42.5687C58.5672 42.646 58.5224 42.7559 58.4654 42.8128C58.4085 42.8698 58.1602 42.9146 57.8754 42.9146C57.5864 42.9186 57.3422 42.8739 57.2812 42.8128C57.2202 42.7559 57.1713 42.4832 57.1632 42.1739C57.1591 41.8809 57.1835 41.6164 57.2202 41.5838C57.2568 41.5554 57.3545 41.5309 57.4359 41.5309ZM49.9195 60.5925C50.0944 60.6129 50.1433 60.6739 50.2003 60.9425C50.2369 61.1216 50.2572 61.4146 50.245 61.5936C50.2247 61.8459 50.184 61.9233 50.0578 61.9436C49.9683 61.9599 49.8666 61.9395 49.8299 61.9029C49.7974 61.8663 49.716 61.618 49.6549 61.3495C49.5736 61.0035 49.5613 60.8163 49.6224 60.7146C49.6794 60.6169 49.7811 60.5762 49.9195 60.5925ZM49.0201 65.4637C49.1218 65.4597 49.3782 65.5451 49.5898 65.6509C49.9398 65.8218 50.009 65.83 50.302 65.7364C50.4811 65.6794 50.7089 65.6306 50.8107 65.6306C50.9531 65.6224 51.0833 65.7567 51.7548 66.8026L51.4577 67.3723C51.295 67.6857 51.0508 68.1171 50.9165 68.3287C50.6967 68.6664 50.6113 68.7315 50.2206 68.8374C49.9724 68.9025 49.6916 68.9594 49.5898 68.9554C49.4881 68.9554 49.2154 68.817 48.9835 68.6502C48.7515 68.4833 48.3934 68.1211 48.1899 67.8403C47.8359 67.352 47.8196 67.3113 47.8318 66.8026C47.8399 66.4282 47.8806 66.2369 47.9742 66.1555C48.0434 66.0904 48.2672 65.9073 48.4707 65.7527C48.6701 65.594 48.9184 65.4678 49.0201 65.4637ZM48.9998 70.3716C49.2683 70.3838 49.5369 70.4245 49.602 70.4692C49.6753 70.5181 49.6956 70.6239 49.6631 70.7704C49.6183 70.9657 49.6509 71.0227 49.9439 71.218C50.1392 71.3482 50.4159 71.6657 50.6072 71.9709C50.8961 72.4307 50.945 72.5691 50.9613 73.029C50.9735 73.3179 51.0345 73.7045 51.1037 73.8835C51.2095 74.1725 51.2054 74.262 51.0874 74.7056C51.0142 74.9782 50.8961 75.2631 50.831 75.3404C50.7619 75.4178 50.6805 75.4747 50.6479 75.4747C50.6153 75.4707 50.4119 75.2875 49.8137 74.6568L49.5125 75.0027C49.3335 75.2102 49.0852 75.6782 48.8817 76.1828C48.6131 76.8665 48.5521 77.1147 48.5521 77.5665C48.5521 77.8676 48.5806 78.3437 48.6131 78.6245C48.6701 79.1129 48.6823 79.1332 48.898 79.1332C49.0201 79.1332 49.2114 79.1698 49.3253 79.2146C49.4352 79.2594 49.9032 79.5646 50.363 79.8942C50.8229 80.2238 51.2217 80.5413 51.2543 80.6064C51.2868 80.6756 51.1688 80.9279 50.949 81.2494C50.6398 81.7051 50.5055 81.8191 49.9968 82.0795C49.5451 82.3115 49.2358 82.4092 48.6742 82.4824C48.1818 82.5475 47.844 82.6411 47.3313 82.9586L47.6975 83.7806L47.4126 84.3056C47.1522 84.7858 47.0871 84.8468 46.6394 85.0421C46.2366 85.2171 46.0738 85.2456 45.7034 85.2049C45.4552 85.1805 45.0076 85.1602 44.157 85.1561L43.8722 84.5864C43.6809 84.2079 43.571 83.8457 43.4815 82.9993L43.9007 82.694C44.2669 82.4255 44.3198 82.3522 44.3198 82.104C44.3198 81.9452 44.2913 81.8313 44.2588 81.8476C44.2262 81.8679 44.0512 82.0673 43.8722 82.2993C43.6931 82.5272 43.4815 82.7144 43.4042 82.7144C43.3269 82.7144 43.1885 82.6126 43.0949 82.4906C43.0054 82.3685 42.867 82.1853 42.6513 81.9046L42.2851 82.0755C42.0816 82.1691 41.8537 82.222 41.7764 82.1935C41.699 82.1691 41.6339 82.0633 41.6299 81.9615C41.6299 81.7825 41.6217 81.7825 41.4467 82.0022C41.3491 82.1243 41.2229 82.226 41.1659 82.226C41.109 82.226 40.8445 82.0877 40.5718 81.9208C40.3032 81.754 40.0672 81.579 40.0509 81.5342C40.0346 81.4895 40.1404 81.0296 40.2869 80.5169C40.4334 80 40.5799 79.414 40.6125 79.2146C40.6491 78.9949 40.8038 78.653 41.0032 78.36C41.2962 77.9286 41.3287 77.835 41.284 77.5461C41.2555 77.367 41.1456 77.0008 41.0317 76.7322C40.9136 76.4433 40.8241 76.0445 40.8119 75.7555C40.7916 75.2835 40.8038 75.2509 41.1741 74.7707C41.459 74.4004 41.6258 74.2579 41.8211 74.2172C41.9636 74.1888 42.1833 74.1684 42.3054 74.1684C42.4275 74.1684 42.7205 74.0748 42.9565 73.9568C43.1926 73.8388 43.5588 73.6028 43.7704 73.4278C44.0268 73.2162 44.3442 73.0574 44.7064 72.9557C45.0238 72.8621 45.3087 72.8255 45.3779 72.8621C45.443 72.8987 45.5895 73.2162 45.6953 73.5702C45.8052 73.9202 45.9151 74.5387 45.9436 74.9416C45.9761 75.3567 46.0575 75.7962 46.2732 76.2439L46.2284 75.959C46.1999 75.7718 46.2447 75.5439 46.3505 75.2875C46.4848 74.9742 46.5174 74.7341 46.5133 74.026C46.5051 73.3627 46.5418 73.0412 46.6598 72.7034C46.7452 72.4551 46.9487 72.0156 47.1074 71.7267C47.2702 71.4337 47.5591 71.0674 47.7463 70.9128C47.9376 70.7541 48.1859 70.5669 48.2998 70.4896C48.4463 70.396 48.6538 70.3593 48.9998 70.3716ZM36.8319 78.0751C36.897 78.0711 36.9947 78.1158 37.0435 78.1728C37.0964 78.2298 37.1941 78.4617 37.2714 78.6856C37.3487 78.9257 37.5563 79.2594 37.772 79.4995C38.1097 79.8739 38.1382 79.9308 38.0935 80.232C38.069 80.411 38.0121 81.05 37.9714 81.6563C37.9266 82.2586 37.8656 82.7795 37.8289 82.8121C37.7964 82.8405 37.5766 82.9423 37.3406 83.0359C37.1046 83.1254 36.8482 83.2027 36.7709 83.2027C36.6936 83.2027 36.3721 82.9545 36.0587 82.6533C35.6029 82.2179 35.4076 81.9452 35.1024 81.3308C34.8908 80.9035 34.7158 80.4843 34.7158 80.3948C34.7158 80.3052 34.8256 79.8454 34.964 79.3774C35.0983 78.9053 35.2529 78.474 35.3099 78.417C35.371 78.3519 35.5948 78.3152 35.8959 78.3152C36.2093 78.3193 36.4412 78.2786 36.5471 78.2013C36.6366 78.1362 36.7627 78.0792 36.8319 78.0751ZM54.9331 80.1465C55.161 80.175 55.4214 80.2157 55.511 80.2361C55.6005 80.2564 55.7185 80.3744 55.7714 80.4965C55.8284 80.6186 55.9098 80.8953 55.9545 81.1069C56.0197 81.3999 56.0156 81.522 55.9383 81.6156C55.8813 81.6848 55.5964 81.7743 55.3075 81.8191C54.9005 81.8842 54.754 81.8801 54.6727 81.7987C54.6157 81.7418 54.4895 81.4569 54.4 81.168C54.2372 80.6593 54.2372 80.6267 54.3715 80.3663C54.5139 80.0936 54.518 80.0896 54.9331 80.1465ZM57.0859 82.8161C57.3382 82.9545 57.6108 83.1254 57.6882 83.1946C57.7655 83.2678 57.8835 83.5527 57.9527 83.8335C58.0503 84.2405 58.0544 84.3666 57.973 84.4684C57.9161 84.5375 57.8347 84.5904 57.7899 84.5904C57.7451 84.5904 57.4643 84.3422 57.1673 84.037C56.8702 83.7358 56.569 83.3696 56.4958 83.2231C56.4225 83.0766 56.3574 82.9057 56.3534 82.8405C56.3452 82.7754 56.4022 82.6859 56.4795 82.6452C56.5894 82.5882 56.744 82.633 57.0859 82.8161Z" fill="white"/>
</svg>
