<svg width="75" height="78" viewBox="0 0 75 78" fill="none" xmlns="http://www.w3.org/2000/svg">
<path fill-rule="evenodd" clip-rule="evenodd" d="M1.09804 0.511398C1.27935 0.511398 1.66582 0.568653 1.95687 0.644993C2.24314 0.716561 2.97314 0.821529 3.57909 0.878783C4.18026 0.936038 5.19176 1.06963 5.82157 1.1746C6.45137 1.27957 7.58692 1.5229 8.35032 1.70898C9.10895 1.89983 9.79601 2.10022 9.87235 2.16225C9.94392 2.22427 10.5021 2.89224 11.1033 3.65564C11.7045 4.41427 12.654 5.50688 13.2074 6.07466C13.7657 6.64721 14.5386 7.35335 14.9346 7.65394C15.3259 7.95452 15.865 8.32668 16.1274 8.4889C16.3899 8.65113 16.8813 8.93263 17.2248 9.11871C17.5636 9.30478 18.1886 9.71034 18.6085 10.0205C19.0283 10.3306 19.7345 10.9556 20.183 11.4089C20.6267 11.8574 21.1659 12.4586 21.371 12.7353C21.7098 13.1933 21.872 13.3078 22.9455 13.8327C23.604 14.1571 24.7204 14.8012 25.4313 15.2736C26.1375 15.7412 27.211 16.5284 27.817 17.0199C28.4181 17.5113 29.444 18.4322 30.0928 19.062C30.7417 19.6965 31.7103 20.7271 32.2494 21.3569C32.7838 21.9867 33.5854 22.8408 34.0291 23.2511C34.4681 23.6614 35.2172 24.2578 35.6895 24.5727C36.1619 24.8876 37.0398 25.3886 37.6457 25.6844C38.5188 26.1091 38.9149 26.3715 39.6019 26.987C40.0743 27.4116 40.976 28.1702 41.6058 28.6712C42.2356 29.1674 43.1374 29.8593 43.6098 30.198C44.0821 30.5368 45.1318 31.262 45.9477 31.8059C46.7588 32.3499 47.651 33.0226 47.9277 33.3041C48.2045 33.5808 48.4907 33.9578 48.5718 34.1438C48.6482 34.3251 48.715 34.6591 48.715 34.8834C48.715 35.1506 48.6386 35.4034 48.4955 35.6229C48.3714 35.8042 47.9945 36.1382 47.6558 36.3625C47.3218 36.5867 47.0021 36.768 46.9496 36.768C46.8971 36.768 46.8256 36.9493 46.7922 37.1736C46.7588 37.3978 46.7445 37.9417 46.7683 38.3902C46.7969 39.0296 46.8494 39.2729 47.0212 39.5306C47.1405 39.7071 47.3218 39.9123 47.4267 39.9791C47.5317 40.0459 47.8084 40.1413 48.047 40.1938C48.2808 40.2462 48.777 40.3894 49.1444 40.5182C49.5118 40.647 50.0605 40.8093 50.3611 40.8808C50.8382 40.9953 50.9241 41.0526 51.0099 41.3007C51.0624 41.4581 51.1054 42.1118 51.1006 43.9249L51.7924 45.5709C52.1884 46.5109 52.6512 47.4413 52.8659 47.7323C53.0759 48.0186 53.4624 48.4289 53.7248 48.6484C53.9872 48.8631 54.4166 49.1732 54.679 49.3354C54.9414 49.4977 55.4997 49.7792 55.9195 49.9605C56.3394 50.1466 56.9167 50.3708 57.2078 50.4615C57.494 50.5521 57.7851 50.6952 57.8519 50.7811C57.9187 50.867 57.9759 51.1437 57.9712 51.3919C57.9712 51.64 58.0809 52.1791 58.2193 52.5847C58.3529 52.9902 58.663 53.663 58.9111 54.0733C59.1544 54.4836 59.5791 55.1086 59.8558 55.4569C60.2327 55.9341 60.3616 56.1679 60.3568 56.4016C60.3568 56.6307 60.2757 56.7786 60.0467 56.9742C59.8749 57.1173 59.4121 57.5563 59.0161 57.9523C58.6153 58.3435 58.1286 58.9447 57.9282 59.2882C57.7326 59.627 57.4463 60.2711 57.2984 60.7196C57.141 61.192 56.9883 61.9315 56.931 62.485C56.869 63.1148 56.869 63.8973 56.9263 64.7752C56.9788 65.5099 57.0599 66.5596 57.1028 67.1131C57.1505 67.6618 57.2555 68.9071 57.3366 69.8804C57.4225 70.8489 57.537 72.0942 57.5942 72.6477C57.6754 73.4493 57.6706 73.6783 57.5704 73.7833C57.5036 73.8548 57.0169 74.2652 56.4921 74.6898C55.9673 75.1192 55.2182 75.7061 54.8222 75.9923C54.4309 76.2786 53.7534 76.6937 53.3192 76.918C52.885 77.1422 52.4222 77.3235 52.2934 77.3235C52.1598 77.3235 51.9594 77.2853 51.8401 77.2376C51.7209 77.1899 51.3869 77.1279 51.1006 77.0993C50.8095 77.0706 50.404 77.0182 50.1941 76.9848C49.9841 76.9466 49.5118 76.9704 49.1444 77.0325C48.777 77.0945 48.2188 77.2376 47.9039 77.3426C47.4172 77.5096 47.2693 77.5239 46.9258 77.4333C46.6395 77.3569 46.3771 77.1756 46.0383 76.8225C45.6423 76.4122 45.5182 76.1975 45.3656 75.6536C45.2558 75.2862 45.1127 74.8568 45.0411 74.6993C44.9648 74.5419 44.8789 74.2604 44.8455 74.0791C44.8121 73.893 44.7024 73.4636 44.6022 73.1248C44.4495 72.5952 44.3159 72.3805 43.6575 71.6457C43.2328 71.1734 42.7652 70.6772 42.6173 70.5484C42.4694 70.4148 42.0496 69.9663 41.6917 69.5464C41.3291 69.1265 40.7756 68.5206 40.4607 68.2009C40.1458 67.886 39.5876 67.428 39.2202 67.1846C38.8528 66.9413 38.0179 66.2352 37.369 65.6149C36.7201 64.9946 35.909 64.1454 35.5702 63.7255C35.2362 63.3056 34.5444 62.3371 34.0387 61.5784C33.5329 60.815 33.0892 60.1709 33.0558 60.1471C33.0176 60.1184 32.8506 59.8417 32.6789 59.5268C32.5071 59.2119 32.0586 58.3292 31.6817 57.5706C31.3 56.8072 30.7465 55.6287 30.4411 54.9464C30.1406 54.2641 29.6253 53.0188 29.296 52.1791C28.9668 51.3394 28.3943 49.7505 28.0221 48.6484C27.6547 47.5462 27.1729 46.0862 26.9534 45.4039C26.7387 44.7217 26.2377 43.3475 25.8417 42.3504C25.4457 41.3532 24.8349 39.9123 24.4819 39.1536C24.1336 38.3902 23.5753 37.2976 23.2413 36.7203C22.9121 36.143 22.4446 35.3891 22.206 35.0504C21.9627 34.7068 21.5285 34.1772 21.2374 33.8671C20.9464 33.5617 20.2784 33.0178 19.7536 32.6648C19.2287 32.3117 18.5178 31.7248 18.1695 31.3622C17.8212 31.0044 17.3155 30.365 17.0387 29.9451C16.762 29.5253 16.3326 28.7523 16.0797 28.2275C15.8269 27.7027 15.4929 26.8868 15.3306 26.4144C15.1732 25.9421 14.7629 24.5441 14.4241 23.3131C14.0853 22.0774 13.6941 20.7891 13.551 20.4504C13.4078 20.1069 13.05 19.3578 12.7589 18.7805C12.4011 18.0839 12.0528 17.5543 11.714 17.206C11.2226 16.6954 11.1988 16.6811 10.8314 16.7527C10.464 16.8195 10.4306 16.8052 9.91529 16.3233C9.62424 16.0465 9.21392 15.5646 9.00398 15.2497C8.79882 14.9348 8.45529 14.3337 8.24536 13.9138C8.03542 13.4939 7.62032 12.5254 6.77581 10.364L5.58301 9.31433C4.92458 8.74178 3.97987 7.83524 3.48366 7.30564C2.98268 6.77126 2.38151 6.21302 2.14772 6.06512C1.90915 5.91244 1.55608 5.60708 1.36046 5.3876C1.16484 5.1729 0.921509 4.82937 0.821313 4.63375C0.721117 4.43812 0.587523 4.08028 0.525496 3.84649C0.46347 3.60793 0.396673 2.87793 0.382359 2.22427C0.368046 1.5229 0.396673 0.950352 0.453928 0.840614C0.511183 0.735646 0.601836 0.616365 0.659091 0.578196C0.716346 0.540026 0.911967 0.511398 1.09804 0.511398ZM0.945365 14.1476C1.00262 14.1476 1.26027 14.3528 1.51791 14.6009C1.77079 14.8537 2.29085 15.4644 2.66778 15.9654C3.03994 16.4616 3.51706 17.1678 3.727 17.5304C3.93216 17.893 4.16595 18.2175 4.23752 18.2461C4.30909 18.2795 4.44268 18.4512 4.53333 18.6373C4.62399 18.8186 4.72418 19.1097 4.75758 19.2814C4.81484 19.5582 4.78621 19.6059 4.53333 19.7347C4.37588 19.811 4.18026 19.8778 4.10392 19.8778C4.02281 19.8778 3.56477 19.4723 3.07811 18.9808C2.59144 18.4846 1.78033 17.6592 1.27458 17.1439C0.768829 16.6286 0.286935 16.0513 0.210595 15.87C0.134255 15.6839 0.0436016 15.4406 0.010203 15.3213C-0.0327381 15.1543 0.0531441 15.0016 0.396673 14.6295C0.640006 14.3671 0.883339 14.1524 0.945365 14.1476ZM36.9968 20.8607L37.2497 21.1184C37.3881 21.2615 37.8556 21.5525 38.2898 21.772C38.724 21.9915 39.0771 22.2205 39.0723 22.2873C39.0723 22.3541 39.1582 22.4925 39.2679 22.5974C39.3777 22.7024 39.4636 22.8837 39.4636 23.003C39.4588 23.1223 39.392 23.3799 39.163 23.9334L38.7145 23.8666C38.4664 23.8284 38.1037 23.7521 37.9081 23.6996C37.7125 23.6423 37.4119 23.4754 37.2402 23.3274C37.0684 23.1795 36.8775 22.9314 36.8107 22.7788C36.7439 22.6261 36.5579 22.4257 36.4052 22.335C36.2477 22.2444 36.0664 22.0535 35.9996 21.9152C35.8947 21.6957 35.9042 21.648 36.0569 21.5573C36.1571 21.5001 36.4052 21.3188 36.6151 21.1565L36.9968 20.8607ZM8.58888 23.7998C8.72725 23.7903 9.13281 24.2197 10.0012 25.2932C10.6739 26.1186 11.4325 27.0538 11.695 27.3687C11.9574 27.6884 12.3629 28.3659 12.611 28.8955C12.9355 29.6016 13.0357 29.9165 12.9927 30.1121C12.9593 30.2553 12.7733 30.5272 12.5729 30.7133C12.2961 30.9805 12.1673 31.0425 11.9765 30.9996C11.8476 30.9662 11.6329 30.804 11.4993 30.637C11.3705 30.47 10.8123 29.8402 10.2588 29.239C9.71013 28.6378 9.08509 28.0223 8.87516 27.8744C8.66522 27.7265 8.34555 27.5738 8.15947 27.5404C7.94954 27.5023 7.69189 27.3353 7.44379 27.0872C7.23385 26.8725 6.99052 26.4812 6.8951 26.2188C6.80444 25.9612 6.7281 25.6176 6.73287 25.4602C6.73287 25.3027 6.81398 25.0451 6.91418 24.8876C7.00961 24.7302 7.27679 24.4535 7.50581 24.2721C7.73483 24.0908 8.03065 23.9143 8.15947 23.8761C8.29307 23.838 8.48392 23.8046 8.58888 23.7998ZM41.0237 24.4201C41.1335 24.4535 41.3243 24.5393 41.4388 24.6109C41.5868 24.7016 41.6726 24.8733 41.7108 25.1501C41.7537 25.465 41.7251 25.6081 41.582 25.7942C41.477 25.9278 41.2623 26.0757 41.1001 26.1282C40.9331 26.1806 40.7661 26.1902 40.7279 26.1425C40.685 26.0995 40.642 25.7369 40.6277 25.3314C40.6086 24.8638 40.6373 24.5584 40.7088 24.4821C40.7756 24.4105 40.9092 24.3867 41.0237 24.4201ZM43.6861 25.985C43.9676 25.985 44.2157 26.0661 44.5163 26.257C44.7548 26.4097 45.0602 26.6578 45.1986 26.8057C45.3369 26.9584 45.5087 27.1921 45.5803 27.3257C45.6518 27.4593 45.9238 27.7647 46.1862 28.0033C46.4486 28.2418 46.9353 28.614 47.2597 28.8335C47.8275 29.2104 47.8562 29.2438 47.7989 29.5396C47.7703 29.7114 47.651 30.0549 47.5365 30.3078C47.4267 30.5606 47.2884 30.761 47.2359 30.761C47.1834 30.761 46.7111 30.6131 46.1862 30.4414C45.6614 30.2648 45.0411 29.9929 44.8026 29.8354C44.5688 29.6732 44.2491 29.3965 44.1012 29.2199C43.9485 29.0434 43.71 28.6665 43.5764 28.3802C43.438 28.0987 43.209 27.7408 43.0611 27.5929C42.9179 27.445 42.7939 27.2399 42.7843 27.1397C42.7796 27.0395 42.8893 26.7389 43.0277 26.4717C43.2758 26.0041 43.3044 25.985 43.6861 25.985ZM47.9516 30.6608H48.381C48.715 30.6608 48.882 30.7229 49.111 30.9233C49.3686 31.1475 49.4116 31.2525 49.4211 31.6628C49.4307 32.1256 49.4259 32.1399 49.1444 32.1733C48.9869 32.1924 48.6577 32.1161 47.9516 31.8059V30.6608ZM53.5816 33.6667C53.7677 33.6906 54.1637 33.7144 54.4643 33.7144C54.9033 33.7144 55.0273 33.7478 55.0655 33.8814C55.0941 33.9721 55.0846 34.3395 54.9653 35.3414H54.4405C54.1542 35.3414 53.7868 35.2794 53.6293 35.1983C53.4719 35.1172 53.2286 35.0504 53.0807 35.0504C52.9089 35.0504 52.7658 34.9693 52.6512 34.807C52.4938 34.5732 52.4938 34.5494 52.6751 34.1725C52.7801 33.9578 52.9518 33.7478 53.0568 33.7049C53.1618 33.6572 53.4003 33.6429 53.5816 33.6667ZM15.1016 36.0953C15.5024 36.0905 15.5835 36.1287 15.8078 36.4054C15.9461 36.5772 16.1847 36.935 16.3421 37.1974C16.4996 37.4598 16.7048 37.9751 16.9672 39.0105L16.6666 39.4638C16.4423 39.8025 16.3087 39.917 16.1274 39.917C15.9318 39.917 15.8507 39.8264 15.6455 39.3683C15.5119 39.0678 15.24 38.5906 15.0491 38.3091C14.7295 37.8463 14.6961 37.7318 14.6818 37.1163C14.677 36.7394 14.6627 36.3911 14.6484 36.3386C14.6388 36.2861 14.634 36.2098 14.6388 36.1716C14.6436 36.1334 14.8535 36.1 15.1016 36.0953ZM17.8451 41.5393C17.8976 41.5393 18.0168 41.5917 18.1123 41.6585C18.2029 41.7253 18.4319 42.2311 18.618 42.7798C18.8041 43.3332 19.057 43.9535 19.181 44.1634C19.3051 44.3734 19.4959 44.9125 19.6104 45.3562C19.7249 45.8047 19.9158 46.3391 20.0399 46.549C20.1639 46.759 20.3977 47.0596 20.5599 47.217C20.8032 47.4508 20.8557 47.5796 20.8557 47.9089C20.8557 48.1331 20.7221 48.7104 20.5599 49.1971C20.3977 49.6838 20.1973 50.1561 20.1066 50.2515C20.0208 50.3469 19.8061 50.4615 19.6343 50.5139C19.4053 50.5807 19.2526 50.5712 19.0379 50.4615C18.8804 50.3851 18.618 50.1132 18.451 49.8651C18.284 49.617 18.0598 49.2209 17.9596 48.9824C17.8594 48.7486 17.721 48.2524 17.6495 47.885C17.5731 47.4699 17.3489 46.8783 17.0626 46.3105C16.8097 45.8143 16.5473 45.1797 16.4853 44.903C16.4185 44.6262 16.366 44.0823 16.366 43.6863C16.366 43.2044 16.428 42.8227 16.5521 42.5174C16.6475 42.2693 16.7668 41.9877 16.8097 41.8971C16.8574 41.7921 16.991 41.7301 17.1771 41.7301C17.3346 41.7301 17.5302 41.6872 17.6065 41.6347C17.6876 41.5822 17.7926 41.5393 17.8451 41.5393ZM60.4045 44.1253C61.0629 44.1157 61.082 44.1253 61.5496 44.526C61.812 44.7551 62.1221 45.0891 62.2414 45.2656C62.4037 45.528 62.4752 45.8572 62.6899 48.0758L63.1002 48.6007C63.3293 48.8917 63.9352 49.6837 64.4505 50.366C64.9706 51.0483 65.6004 51.931 65.8532 52.3222C66.1061 52.7183 66.4306 53.2956 66.5785 53.6105C66.7264 53.9254 66.8743 54.3548 66.9077 54.5647C66.9459 54.8128 66.9172 55.0228 66.8361 55.1564C66.7169 55.3472 66.7407 55.414 67.0842 55.9007C67.2942 56.1917 67.5089 56.4875 67.5614 56.5591C67.6329 56.6545 67.547 56.8167 67.2274 57.1841C66.9936 57.4561 66.65 57.7853 66.464 57.9141C66.2731 58.0525 66.0298 58.1384 65.8914 58.1241C65.6958 58.1002 65.6481 58.0334 65.6195 57.7614C65.5908 57.4895 65.4286 57.27 64.7606 56.602C64.1356 55.9722 63.7873 55.705 63.315 55.4951C62.938 55.3234 62.5563 55.0609 62.3368 54.8176C62.1412 54.5981 61.874 54.2069 61.7404 53.9445C61.6116 53.682 61.416 53.1572 61.311 52.7755C61.2061 52.3938 61.0534 51.6972 60.977 51.2249C60.9007 50.7525 60.8339 50.1752 60.8339 49.9366C60.8339 49.7028 60.748 49.3354 60.6478 49.1255C60.5476 48.9156 60.3091 48.5721 59.7747 47.9804H58.9922C58.5628 47.9804 58.1286 48.0043 58.0284 48.0281C57.8757 48.0663 57.8042 47.9852 57.6563 47.5987C57.5513 47.3363 57.4129 46.8019 57.2269 45.6902L57.5752 45.3228C57.766 45.1224 58.0523 44.8648 58.2097 44.7551C58.3672 44.6406 58.7775 44.4545 59.1163 44.34C59.5027 44.2111 59.9942 44.13 60.4045 44.1253ZM73.7163 53.0379C73.9978 53.0618 74.2268 53.1572 74.3699 53.2956C74.494 53.4149 74.6419 53.6009 74.6991 53.7059C74.7564 53.8109 74.8566 54.3262 74.9281 54.851C75.0093 55.4951 75.0236 55.9007 74.9615 56.0915C74.9091 56.249 74.7468 56.4923 74.6037 56.6307C74.4558 56.769 74.1218 57.0171 73.8594 57.1794C73.597 57.3464 73.2868 57.4799 73.1676 57.4752C73.053 57.4752 72.8049 57.3273 72.6189 57.1412C72.4376 56.9599 72.2849 56.7452 72.2849 56.6641C72.2849 56.5877 72.199 56.478 72.094 56.4255C71.9891 56.373 71.6694 56.3301 71.3783 56.3301C70.9966 56.3301 70.844 56.2919 70.8058 56.1869C70.7819 56.1106 70.7629 55.7098 70.7629 55.3043C70.7629 54.7985 70.8201 54.4454 70.9346 54.183C71.03 53.9731 71.2352 53.682 71.3927 53.5389C71.6169 53.329 71.7696 53.2765 72.1465 53.2717C72.4089 53.2669 72.7715 53.2002 72.9529 53.1286C73.1437 53.0522 73.4729 53.0141 73.7163 53.0379ZM23.0934 55.1802C23.4322 55.1754 23.5181 55.2279 23.8282 55.5858C24.0191 55.81 24.2433 56.1583 24.3292 56.3539C24.4103 56.5496 24.4771 56.8406 24.4771 56.9981C24.4771 57.208 24.3912 57.3607 24.1431 57.5706C23.9618 57.7281 23.7137 57.8569 23.5944 57.8569C23.4561 57.8569 23.3225 57.7567 23.2127 57.5706C23.1173 57.4036 22.9694 57.2843 22.8549 57.2843C22.7499 57.2843 22.602 57.1889 22.5209 57.0696C22.4112 56.9122 22.3825 56.707 22.4207 56.2824C22.4493 55.9675 22.4636 55.6239 22.4541 55.5237C22.4446 55.4188 22.5018 55.2995 22.5734 55.2613C22.6497 55.2232 22.8835 55.185 23.0934 55.1802ZM24.6966 58.6203C24.9208 58.6203 25.1976 58.6823 25.3121 58.7634C25.4313 58.8445 25.6556 59.1022 25.813 59.336C25.9705 59.5745 26.1327 59.9419 26.1709 60.1518C26.2281 60.4524 26.2138 60.5622 26.0993 60.629C26.023 60.6767 25.6031 60.7196 25.1689 60.7196C24.4628 60.7196 24.3674 60.7005 24.2385 60.5049C24.124 60.3427 24.1002 60.1137 24.1288 59.565C24.1527 59.169 24.2004 58.792 24.2338 58.73C24.2672 58.6728 24.4771 58.6203 24.6966 58.6203ZM27.65 60.7292C27.7454 60.7244 27.9458 60.8818 28.0985 61.0775C28.2511 61.2731 28.442 61.5975 28.5279 61.7931C28.609 61.9888 28.6806 62.2464 28.6806 62.3657C28.6853 62.485 28.547 62.7188 28.3704 62.8953C28.1987 63.0671 27.9601 63.2293 27.8408 63.2531C27.7263 63.277 27.5736 63.2579 27.5068 63.2102C27.4448 63.1625 27.2206 63.1052 27.0106 63.0909C26.6576 63.0575 26.6289 63.0337 26.5526 62.6758C26.5049 62.4659 26.4906 62.0603 26.524 61.7693C26.5526 61.483 26.6432 61.1824 26.7243 61.1013C26.8055 61.025 27.0106 60.9105 27.1776 60.8484C27.3446 60.7864 27.5593 60.7292 27.65 60.7292ZM34.4872 71.8843C34.6637 71.8795 34.8975 72.037 35.2935 72.433C35.6084 72.7479 35.9615 73.225 36.1237 73.5542C36.2764 73.8691 36.4004 74.289 36.4052 74.4846C36.4052 74.6803 36.3622 74.9284 36.3098 75.0333C36.2573 75.1383 36.1428 75.2242 36.0473 75.2289C35.9567 75.2289 35.7945 75.1383 35.6895 75.0285C35.5845 74.9188 35.3507 74.7375 35.1647 74.6278C34.9834 74.518 34.6875 74.2985 34.5158 74.1363C34.3392 73.9741 34.1341 73.7212 34.0625 73.5781C33.9862 73.435 33.9194 73.0723 33.9098 72.7765C33.8955 72.3614 33.9337 72.1944 34.0673 72.0608C34.1627 71.9654 34.3536 71.8843 34.4872 71.8843Z" fill="white"/>
</svg>
