<svg width="36" height="26" viewBox="0 0 36 26" fill="none" xmlns="http://www.w3.org/2000/svg">
<path d="M18.1159 0.355225H18.3161C20.1658 0.361975 29.5376 0.42948 32.0645 1.10902C32.8284 1.31641 33.5245 1.72066 34.0832 2.28136C34.642 2.84207 35.0438 3.53959 35.2485 4.30422C35.4757 5.15928 35.6355 6.2911 35.7435 7.45892L35.766 7.69293L35.8155 8.27797L35.8335 8.51198C35.9798 10.5686 35.9977 12.4947 36 12.9155V13.0843C35.9977 13.5208 35.9775 15.5774 35.8155 17.7196L35.7975 17.9558L35.7772 18.1898C35.6647 19.4769 35.4982 20.755 35.2485 21.6956C35.0444 22.4605 34.6428 23.1584 34.084 23.7192C33.5252 24.2799 32.8287 24.684 32.0645 24.8908C29.4543 25.5928 19.5335 25.6423 18.1586 25.6446H17.8391C17.1438 25.6446 14.2681 25.6311 11.253 25.5275L10.8704 25.514L10.6747 25.505L10.2899 25.4893L9.90512 25.4735C7.40746 25.3633 5.02906 25.1855 3.93325 24.8885C3.1693 24.6819 2.47305 24.2782 1.91425 23.7179C1.35545 23.1575 0.953715 22.4601 0.749297 21.6956C0.499531 20.7572 0.333021 19.4769 0.220514 18.1898L0.202513 17.9536L0.184512 17.7196C0.0734617 16.1949 0.0119254 14.667 0 13.1383L0 12.8615C0.00450028 12.3777 0.0225014 10.7059 0.144009 8.86076L0.15976 8.62899L0.16651 8.51198L0.184512 8.27797L0.234015 7.69293L0.256516 7.45892C0.364523 6.2911 0.524283 5.15702 0.751547 4.30422C0.95562 3.53928 1.3572 2.84143 1.91602 2.28063C2.47485 1.71983 3.17128 1.31579 3.9355 1.10902C5.03131 0.816504 7.40971 0.636492 9.90737 0.523985L10.2899 0.508234L10.6769 0.494734L10.8704 0.487983L11.2552 0.472232C13.3967 0.403321 15.539 0.365064 17.6816 0.357475H18.1159V0.355225ZM14.4009 7.57818V18.4194L23.7547 13.001L14.4009 7.57818Z" fill="white"/>
</svg>
