<svg width="36" height="37" viewBox="0 0 36 37" fill="none" xmlns="http://www.w3.org/2000/svg">
<path d="M23.76 18.3264C23.76 19.4656 23.4222 20.5793 22.7893 21.5265C22.1563 22.4737 21.2568 23.212 20.2043 23.648C19.1518 24.0839 17.9936 24.198 16.8763 23.9757C15.759 23.7535 14.7326 23.2049 13.9271 22.3994C13.1215 21.5938 12.5729 20.5675 12.3507 19.4501C12.1284 18.3328 12.2425 17.1747 12.6785 16.1222C13.1144 15.0697 13.8527 14.1701 14.7999 13.5372C15.7471 12.9042 16.8608 12.5664 18 12.5664C19.5262 12.5712 20.9885 13.1795 22.0677 14.2587C23.1469 15.3379 23.7553 16.8002 23.76 18.3264ZM36 10.4064V26.2464C36 28.9198 34.938 31.4837 33.0476 33.3741C31.1573 35.2644 28.5934 36.3264 25.92 36.3264H10.08C7.40662 36.3264 4.84273 35.2644 2.95236 33.3741C1.062 31.4837 0 28.9198 0 26.2464V10.4064C0 7.73303 1.062 5.16915 2.95236 3.27878C4.84273 1.38841 7.40662 0.326416 10.08 0.326416H25.92C28.5934 0.326416 31.1573 1.38841 33.0476 3.27878C34.938 5.16915 36 7.73303 36 10.4064ZM26.64 18.3264C26.64 16.6176 26.1333 14.9471 25.1839 13.5263C24.2345 12.1054 22.8851 10.998 21.3064 10.3441C19.7276 9.69016 17.9904 9.51906 16.3144 9.85243C14.6384 10.1858 13.0989 11.0087 11.8906 12.217C10.6823 13.4253 9.85939 14.9648 9.52602 16.6408C9.19264 18.3168 9.36374 20.054 10.0177 21.6328C10.6716 23.2116 11.779 24.5609 13.1999 25.5103C14.6207 26.4597 16.2912 26.9664 18 26.9664C20.2915 26.9664 22.4891 26.0561 24.1094 24.4358C25.7297 22.8155 26.64 20.6179 26.64 18.3264ZM29.52 8.96642C29.52 8.53921 29.3933 8.1216 29.156 7.76639C28.9186 7.41117 28.5813 7.13432 28.1866 6.97084C27.7919 6.80735 27.3576 6.76458 26.9386 6.84792C26.5196 6.93126 26.1347 7.13698 25.8327 7.43907C25.5306 7.74115 25.3248 8.12602 25.2415 8.54502C25.1582 8.96402 25.2009 9.39832 25.3644 9.79301C25.5279 10.1877 25.8048 10.525 26.16 10.7624C26.5152 10.9997 26.9328 11.1264 27.36 11.1264C27.9329 11.1264 28.4823 10.8988 28.8874 10.4938C29.2924 10.0887 29.52 9.53928 29.52 8.96642Z" fill="white"/>
</svg>
