<svg width="75" height="82" viewBox="0 0 75 82" fill="none" xmlns="http://www.w3.org/2000/svg">
<path d="M55.5047 2.46551C55.6458 1.96238 55.8197 1.30877 55.8856 1.02194L56.0078 0.490593H56.384C56.6473 0.490593 56.7555 0.509402 56.7555 0.551721C56.7555 0.579935 56.8213 1.21003 56.8966 1.94827C56.9765 2.68652 57.0376 3.2978 57.0376 3.31191C57.0329 3.32602 57.2163 3.45768 57.4373 3.60815C57.6583 3.75392 57.8605 3.87617 57.884 3.87617C57.9075 3.87617 57.9545 3.70219 57.9781 3.49059C58.0063 3.27429 58.058 2.84639 58.0909 2.53605C58.1285 2.2257 58.1944 1.82602 58.232 1.64263C58.2743 1.46395 58.3542 1.23824 58.4154 1.1489C58.5047 1.01254 58.5564 0.979621 58.7069 0.970217C58.8103 0.965515 59.0219 0.99843 59.1771 1.05015C59.3323 1.10188 59.6379 1.25705 59.8589 1.39341C60.0799 1.53448 60.4185 1.76959 60.6113 1.92006C60.8041 2.07523 61.2508 2.48432 61.6034 2.83699C61.9514 3.18965 62.4169 3.69749 62.6332 3.97022C62.8495 4.24294 63.1458 4.64263 63.2915 4.86363C63.442 5.08464 63.6583 5.45611 63.7806 5.68652C63.9028 5.92163 64.0439 6.24608 64.0956 6.41536C64.1426 6.58464 64.1849 6.77273 64.1849 6.83856C64.1849 6.94671 64.1473 6.97022 63.7759 7.08307C63.5455 7.1536 63.2586 7.28056 63.127 7.3652C63 7.44984 62.8354 7.60501 62.7649 7.70846C62.6944 7.81191 62.6097 7.99529 62.5768 8.11755C62.5439 8.23981 62.5251 8.35266 62.5392 8.36677C62.5533 8.38088 63.1975 8.33385 63.9734 8.25862C64.7492 8.17868 65.3887 8.12225 65.3934 8.12696C65.3934 8.12696 65.3511 8.54545 65.29 9.04859C65.2288 9.55172 65.1677 10.0455 65.1254 10.3182H65.2994C65.3981 10.3182 65.6285 10.2853 65.8072 10.2476C65.9859 10.2053 66.2163 10.1254 66.3103 10.0596C66.4326 9.97962 66.569 9.80094 66.7476 9.4953C66.8887 9.25078 67.0627 9.00627 67.1332 8.95925C67.2085 8.90752 67.3683 8.82288 67.5 8.76646C67.627 8.71003 67.7586 8.67241 67.7821 8.68652C67.8056 8.69592 67.8433 8.77586 67.8621 8.8652C67.8809 8.95454 67.9702 9.17555 68.0596 9.35423C68.163 9.56583 68.2994 9.75392 68.4451 9.89028C68.5815 10.0078 68.9483 10.2288 69.3339 10.4216C69.6959 10.605 70.1191 10.8401 70.2743 10.953C70.4295 11.0611 70.7398 11.348 70.9608 11.5925C71.1959 11.8464 71.4686 12.0909 71.5956 12.1614C71.7226 12.232 71.953 12.3213 72.1081 12.3636C72.2633 12.406 72.663 12.453 73.594 12.5047L73.7445 12.6928C73.8292 12.7962 74.1019 13.0972 74.3511 13.3652C74.605 13.6285 74.8542 13.9295 74.906 14.0329C74.9718 14.1693 75 14.315 75 14.5643C75 14.8041 74.9765 14.9498 74.9154 15.0674C74.8683 15.1567 74.7226 15.3025 74.5956 15.3871C74.4687 15.4718 74.2476 15.5752 74.1066 15.6176C73.9655 15.6599 73.6881 15.721 73.4953 15.7586C73.2273 15.8103 72.4937 15.8386 70.4859 15.8668C69.0235 15.8903 67.6693 15.9279 67.4765 15.9561C67.2837 15.9843 66.9875 16.0549 66.8182 16.1113C66.6489 16.1677 66.442 16.2806 66.3574 16.3558C66.268 16.4357 66.1787 16.5768 66.1505 16.6661C66.1176 16.779 66.1176 16.8918 66.1552 17.0188C66.1787 17.1223 66.2492 17.268 66.3103 17.3433C66.3715 17.4232 66.5455 17.5643 66.7006 17.663C66.8981 17.79 67.2743 17.9404 67.9467 18.1567C68.4781 18.326 69.0282 18.5235 69.1693 18.594C69.3103 18.6646 69.4984 18.8009 69.5784 18.895C69.7006 19.0313 69.7335 19.1066 69.7335 19.2665C69.7335 19.3746 69.6724 19.6285 69.6019 19.8307C69.5313 20.0282 69.4655 20.1928 69.4514 20.1928C69.4373 20.1928 69.2492 20.221 69.0282 20.2586C68.8072 20.3009 68.1959 20.4373 67.6646 20.569C67.1332 20.7006 66.4467 20.837 66.1364 20.8746C65.826 20.9169 65.3464 20.9781 65.0643 21.0157C64.7868 21.0533 64.5188 21.105 64.4671 21.1332C64.4154 21.1614 64.373 21.1991 64.373 21.2273C64.373 21.2555 64.4671 21.4483 64.5846 21.6646C64.7069 21.8903 64.8245 22.1865 64.8668 22.3793C64.9044 22.5627 64.9373 22.9154 64.9373 23.1693C64.9373 23.5078 64.9185 23.6677 64.8527 23.7994C64.8103 23.8934 64.6975 24.0298 64.6081 24.1003C64.5188 24.1708 64.326 24.279 64.1849 24.3448C64.0439 24.4107 63.7759 24.5047 63.5972 24.5564C63.4185 24.6129 62.9812 24.7069 62.6332 24.7727C62.2853 24.8339 61.7398 24.9185 60.8464 25.0125V25.4828L61.1379 25.5674C61.3025 25.6144 61.5188 25.7038 61.6223 25.7602C61.7257 25.8213 61.8856 25.953 61.9796 26.0517C62.0878 26.174 62.2053 26.3997 62.3229 26.7053C62.4216 26.9639 62.5815 27.3448 62.6802 27.5517C62.779 27.7586 62.8919 27.9702 62.9295 28.0219C62.9953 28.1066 62.9906 28.1348 62.7649 28.5862L62.5674 27.9984C62.464 27.674 62.2947 27.2743 62.2006 27.105C62.1066 26.9357 61.9561 26.7147 61.8668 26.6113C61.7821 26.5078 61.5094 26.2727 61.2649 26.0893C61.0204 25.9013 60.7053 25.6332 60.3056 25.2288L60.8323 24.5423L61.721 24.5094C62.21 24.4906 62.7978 24.4436 63.0329 24.4013C63.268 24.3636 63.5831 24.2884 63.7382 24.2367C63.8934 24.185 64.105 24.0956 64.2038 24.0345C64.3072 23.9781 64.4483 23.8558 64.5235 23.7665C64.627 23.6395 64.6646 23.536 64.6881 23.3197C64.7022 23.1646 64.6881 22.8918 64.6552 22.7085C64.627 22.5251 64.547 22.2759 64.4859 22.1442C64.4248 22.0172 64.2602 21.8009 64.1238 21.6646C63.9922 21.5282 63.7006 21.3119 63.4796 21.1802C63.2586 21.0533 63.0611 20.9404 63.0423 20.9357C63.0188 20.9263 63.0564 20.8276 63.1223 20.71C63.2351 20.5172 63.2445 20.4514 63.2445 19.3699L62.906 19.3182C62.7367 19.2886 61.6428 19.1258 58.4806 18.6552L57.3433 18.4859L56.7085 18.6129C56.3605 18.6834 55.6176 18.8527 55.0627 18.9937C54.5078 19.1301 53.7132 19.3417 53.2994 19.4592C52.8856 19.5768 52.2649 19.7696 51.9216 19.8871C51.5831 20.0047 51.1787 20.1599 51.0282 20.2351C50.8401 20.3292 50.7179 20.4279 50.6238 20.5737C50.5486 20.6865 50.3558 20.9169 50.2006 21.0815C50.0407 21.2414 49.6693 21.5564 49.373 21.7774C49.0768 21.9984 48.7524 22.2571 48.6536 22.3511C48.5502 22.4451 48.3903 22.6379 48.2962 22.779C48.1975 22.9201 48.0611 23.1834 47.9859 23.3668C47.9154 23.5502 47.8166 23.8887 47.7696 24.1191C47.7226 24.3495 47.6567 24.8997 47.6285 25.3417C47.5956 25.7837 47.5862 26.2586 47.605 26.3997C47.6191 26.5408 47.732 26.9357 47.8495 27.2696C47.9671 27.6034 48.1034 28.0172 48.1552 28.1865C48.2022 28.3558 48.2633 28.6802 48.2868 28.9154C48.3056 29.1505 48.315 29.3809 48.3009 29.4326C48.2868 29.4843 48.2445 29.5643 48.2022 29.6113C48.1599 29.6583 48.0423 29.7194 47.9389 29.7429C47.8119 29.7759 47.6379 29.7759 47.3981 29.7429C47.2053 29.7194 46.7257 29.6207 46.3401 29.5266C45.9498 29.4326 45.5878 29.348 45.5266 29.3386C45.4326 29.315 45.4044 29.3668 45.2163 29.8182C45.0987 30.1003 44.953 30.4953 44.8824 30.7022C44.8166 30.9091 44.7461 31.2053 44.732 31.3605C44.7179 31.5157 44.7179 31.6991 44.7367 31.7696C44.7508 31.8448 44.8542 32 44.9624 32.1176C45.1505 32.3245 45.1646 32.3574 45.1834 32.6489C45.1928 32.8511 45.1693 33.0627 45.1129 33.2649C45.047 33.5 44.9765 33.627 44.8072 33.8056C44.663 33.9624 44.4201 34.1348 44.0784 34.3229C43.7398 34.5063 43.4671 34.7038 43.279 34.8871C43.0392 35.1223 42.9734 35.221 42.8934 35.4749C42.8135 35.7241 42.79 36.0016 42.7476 36.9796C42.7194 37.6379 42.6724 38.348 42.6442 38.5549C42.616 38.7618 42.5831 38.9404 42.569 38.9545C42.5549 38.9687 42.3103 39.0345 42.0188 39.1097C41.732 39.1802 41.2947 39.3025 41.0502 39.3871C40.8056 39.4671 40.3824 39.6364 40.1097 39.7633C39.837 39.8903 39.5455 40.0455 39.4608 40.1113C39.3809 40.1724 39.2868 40.2241 39.2633 40.2241C39.2398 40.2241 39.1082 40.1536 38.9812 40.069C38.8495 39.989 38.732 39.9279 38.7179 39.942C38.7038 39.9561 38.7273 40.1348 38.7696 40.3417C38.8166 40.5627 38.8354 40.7837 38.8166 40.8824C38.7978 40.9718 38.8025 41.1223 38.8213 41.2116C38.8401 41.3009 38.9295 41.4655 39.0141 41.5737C39.1458 41.7429 39.1693 41.8182 39.1693 42.0204C39.174 42.1991 39.1458 42.3072 39.0752 42.3966C39.0235 42.4718 38.9013 42.5658 38.8025 42.6176C38.7085 42.6646 38.3511 42.7915 38.0172 42.895C37.6034 43.0219 37.3354 43.1348 37.1944 43.2429C37.0768 43.3323 36.9357 43.4922 36.8746 43.6097C36.8088 43.7461 36.7712 43.906 36.7712 44.0564C36.7712 44.1834 36.8041 44.4702 36.8417 44.6912C36.884 44.9122 36.9122 45.105 36.9028 45.1285C36.8934 45.1473 36.7665 44.6912 36.616 44.1176C36.4655 43.5392 36.3527 43.0643 36.3574 43.0643C36.3668 43.0596 36.8934 42.8856 38.6991 42.2931L38.6708 42.0909C38.6567 41.9828 38.5956 41.4608 38.5345 40.9295C38.4687 40.3981 38.4075 39.9608 38.3934 39.9514C38.3793 39.9467 38.2806 39.9796 38.1677 40.0266C38.0596 40.0737 37.8856 40.1865 37.7868 40.2759C37.6834 40.3652 37.4295 40.6708 37.2179 40.953C37.0063 41.2351 36.7524 41.5408 36.6489 41.6301C36.5502 41.7194 36.348 41.8464 36.2069 41.9075C36.0376 41.9828 35.826 42.0345 35.5956 42.0486C35.3887 42.0627 35.1536 42.0486 35.0313 42.0157C34.9138 41.9875 34.6595 41.8508 34.462 41.7145C34.2644 41.578 33.8697 41.3055 33.5925 41.1034C33.3103 40.8966 32.9107 40.652 32.7038 40.5486C32.4969 40.4498 32.1677 40.3276 31.9749 40.2759C31.7821 40.2288 31.3448 40.163 31.011 40.1348C30.6771 40.1019 30.1928 40.0455 29.9389 40.0078C29.6897 39.9749 29.0643 39.8574 28.5517 39.7539C28.0439 39.6505 27.3621 39.5329 27.0376 39.4953C26.7132 39.4577 26.3135 39.4248 26.1442 39.4248C25.9749 39.4248 25.7257 39.4577 25.5893 39.4953C25.4436 39.5376 25.2696 39.6364 25.152 39.7398C25.0439 39.8386 24.8981 40.036 24.8276 40.1771C24.7571 40.3182 24.6536 40.5721 24.6019 40.7414C24.5455 40.9107 24.4138 41.348 24.3103 41.7147C24.2069 42.0862 24.047 42.5423 23.9483 42.7257C23.8542 42.9138 23.6897 43.163 23.5815 43.2806C23.4592 43.4122 23.2665 43.5439 23.0831 43.6285C22.8762 43.7226 22.6787 43.7696 22.453 43.7837C22.2226 43.7978 21.3997 43.7132 17.2806 43.2006L16.6223 43.2618C16.2602 43.2947 15.8793 43.3464 15.7759 43.3746C15.6724 43.4075 15.4937 43.4781 15.3762 43.5392C15.2586 43.5956 14.7743 43.906 14.2947 44.2304C13.815 44.5502 13.2649 44.8793 13.0721 44.9592C12.8793 45.0439 12.5737 45.1332 12.3903 45.1661C12.2069 45.1991 12 45.2085 11.9201 45.1897C11.8401 45.1708 11.7038 45.0721 11.6144 44.9734C11.5251 44.8793 11.2994 44.4937 11.116 44.1223C10.8433 43.5674 10.7398 43.4075 10.5517 43.2382C10.4248 43.1254 10.0345 42.8668 9.68652 42.6599C9.33856 42.4483 8.84953 42.1426 8.60502 41.9687C8.3605 41.7994 7.95611 41.4984 7.7116 41.3009C7.46709 41.1082 7.13793 40.8119 6.98746 40.6426C6.83229 40.4781 6.6395 40.2335 6.55486 40.1066C6.47492 39.9749 6.37147 39.7868 6.32915 39.6834C6.28683 39.5799 6.25392 39.4859 6.25392 39.4718C6.25392 39.4577 6.45141 39.4342 6.68652 39.4154C6.92633 39.4013 7.2931 39.3495 7.5 39.3072C7.7069 39.2649 8.03605 39.1755 8.22884 39.1097C8.42163 39.0439 8.83542 38.8746 9.14577 38.7382C9.45611 38.5972 9.77116 38.4843 9.8511 38.4843C9.92633 38.4843 10.0627 38.5266 10.1426 38.5784C10.2273 38.6301 10.3636 38.7712 10.4483 38.8934C10.5282 39.0204 10.6411 39.2226 10.6928 39.3542C10.7445 39.4812 10.8056 39.6176 10.8339 39.6505C10.8621 39.6834 10.9608 39.7116 11.0502 39.7069C11.1395 39.7069 11.3511 39.7445 11.5204 39.7962C11.6897 39.848 11.953 39.9749 12.1082 40.0737C12.2633 40.1771 12.6019 40.431 12.8605 40.6426C13.1567 40.8871 13.4859 41.1034 13.7539 41.2351C13.9937 41.3527 14.3323 41.4702 14.5392 41.5125C14.7414 41.5549 15.0752 41.5878 15.2821 41.5878C15.5408 41.5878 15.7053 41.5643 15.8088 41.5078C15.8934 41.4655 15.9875 41.3997 16.0204 41.3574C16.0533 41.315 16.0815 41.1552 16.0815 41C16.0815 40.8401 16.0392 40.5768 15.9828 40.3887C15.9263 40.2053 15.7712 39.8715 15.6395 39.6364C15.4185 39.2461 15.3997 39.1897 15.3997 38.9028C15.3997 38.6442 15.4232 38.5643 15.5266 38.3997C15.6019 38.2915 15.7571 38.1364 15.8793 38.0611C16.0063 37.9812 16.2038 37.8777 16.3307 37.8354C16.4624 37.7884 16.5517 37.7273 16.5517 37.685C16.5517 37.6473 16.5 37.5063 16.4389 37.3793C16.3777 37.2476 16.2414 37.0596 16.1332 36.9561C16.0251 36.8527 15.9169 36.6928 15.8934 36.6034C15.8652 36.5141 15.8464 36.152 15.8464 35.8041C15.8511 35.3668 15.8699 35.1082 15.9216 34.9812C15.9592 34.8777 16.0251 34.7555 16.0721 34.7038C16.1144 34.6567 16.3448 34.5204 16.5752 34.4028C16.8056 34.29 17.0596 34.1489 17.1301 34.0925C17.2006 34.036 17.3088 33.9185 17.3699 33.8292C17.4263 33.7398 17.5815 33.4342 17.7085 33.152C17.8589 32.8088 18.0094 32.5549 18.1505 32.4044C18.268 32.2774 18.4937 32.0799 18.9498 31.7602H20.384L20.7367 31.5486C20.9295 31.4357 21.2821 31.2571 21.5125 31.1583C21.7429 31.0549 22.1426 30.9044 22.3919 30.8244C22.6458 30.7445 23.1207 30.6223 23.4498 30.5564C23.7837 30.4906 24.2116 30.4201 24.4044 30.3966C24.5972 30.373 25.1097 30.3307 25.5423 30.3025C25.9796 30.279 26.4734 30.2226 26.6473 30.1803C26.826 30.1379 27.127 30.0345 27.3198 29.9451C27.5125 29.8558 27.8182 29.6677 28.0016 29.5266C28.185 29.3903 28.627 28.9671 28.989 28.5862C29.3511 28.2053 29.8072 27.7633 30 27.6081C30.1928 27.453 30.4561 27.2743 30.5878 27.2085C30.7147 27.1473 31.0345 27.0204 31.2931 26.931C31.5517 26.8417 31.8856 26.7053 32.0313 26.6301C32.1818 26.5549 32.3934 26.4138 32.4969 26.315C32.605 26.221 32.7508 26.0235 32.8213 25.8824C32.8918 25.7414 32.9859 25.5063 33.0329 25.3652C33.0799 25.2241 33.1881 24.9702 33.2727 24.8009C33.3574 24.6317 33.7147 24.1238 34.0627 23.6724C34.4154 23.221 34.9608 22.511 35.2806 22.1019C35.5956 21.6881 35.953 21.2085 36.3009 20.71V18.9937L37.3119 18.5047L37.9232 18.4812C38.2571 18.4671 38.7226 18.4201 38.9577 18.3824C39.1928 18.3401 39.4749 18.279 39.5925 18.2461C39.71 18.2085 39.931 18.1285 40.0862 18.0674C40.2414 18.0063 40.7069 17.7571 41.1207 17.5125C41.5345 17.2727 42.094 16.9812 42.3668 16.8636C42.6395 16.7508 43.0298 16.6097 43.2367 16.5486C43.4436 16.4922 43.8245 16.4075 44.0831 16.3699C44.3417 16.3276 44.9436 16.2712 45.4232 16.2429C45.9028 16.2147 46.453 16.1724 46.6458 16.1489C46.8386 16.1207 47.116 16.069 47.2571 16.0266C47.3981 15.9843 47.6097 15.8997 47.7273 15.8433C47.8448 15.7821 48.0047 15.6646 48.0893 15.5752C48.174 15.4906 48.2915 15.3025 48.3574 15.1614C48.4232 15.0204 48.5031 14.7523 48.5361 14.5643C48.569 14.3762 48.5878 14.2163 48.5737 14.2022C48.5596 14.1881 48.174 14.1317 46.8715 13.9624L46.8903 13.2806C46.8997 12.7257 46.9185 12.5705 46.9843 12.4671C47.0455 12.3777 47.1536 12.3119 47.3605 12.2508C47.5768 12.1802 47.6991 12.1097 47.8166 11.9781C47.906 11.8793 47.9953 11.7476 48.0188 11.6818C48.0564 11.5737 48.0893 11.5596 48.5643 11.5078C48.8511 11.4796 49.1803 11.4091 49.326 11.3527C49.4671 11.2915 49.6881 11.2069 49.8198 11.1599C50.0078 11.0893 50.1912 11.0752 50.7461 11.0705C51.1787 11.0705 51.442 11.0517 51.442 11.0235C51.442 10.9953 51.4091 10.8871 51.3668 10.7743C51.3197 10.6661 51.2163 10.4828 50.9624 10.1536L50.9859 9.73041C51 9.46708 51.047 9.18025 51.1175 8.96395C51.2069 8.69122 51.2492 8.62539 51.3245 8.62539C51.3762 8.62539 51.5549 8.58777 51.7241 8.53605C51.8934 8.48432 52.1662 8.35266 52.3354 8.24451C52.5047 8.13636 52.8009 7.88715 52.9937 7.68965C53.1865 7.49216 53.4639 7.1489 53.6144 6.9326C53.7602 6.7116 53.9953 6.31191 54.1411 6.03918C54.2821 5.76646 54.4749 5.36677 54.569 5.14577C54.6677 4.92476 54.8558 4.44044 54.9922 4.06426C55.1285 3.68809 55.3589 2.96865 55.5047 2.46551Z" fill="white"/>
<path d="M54.9687 19.0125C55.4718 18.8856 56.1818 18.721 56.5439 18.6458C56.906 18.5705 57.2586 18.5047 57.3292 18.5047C57.4044 18.5 58.5987 18.6693 59.9859 18.8762C61.3777 19.0878 62.6802 19.2806 63.2398 19.3605V19.9295C63.2445 20.4561 63.2351 20.5125 63.1223 20.71C63.0564 20.8276 63.0188 20.9263 63.0423 20.9357C63.0611 20.9404 63.2586 21.0533 63.4796 21.1802C63.7006 21.3119 63.9922 21.5282 64.1238 21.6646C64.2602 21.8009 64.4248 22.0125 64.4859 22.1442C64.547 22.2712 64.627 22.5251 64.6552 22.7085C64.6881 22.8871 64.7022 23.1646 64.6881 23.3197C64.6646 23.536 64.627 23.6395 64.5235 23.7665C64.4483 23.8558 64.3072 23.9781 64.2038 24.0345C64.105 24.0956 63.8934 24.185 63.7382 24.2367C63.5831 24.2884 63.268 24.3636 63.0329 24.4013C62.7978 24.4436 62.21 24.4906 60.8323 24.5423L60.3056 25.2288L60.5643 25.4922C60.7053 25.6332 61.0204 25.9013 61.2649 26.0893C61.5094 26.2727 61.7821 26.5078 61.8715 26.6113C61.9561 26.7147 62.1066 26.9404 62.2006 27.1097C62.2994 27.279 62.4404 27.6176 62.5251 27.8621L62.5411 27.9111C62.6195 28.1507 62.7212 28.4618 62.7696 28.6332C62.8213 28.8119 62.9248 29.0564 63.0047 29.174C63.0799 29.2915 63.2257 29.4326 63.3245 29.4843C63.4232 29.5407 63.6818 29.6442 63.9028 29.7147C64.1238 29.7853 64.3871 29.8887 64.4906 29.9404C64.594 29.9922 64.8574 30.2179 65.0737 30.4389C65.337 30.7085 65.5125 30.9373 65.6003 31.1254C65.6755 31.2806 65.7602 31.5533 65.7884 31.7367C65.8213 31.9436 65.8354 32.3292 65.8166 32.7712C65.8025 33.1897 65.7226 33.9514 65.6238 34.652C65.5298 35.2962 65.4404 36.0392 65.3934 36.768L65.6944 36.9185C65.8589 36.9984 66.2163 37.2147 66.489 37.3934C66.7618 37.5721 67.2461 37.9154 67.5705 38.1552C67.895 38.395 68.4734 38.8511 68.8636 39.1661C69.2492 39.4812 69.931 40.0549 70.3683 40.4404C70.8056 40.826 71.5486 41.5219 72.0141 41.9875C72.4796 42.453 73.0439 43.0596 73.2602 43.3323C73.4812 43.6097 73.7257 43.9483 73.8103 44.0846C73.895 44.2257 73.9843 44.4326 74.0172 44.5502C74.0549 44.7053 74.0549 44.7947 74.0172 44.8887C73.989 44.9639 73.895 45.058 73.8103 45.1003C73.6787 45.1755 73.4718 45.185 71.9906 45.1991C71.0219 45.2085 70.1426 45.1944 69.8981 45.1661C69.663 45.1379 69.3056 45.0721 69.0988 45.0204C68.8919 44.9639 68.511 44.8182 68.2524 44.6912C67.9796 44.5549 67.4577 44.221 67.0063 43.8919C66.5784 43.5815 66.1129 43.2618 65.9718 43.1865C65.8307 43.1113 65.6991 43.0643 65.6803 43.0831C65.6614 43.1019 65.6708 43.1771 65.6944 43.2571C65.7179 43.3323 65.8166 43.5768 65.9107 43.7978C66.047 44.1223 66.0846 44.2727 66.1223 44.9969L65.7226 45.3966C65.5063 45.6176 65.2006 45.942 65.0502 46.1254C64.8997 46.3041 64.6458 46.6567 64.4859 46.9013C64.326 47.1458 64.0862 47.5596 63.9545 47.8182C63.8229 48.0768 63.6442 48.5094 63.5549 48.7821C63.4702 49.0549 63.3621 49.4781 63.3197 49.7226C63.2633 50.0658 63.2445 50.4937 63.2445 51.5423C63.2445 52.7555 63.2539 52.9389 63.3245 53.094C63.3715 53.1928 63.5408 53.3715 63.7053 53.5031C63.8793 53.6442 64.0392 53.8229 64.0909 53.931C64.1614 54.0768 64.185 54.2226 64.185 54.5893C64.185 54.9091 64.1614 55.1348 64.105 55.2947C64.0533 55.4592 63.9451 55.6097 63.7665 55.7884C63.6207 55.9342 63.3809 56.1082 63.2304 56.1787C63.0846 56.2492 62.8401 56.348 62.6897 56.395C62.5439 56.4467 62.2618 56.5172 62.069 56.5596C61.8762 56.5972 61.4812 56.6536 61.1991 56.6818C60.9169 56.7053 60.5031 56.7288 59.8824 56.7288L59.6567 57.0204C59.5345 57.1849 59.4216 57.3918 59.4028 57.4812C59.3887 57.5705 59.3887 57.9937 59.3981 58.4216C59.4169 59.0188 59.4451 59.2727 59.6191 59.8558L59.4922 60.1614C59.4216 60.3307 59.337 60.5141 59.3041 60.5705C59.2712 60.6317 59.1865 60.7116 59.1066 60.7492C59.0267 60.7868 58.8574 60.8197 58.7304 60.8197C58.5517 60.8197 58.4624 60.7915 58.3636 60.7069C58.2931 60.6458 58.1897 60.4953 58.1379 60.3683C58.0815 60.2414 58.011 60.0815 57.9828 60.0063C57.9357 59.8887 57.9169 59.8793 57.7288 59.9075C57.6207 59.9216 57.4185 59.9828 57.2821 60.0486C57.0987 60.1332 57.0141 60.2038 56.9483 60.3354C56.9013 60.4342 56.8213 60.6317 56.7743 60.7727C56.7273 60.9138 56.6238 61.0925 56.5439 61.1724C56.464 61.2524 56.2853 61.3511 56.1442 61.3981C56.0031 61.4451 55.768 61.4922 55.627 61.5063C55.4859 61.5204 55.2978 61.5392 55.0627 61.5721L55.4389 61.8777C55.6458 62.047 55.8151 62.2069 55.8151 62.2304C55.8151 62.2539 55.7257 62.3527 55.6176 62.442C55.5047 62.536 55.2461 62.7006 55.0392 62.8041C54.8323 62.9122 54.6019 63.058 54.5219 63.1285C54.442 63.1944 54.3668 63.3119 54.3527 63.3871C54.3339 63.4624 54.3433 63.6176 54.3668 63.7351C54.3903 63.8527 54.5031 64.1066 54.6207 64.2994C54.79 64.5815 54.8276 64.685 54.8135 64.8166C54.8041 64.906 54.7429 65.0799 54.569 65.4279H54.0752V65.663C54.0752 65.8464 54.094 65.9028 54.1552 65.9169C54.2022 65.931 54.4796 65.9922 55.2978 66.1803V66.8621L54.9122 66.8292C54.6959 66.8103 54.3527 66.7492 54.1458 66.6975C53.9389 66.6411 53.5815 66.5047 53.3464 66.3966C53.1113 66.2837 52.815 66.0956 52.6881 65.9828C52.5564 65.8699 52.3966 65.6583 52.3213 65.5172C52.2273 65.3292 52.1944 65.1928 52.1944 65.0047C52.1944 64.8636 52.2461 64.0878 52.3119 63.2884C52.3777 62.489 52.4295 61.7696 52.4295 61.6897C52.4295 61.5674 52.3354 61.464 51.0282 60.279L50.9718 59.174L50.7085 58.6897C50.5627 58.4263 50.384 58.1254 50.3135 58.0219C50.2429 57.9185 50.1207 57.7774 50.0455 57.7069C49.9749 57.6364 49.8574 57.5564 49.7868 57.5329C49.7116 57.5047 49.4718 57.4812 48.8323 57.4812L47.9577 56.6113L47.9765 56.3292C47.9859 56.174 48.0235 55.9107 48.0564 55.7414C48.0893 55.5721 48.1034 55.3558 48.0846 55.257C48.0705 55.1583 48.0094 55.0455 47.953 54.9984C47.8918 54.9514 47.7461 54.8997 47.6238 54.8809C47.4969 54.8621 47.3887 54.8339 47.3793 54.8103C47.3652 54.7915 47.2524 54.1944 47.1207 53.4843C46.9279 52.4404 46.8903 52.1583 46.9279 52.0266C46.9561 51.9373 47.0549 51.6834 47.1489 51.4624C47.2571 51.2085 47.3276 50.9592 47.3417 50.7806C47.3558 50.6254 47.3511 50.442 47.3323 50.3668C47.3182 50.2915 47.2429 50.2022 47.1536 50.1458C47.069 50.0987 46.9044 50.0423 46.7868 50.0282C46.6411 50.0047 46.5188 50.0188 46.3871 50.0752C46.2837 50.1176 46.1285 50.2163 46.0486 50.3009C45.9639 50.3856 45.8323 50.5878 45.7524 50.7571C45.6771 50.9263 45.5737 51.1991 45.442 51.674L45.1505 51.6599C44.9906 51.6552 44.8072 51.627 44.7414 51.6034C44.6755 51.5752 44.5909 51.4812 44.5533 51.3918C44.5157 51.3025 44.4828 51.1285 44.4828 51.0016C44.4828 50.8793 44.5157 50.6489 44.5533 50.4843C44.5909 50.3244 44.7931 49.8307 45 49.3934C45.2069 48.9561 45.4326 48.4107 45.4984 48.1803C45.5878 47.8887 45.6254 47.6207 45.6677 46.6897L45.4608 46.4075C45.348 46.2524 45.1693 46.0596 45.0658 45.9796C44.9671 45.8997 44.7884 45.7821 44.6708 45.7116C44.5533 45.6458 44.3323 45.5564 44.1771 45.5141C43.9796 45.4577 43.815 45.4389 43.6364 45.4624C43.4953 45.4765 43.2931 45.5329 43.1897 45.5799C43.0862 45.6317 42.79 45.8715 42.5313 46.1113C42.2727 46.3558 41.9859 46.5768 41.8966 46.6097C41.7508 46.6614 41.511 46.6332 39.7806 46.3605C37.9702 46.0737 37.8009 46.0408 37.4342 45.8762C37.1379 45.7445 37.0298 45.674 36.9969 45.5846C36.9734 45.5188 36.9687 45.4389 36.9828 45.406C36.9969 45.3777 36.9828 45.3495 36.9592 45.3495C36.9357 45.3495 36.9122 45.279 36.9122 45.1944C36.9122 45.1144 36.8793 44.8793 36.8417 44.6771C36.8041 44.4796 36.7712 44.2022 36.7712 44.0658C36.7712 43.906 36.8041 43.7508 36.8746 43.6097C36.9357 43.4922 37.0768 43.3323 37.1944 43.2429C37.3354 43.1348 37.6034 43.0219 38.0172 42.895C38.3511 42.7915 38.7085 42.6646 38.8072 42.6176C38.9013 42.5658 39.0235 42.4718 39.0752 42.3966C39.1458 42.3072 39.174 42.1991 39.1693 42.0204C39.1693 41.8182 39.1458 41.7429 39.0141 41.5737C38.9295 41.4655 38.8401 41.3009 38.8213 41.2116C38.8025 41.1223 38.7978 40.9718 38.8166 40.8824C38.8354 40.7837 38.8166 40.5627 38.7696 40.3417C38.7273 40.1348 38.7038 39.9561 38.7179 39.942C38.732 39.9279 38.8495 39.989 38.9812 40.069C39.1082 40.1536 39.2398 40.2241 39.2633 40.2241C39.2868 40.2241 39.3809 40.1724 39.4608 40.1113C39.5455 40.0455 39.837 39.8903 40.1097 39.7633C40.3824 39.6364 40.8056 39.4671 41.0502 39.3871C41.2947 39.3025 41.732 39.1802 42.0188 39.1097C42.3103 39.0345 42.5549 38.9687 42.569 38.9545C42.5831 38.9404 42.616 38.7618 42.6442 38.5549C42.6724 38.348 42.7194 37.6379 42.7476 36.9796C42.79 36.0016 42.8135 35.7241 42.8934 35.4749C42.9734 35.221 43.0392 35.1223 43.279 34.8871C43.4671 34.7038 43.7398 34.5063 44.0784 34.3229C44.4201 34.1348 44.663 33.9624 44.8072 33.8056C44.9765 33.627 45.047 33.5 45.1129 33.2649C45.1693 33.0627 45.1928 32.8511 45.1834 32.6489C45.1646 32.3574 45.1505 32.3245 44.9624 32.1176C44.8542 32 44.7508 31.8448 44.7367 31.7696C44.7179 31.6991 44.7179 31.5157 44.732 31.3605C44.7461 31.2053 44.8166 30.9091 44.8824 30.7022C44.953 30.4953 45.0987 30.1003 45.2163 29.8182C45.4044 29.3668 45.4326 29.315 45.5266 29.3386C45.5878 29.348 45.9498 29.4326 46.3401 29.5266C46.7257 29.6207 47.2053 29.7194 47.3981 29.7429C47.6379 29.7759 47.8119 29.7759 47.9389 29.7429C48.0423 29.7194 48.1599 29.6583 48.2022 29.6113C48.2445 29.5643 48.2868 29.4843 48.3009 29.4326C48.315 29.3809 48.3056 29.1505 48.2868 28.9154C48.2633 28.6802 48.2022 28.3558 48.1552 28.1865C48.1034 28.0172 47.9671 27.6034 47.8495 27.2696C47.732 26.931 47.6191 26.5408 47.605 26.3997C47.5862 26.2586 47.5956 25.779 47.6285 25.3417C47.6567 24.8997 47.7226 24.3495 47.7696 24.1191C47.8166 23.884 47.9154 23.5455 47.9859 23.3668C48.0611 23.1834 48.1975 22.9201 48.2962 22.779C48.3903 22.6379 48.5502 22.4451 48.6536 22.3511C48.7524 22.2571 49.0768 21.9984 49.373 21.7774C49.6693 21.5564 50.0407 21.2414 50.2006 21.0815C50.3558 20.9169 50.5486 20.6865 50.6238 20.5737C50.7179 20.4279 50.8401 20.3292 51.0329 20.2351C51.1787 20.1599 51.5831 20.0047 51.9216 19.8871C52.2649 19.7696 52.8856 19.5768 53.2994 19.4592C53.7132 19.3417 54.4655 19.1395 54.9687 19.0125Z" fill="white"/>
<path d="M3.66771 36.1097C3.73354 36.0486 3.8464 35.9639 3.92633 35.9263C4.03448 35.8699 4.21787 35.8511 5.26646 35.8511V36.3307C5.26646 36.5987 5.29467 36.9843 5.33229 37.1912C5.36991 37.3981 5.44984 37.7132 5.50627 37.8966C5.5674 38.0799 5.75078 38.489 5.91536 38.8135C6.07994 39.1379 6.25392 39.5047 6.31035 39.6364C6.36207 39.7633 6.47492 39.9749 6.55486 40.1066C6.6395 40.2335 6.83229 40.4781 6.98746 40.6426C7.13793 40.8119 7.46709 41.1082 7.7116 41.3009C7.95611 41.4984 8.3605 41.7994 8.60502 41.9687C8.84953 42.1426 9.33856 42.4483 9.68652 42.6599C10.0345 42.8668 10.4248 43.1254 10.5517 43.2382C10.7398 43.4075 10.8433 43.5674 11.116 44.1223C11.2994 44.4937 11.5251 44.8793 11.6144 44.9734C11.7038 45.0721 11.8401 45.1708 11.9201 45.1897C12 45.2085 12.2069 45.1991 12.3903 45.1661C12.5737 45.1332 12.8793 45.0439 13.0721 44.9592C13.2649 44.8793 13.815 44.5502 14.2947 44.2304C14.7743 43.906 15.2586 43.5956 15.3762 43.5392C15.4937 43.4781 15.6724 43.4075 15.7759 43.3746C15.8793 43.3464 16.2602 43.2947 17.2806 43.2006L19.7022 43.5016C21.3997 43.7132 22.2226 43.7978 22.453 43.7837C22.6787 43.7696 22.8762 43.7226 23.0831 43.6285C23.2665 43.5439 23.4592 43.4122 23.5815 43.2806C23.6897 43.163 23.8542 42.9138 23.9483 42.7257C24.047 42.5423 24.2069 42.0862 24.3103 41.7147C24.4138 41.348 24.5455 40.9107 24.6019 40.7414C24.6536 40.5721 24.7571 40.3182 24.8276 40.1771C24.8981 40.036 25.0439 39.8386 25.152 39.7398C25.2696 39.6364 25.4436 39.5376 25.594 39.4953C25.7257 39.4577 25.9749 39.4248 26.1442 39.4248C26.3135 39.4248 26.7132 39.4577 27.0376 39.4953C27.3621 39.5329 28.0439 39.6505 28.5517 39.7539C29.0643 39.8574 29.6897 39.9749 29.9389 40.0078C30.1928 40.0455 30.6771 40.1019 31.011 40.1348C31.3448 40.163 31.7821 40.2288 31.9749 40.2759C32.1677 40.3276 32.4969 40.4498 32.7038 40.5486C32.9107 40.652 33.3103 40.8966 33.5925 41.1034C33.8697 41.3055 34.2644 41.578 34.462 41.7145C34.6595 41.8508 34.9138 41.9875 35.0313 42.0157C35.1536 42.0486 35.3887 42.0627 35.5956 42.0486C35.826 42.0345 36.0376 41.9828 36.2069 41.9075C36.348 41.8464 36.5502 41.7194 36.6489 41.6301C36.7524 41.5408 37.0063 41.2351 37.2179 40.953C37.4295 40.6708 37.6834 40.3652 37.7868 40.2759C37.8856 40.1865 38.0596 40.0737 38.1677 40.0266C38.2806 39.9796 38.3793 39.9467 38.3934 39.9514C38.4075 39.9608 38.4687 40.3981 38.5345 40.9295C38.5956 41.4608 38.6567 41.9828 38.6991 42.2931L37.5376 42.674C36.8934 42.8856 36.3668 43.0596 36.3574 43.0643C36.348 43.0643 36.4749 43.5768 36.6348 44.1975C36.7994 44.8182 36.9404 45.3354 36.9545 45.3495C36.9687 45.3636 36.9875 45.4248 36.9969 45.4906C37.0063 45.5564 37.011 45.721 37.011 45.8527C37.0063 45.989 37.0063 46.2288 37.0063 46.6661H36.489C36.127 46.6661 35.8919 46.6897 35.7038 46.7508C35.5533 46.7978 35.3182 46.906 35.1771 46.9953C35.036 47.0846 34.8339 47.2586 34.7304 47.3809C34.6223 47.4984 34.4389 47.7853 34.3213 48.0157C34.1991 48.2414 34.0486 48.5987 33.9828 48.8056C33.9122 49.0125 33.8182 49.3511 33.7665 49.558C33.7147 49.7649 33.6301 50.221 33.5784 50.569C33.5266 50.9169 33.4749 51.3683 33.4608 51.5658C33.4373 51.8997 33.4232 51.9326 33.3245 51.9514C33.268 51.9608 33.0752 51.9937 32.8919 52.0266C32.7085 52.0549 32.4781 52.1254 32.3793 52.1818C32.2759 52.2382 32.1489 52.3605 32.0972 52.4498C32.0125 52.5909 31.9937 52.7179 31.9514 54.1191L31.6223 54.152C31.4389 54.1708 30.9122 54.2414 30.4467 54.3072C29.9812 54.373 29.4216 54.4718 29.2006 54.5235C28.9796 54.5752 28.7069 54.6693 28.5893 54.7351C28.4718 54.7962 28.2978 54.9279 28.2038 55.0219C28.1097 55.1207 27.9169 55.3887 27.7759 55.6238C27.6301 55.8636 27.4514 56.094 27.3621 56.1552C27.2116 56.2586 27.1646 56.2633 26.6614 56.2492C26.1442 56.2351 26.1019 56.2257 25.6975 56.0376C25.4577 55.9295 25.1614 55.8307 25.0157 55.8119C24.8746 55.7978 24.6207 55.8072 24.4514 55.8354C24.2821 55.8636 23.9436 55.9718 23.6991 56.0752C23.4545 56.1787 22.9984 56.4138 22.6881 56.5972C22.3777 56.7853 21.7853 57.1567 21.3715 57.4248C20.9577 57.6975 20.3746 58.0643 20.0784 58.2477C19.7821 58.4263 19.3918 58.6473 19.2085 58.7414C18.9781 58.8542 18.7712 59.0141 18.5266 59.2633C18.3339 59.4608 17.9295 59.8793 17.6332 60.1944C17.3229 60.5188 16.9702 60.8386 16.8103 60.942C16.6552 61.0408 16.1991 61.2523 15.7994 61.4169C15.3997 61.5815 14.9765 61.779 14.8589 61.8589C14.7414 61.9389 14.605 62.0611 14.558 62.127C14.5063 62.1975 14.4545 62.348 14.4451 62.4655C14.4263 62.6489 14.4451 62.6959 14.558 62.8088C14.6332 62.8793 14.779 62.9781 14.8824 63.0251C14.9859 63.0721 15.1928 63.1426 15.3433 63.1755C15.6113 63.2414 15.6113 63.2414 15.6113 63.4154C15.6113 63.5141 15.5878 63.7069 15.5596 63.8386C15.5313 63.9749 15.4702 64.163 15.4232 64.2524C15.3762 64.3417 15.2586 64.4922 15.1552 64.5815C15.0517 64.6708 14.9013 64.8025 14.8213 64.873C14.6944 64.9812 14.6708 65.0376 14.6708 65.2022C14.6708 65.315 14.7179 65.4984 14.7696 65.616C14.8213 65.7335 15.0141 66.0486 15.1975 66.3213C15.3809 66.594 15.5737 66.9091 15.6348 67.0266C15.6912 67.1442 15.7853 67.3699 15.8417 67.5298C15.8934 67.6944 15.9734 68.0094 16.011 68.2351C16.0533 68.4749 16.0815 68.931 16.0815 69.3166C16.0815 69.8103 16.0627 70.0314 16.011 70.1536C15.9687 70.2524 15.8793 70.3511 15.7853 70.3981C15.7053 70.4404 15.4749 70.5157 15.2821 70.5627C15.0893 70.6097 14.8354 70.6991 14.7226 70.7555C14.605 70.8119 14.4357 70.9436 14.3464 71.0517C14.2524 71.1552 14.1254 71.3762 14.0643 71.5455C14.0031 71.71 13.9373 71.8605 13.9232 71.8793C13.9091 71.8981 13.6928 71.8699 13.4483 71.8182C13.2038 71.7665 12.9875 71.7147 12.964 71.7006C12.9451 71.6912 12.8793 71.5737 12.8135 71.4467C12.7476 71.315 12.6818 71.2022 12.6583 71.1928C12.6395 71.1787 12.5972 71.2821 12.5078 71.6583L10.7915 72.1661L10.5329 72.5893C10.3919 72.8198 10.2414 73.0219 10.2038 73.0361C10.1661 73.0502 10.0392 73.0078 9.92633 72.9467C9.78997 72.8715 9.6442 72.7257 9.50314 72.5282C9.38558 72.3589 9.2163 72.0533 9.13166 71.8464C9.04702 71.6395 8.90596 71.2257 8.81661 70.9295C8.73198 70.6332 8.61912 70.1865 8.5674 69.942C8.51097 69.6975 8.42633 69.2414 8.37461 68.931C8.32288 68.6207 8.23354 68.0282 8.18182 67.6144C8.13009 67.2006 8.05486 66.4671 8.01724 65.9781C7.97962 65.4937 7.94671 64.8542 7.94671 64.0172L7.64107 63.5705C7.46709 63.3166 7.30251 63.0157 7.26489 62.8746C7.22727 62.7429 7.19436 62.5784 7.19436 62.5125C7.19436 62.4467 7.22257 62.2868 7.26019 62.1599C7.29781 62.0282 7.45298 61.7367 7.59875 61.5016C7.74922 61.2665 7.9326 60.9608 8.00784 60.8197C8.10658 60.6411 8.1489 60.4953 8.1489 60.3495C8.1489 60.232 8.10188 60.0298 8.04546 59.9028C7.98903 59.7712 7.84796 59.5313 7.73511 59.3621C7.62226 59.1928 7.40596 58.9295 7.25549 58.779C7.10502 58.6238 6.89812 58.4357 6.79467 58.3652C6.69122 58.29 6.57367 58.2288 6.53605 58.2335C6.47962 58.2335 6.47022 58.2712 6.49843 58.4545C6.51724 58.5815 6.56897 58.7743 6.60658 58.8918C6.6489 59.0094 6.69592 59.2304 6.71003 59.3856C6.72884 59.5878 6.71944 59.7053 6.66771 59.8088C6.62539 59.8887 6.53605 60.0016 6.46081 60.0674C6.38558 60.1332 6.2163 60.2273 6.08934 60.279C5.92006 60.3401 5.7837 60.3589 5.59561 60.3401C5.44514 60.326 5.19593 60.2508 5.00784 60.1661C4.78213 60.058 4.59404 59.9263 4.42006 59.7429C4.279 59.5972 4.10031 59.348 4.02508 59.1975C3.94044 59.0188 3.87931 58.8119 3.86991 58.6332C3.8464 58.3558 3.8511 58.3464 4.30251 57.7163H4.82915C5.12069 57.7163 5.40282 57.6928 5.45455 57.6693C5.50627 57.6458 5.5768 57.5658 5.61442 57.4906C5.65204 57.4201 5.69906 57.232 5.72257 57.0674C5.74138 56.9075 5.75078 56.7759 5.73668 56.7759C5.72257 56.7759 5.00784 57.0157 4.14734 57.3166C3.29154 57.6129 2.5721 57.8574 2.54859 57.8574C2.52978 57.8574 2.48746 57.8056 2.45455 57.7398C2.42633 57.674 2.39812 57.594 2.39812 57.5611C2.39342 57.5329 2.49216 57.4671 2.82132 57.3401L2.84953 56.7853C2.86834 56.4843 2.86834 56.1176 2.85423 55.9765C2.83542 55.8354 2.7931 55.6238 2.75549 55.5063C2.71317 55.3887 2.59091 55.1912 2.48276 55.0643C2.36991 54.9373 2.13009 54.7398 1.95141 54.6223C1.76803 54.5094 1.56113 54.3589 1.4906 54.2884C1.41536 54.2226 1.32132 54.105 1.279 54.0251C1.23198 53.9357 1.20376 53.7665 1.20376 53.5549C1.20376 53.3762 1.24138 53.0987 1.279 52.9436C1.32132 52.7884 1.48119 52.3746 1.63636 52.0266C1.79154 51.6787 1.95141 51.2931 1.99373 51.1661C2.03605 51.0439 2.09248 50.8041 2.11599 50.6254C2.1442 50.4514 2.1489 50.268 2.13009 50.2163C2.11599 50.1646 1.9185 49.9201 1.70219 49.6755C1.48589 49.431 1.19906 49.0784 1.0721 48.8997C0.945141 48.721 0.742947 48.3871 0.630094 48.1567C0.517241 47.931 0.362069 47.5643 0.282132 47.3339C0.206897 47.1082 0.112853 46.7132 0.0705329 46.4545C0.0329154 46.1959 0 45.6881 0 45.326C0 44.8793 0.023511 44.5784 0.0752351 44.3856C0.112853 44.2304 0.197492 44.0094 0.263323 43.8919C0.324451 43.7743 0.470219 43.5627 0.587774 43.4216C0.700627 43.2806 1.09561 42.895 1.46708 42.5705C1.83856 42.2414 2.22414 41.8699 2.33229 41.7476C2.44044 41.6207 2.5721 41.442 2.62853 41.3527C2.68025 41.2633 2.72727 41.1787 2.72727 41.1646C2.72727 41.1505 2.11599 40.8448 1.36364 40.4828C0.615987 40.1207 0 39.815 0 39.8009C0 39.7868 0.639499 39.5893 1.42006 39.3589C2.20533 39.1285 2.84953 38.9404 2.85893 38.9357C2.86364 38.931 2.92947 38.569 3.0047 38.1317C3.07994 37.6897 3.17868 37.1959 3.221 37.0266C3.26332 36.8574 3.35737 36.6082 3.4232 36.4718C3.49373 36.3307 3.60188 36.1708 3.66771 36.1097Z" fill="white"/>
<path d="M43.0251 45.6787C43.1144 45.6176 43.2743 45.5376 43.3777 45.5094C43.4812 45.4765 43.6505 45.4483 43.7539 45.4483C43.8574 45.4436 44.0596 45.4765 44.2006 45.5188C44.3417 45.5611 44.5533 45.6458 44.6708 45.7116C44.7884 45.7821 44.9671 45.8997 45.0658 45.9796C45.1693 46.0596 45.348 46.2524 45.6677 46.6897L45.6442 47.2304C45.6254 47.6207 45.5878 47.8887 45.4984 48.185C45.4326 48.4107 45.2069 48.9561 45 49.3934C44.7931 49.8307 44.5909 50.3244 44.5533 50.489C44.5157 50.6489 44.4828 50.8793 44.4828 51.0063C44.4828 51.1285 44.5157 51.3025 44.5533 51.3918C44.5909 51.4812 44.6755 51.5752 44.7414 51.6034C44.8072 51.627 44.9906 51.6552 45.442 51.674L45.5266 51.3683C45.5737 51.1991 45.6771 50.9263 45.7524 50.7571C45.8323 50.5878 45.9639 50.3856 46.0486 50.3009C46.1285 50.2163 46.2837 50.1176 46.3871 50.0752C46.5188 50.0188 46.6411 50.0047 46.7868 50.0282C46.9044 50.0423 47.069 50.0987 47.1489 50.1458C47.2429 50.2022 47.3182 50.2915 47.3323 50.3715C47.3511 50.442 47.3558 50.6254 47.3417 50.7806C47.3276 50.9592 47.2571 51.2085 47.1489 51.4624C47.0549 51.6834 46.9561 51.9373 46.9279 52.0266C46.8903 52.1583 46.9279 52.4404 47.1207 53.4843C47.2524 54.1944 47.3652 54.7915 47.3793 54.8151C47.3887 54.8339 47.4969 54.8621 47.6191 54.8809C47.7461 54.8997 47.8919 54.9514 47.9483 54.9984C48.0094 55.0455 48.0705 55.1583 48.0846 55.2618C48.1035 55.3558 48.0893 55.5721 48.0564 55.7414C48.0235 55.9107 47.9859 56.174 47.9577 56.6113L48.8323 57.4812H49.2414C49.4718 57.4812 49.7116 57.5047 49.7821 57.5329C49.8574 57.5564 49.9749 57.6364 50.0455 57.7069C50.1207 57.7774 50.2429 57.9185 50.3135 58.0219C50.384 58.1254 50.5627 58.4263 50.9718 59.174L51.0282 60.279L51.7288 60.9138C52.3354 61.464 52.4295 61.5674 52.4295 61.6897C52.4295 61.7696 52.3777 62.489 52.3119 63.2884C52.2461 64.0878 52.1944 64.8636 52.1944 65.0047C52.1944 65.1928 52.2273 65.3292 52.3213 65.5172C52.3966 65.6583 52.5564 65.8699 52.6881 65.9828C52.815 66.0956 53.1113 66.2837 53.3464 66.3966C53.5815 66.5047 53.9389 66.6411 54.1458 66.6975C54.3527 66.7492 54.6959 66.8103 55.2978 66.8621V66.1803L54.7665 66.058C54.4796 65.9922 54.2022 65.931 54.1552 65.9169C54.094 65.9028 54.0752 65.8464 54.0752 65.4279L54.3433 65.442C54.6066 65.4514 54.6113 65.4561 54.8558 65.8746L55.7539 65.9922C56.2477 66.058 56.6661 66.1238 56.6803 66.1473C56.6944 66.1661 56.6144 66.232 56.4969 66.2978C56.3793 66.3636 56.2853 66.4295 56.2853 66.453C56.2853 66.4718 56.3417 66.7821 56.4075 67.1442C56.5016 67.6473 56.5251 67.9013 56.511 68.2257C56.4969 68.4984 56.4639 68.7053 56.4122 68.8041C56.3699 68.884 56.2759 68.9969 56.2006 69.0439C56.1301 69.0956 55.8386 69.1991 55.5564 69.279C55.2743 69.3542 54.9875 69.4577 54.9263 69.5047C54.8652 69.5517 54.7759 69.6411 54.7241 69.7069C54.6771 69.7727 54.6254 69.942 54.6066 70.0831C54.5878 70.2523 54.6254 70.6991 54.8417 72.3636L54.7053 72.7116C54.6301 72.8997 54.5549 73.0643 54.5313 73.0737C54.5125 73.0831 54.1881 72.9749 53.8025 72.8291C53.4216 72.6834 53.0596 72.5423 52.9937 72.5188C52.8762 72.4718 52.8762 72.4765 52.9138 72.6552C52.9326 72.7539 52.9984 72.9467 53.0643 73.0831C53.1442 73.2524 53.3934 73.5439 53.8636 74.0329C54.4608 74.6489 54.569 74.7853 54.7288 75.1285C54.8323 75.3401 54.9498 75.6787 54.9875 75.8809C55.0392 76.1207 55.0627 76.4969 55.0627 76.9859C55.0627 77.4561 55.0392 77.8276 54.9969 78.0063C54.9592 78.1614 54.8464 78.4765 54.7476 78.7116C54.6536 78.9467 54.4561 79.3182 54.3103 79.5439C54.1693 79.7696 53.9295 80.1034 53.779 80.2868C53.6332 80.4655 53.3887 80.7147 53.2382 80.8323C53.0925 80.9498 52.8903 81.0862 52.7915 81.1379C52.6975 81.185 52.5047 81.2508 52.3683 81.279C52.1661 81.3166 52.105 81.3119 52.0157 81.2555C51.9592 81.2132 51.8699 81.0956 51.8182 80.9922C51.7665 80.8887 51.6818 80.6489 51.6301 80.4655C51.5831 80.2774 51.5078 79.9342 51.4702 79.6991C51.4279 79.464 51.3668 78.9279 51.3292 78.5C51.2915 78.0721 51.2398 77.3903 51.221 76.9765C51.1881 76.3417 51.174 76.2288 51.0987 76.1912C51.0564 76.1677 50.9953 76.1489 50.9718 76.1489C50.9483 76.1489 50.6991 76.5909 49.9138 78.1238L49.7022 78.152C49.5846 78.1661 49.2179 78.2226 48.8793 78.2696C48.5408 78.3213 47.9718 78.4389 47.6097 78.5235C47.2476 78.6129 46.7492 78.7586 46.5047 78.8527C46.2602 78.9467 45.8981 79.1066 45.7053 79.2147C45.5125 79.3182 45.2351 79.4969 45.094 79.605C44.953 79.7179 44.7696 79.8918 44.6897 79.9906C44.6097 80.0893 44.4875 80.2774 44.4169 80.4044C44.3464 80.536 44.2947 80.6677 44.2947 80.7006C44.2947 80.7288 44.2712 80.7665 44.2477 80.7806C44.2241 80.7947 44.1583 80.7194 44.1066 80.616C44.0549 80.5125 43.989 80.4185 43.9655 80.4044C43.942 80.3903 43.7022 80.5737 43.4342 80.8088C43.1708 81.0439 42.8323 81.2978 42.6818 81.373C42.4843 81.4765 42.348 81.5094 42.1552 81.5094C42.0141 81.5094 41.8401 81.4812 41.7649 81.4436C41.6944 81.406 41.5721 81.3072 41.4875 81.2179C41.4028 81.1332 41.2759 80.9263 41.2006 80.7571C41.1254 80.5878 41.0078 80.2398 40.942 79.9812C40.8715 79.7226 40.7116 78.9608 40.5752 78.2884C40.4436 77.616 40.2649 76.8119 40.1756 76.5016C40.0815 76.1912 39.9263 75.7774 39.8276 75.5846C39.7241 75.3919 39.569 75.1473 39.4843 75.0439C39.395 74.9404 39.221 74.7994 39.094 74.7288C38.9671 74.6583 38.7555 74.5831 38.6285 74.569C38.4357 74.5407 38.3464 74.5596 38.1348 74.6536C37.9937 74.7147 37.6552 74.8981 37.3824 75.0533C37.1097 75.2085 36.7429 75.4107 36.5596 75.5C36.3762 75.594 36.0846 75.721 35.9013 75.7868C35.7179 75.848 35.4122 75.9279 35.2194 75.9561C34.8856 76.0078 34.848 76.0031 34.5141 75.8856C34.3213 75.815 34.1567 75.7539 34.152 75.7539C34.1473 75.7492 34.0862 75.4859 34.0204 75.1614C33.9545 74.837 33.8746 74.5502 33.8417 74.5172C33.8135 74.489 32.9812 73.8589 31.9984 73.1207C31.0157 72.3824 30.1975 71.79 30.174 71.7994C30.1552 71.8135 30.1411 71.8652 30.1411 71.9169C30.1411 71.9687 30.0846 72.2931 30.0188 72.6364C29.953 72.9749 29.8448 73.4357 29.7837 73.6567C29.7179 73.8777 29.5862 74.2257 29.4875 74.4326C29.384 74.6395 29.21 74.9169 29.0972 75.0439C28.9608 75.1944 28.7962 75.3166 28.6317 75.3918C28.4295 75.4812 28.3166 75.5 28.0721 75.4812C27.8088 75.4671 27.663 75.4154 27.0141 75.105C26.6003 74.9075 26.0737 74.6818 25.8386 74.5972C25.6034 74.5172 25.2367 74.4185 25.0157 74.3809C24.7947 74.3433 24.5219 74.3151 24.4044 74.3151C24.2633 74.3151 24.1223 74.3574 23.9812 74.442C23.8636 74.5078 23.6144 74.6677 23.0878 75.0204V76.4781L22.1097 76.9718L21.9122 76.8072C21.8041 76.7179 21.6207 76.5063 21.5125 76.337C21.4044 76.1677 21.2727 75.9279 21.2163 75.7962C21.1646 75.6693 21.0752 75.3919 21.0235 75.185C20.9671 74.9781 20.8918 74.536 20.8495 74.1975C20.8119 73.8589 20.7508 73.2053 20.6661 71.8981L20.1724 72.6223L19.9702 72.5987C19.8621 72.5846 19.3025 72.5188 18.7241 72.4577C18.1505 72.3918 17.5909 72.3401 17.4781 72.3401C17.3699 72.3401 17.1724 72.3683 17.0455 72.4107C16.9138 72.4483 16.6505 72.5705 16.4577 72.6881C16.2649 72.8009 15.8276 73.1066 14.8824 73.8354L14.6473 73.6944C14.5157 73.6144 14.1254 73.3464 13.7774 73.0972C13.4295 72.848 13.0157 72.5846 12.8605 72.5094C12.7053 72.4342 12.4185 72.3354 12.2257 72.2884C12.0329 72.2414 11.6614 72.185 10.9326 72.1285L12.5078 71.6583L12.569 71.4138C12.5972 71.2821 12.6395 71.1787 12.6583 71.1928C12.6818 71.2022 12.7476 71.3197 12.8135 71.4467C12.8793 71.5784 12.9451 71.6912 12.964 71.7006C12.9875 71.7147 13.2038 71.7665 13.4483 71.8182C13.6928 71.8699 13.9091 71.8981 13.9232 71.8793C13.9373 71.8605 14.0031 71.71 14.0643 71.5455C14.1254 71.3762 14.2524 71.1552 14.3464 71.0517C14.4357 70.9436 14.605 70.8119 14.7226 70.7555C14.8354 70.6991 15.0893 70.6097 15.2821 70.5627C15.4749 70.5157 15.7053 70.4404 15.7853 70.3981C15.8793 70.3511 15.9687 70.2524 16.011 70.1536C16.0627 70.0314 16.0815 69.8103 16.0815 69.3213C16.0815 68.931 16.0533 68.4749 16.011 68.2398C15.9734 68.0094 15.8934 67.6944 15.8417 67.5345C15.7853 67.3699 15.6912 67.1442 15.6348 67.0266C15.5737 66.9091 15.3809 66.594 15.1975 66.3213C15.0141 66.0486 14.8213 65.7335 14.7696 65.616C14.7179 65.4984 14.6708 65.315 14.6708 65.2069C14.6708 65.0376 14.6944 64.9812 14.8213 64.8777C14.9013 64.8025 15.0517 64.6708 15.1552 64.5815C15.2586 64.4922 15.3762 64.3417 15.4232 64.2524C15.4702 64.163 15.5313 63.9749 15.5596 63.8433C15.5878 63.7069 15.6113 63.5141 15.6113 63.4201C15.6113 63.2414 15.6113 63.2414 15.3433 63.1755C15.1928 63.1426 14.9859 63.0721 14.8824 63.0251C14.779 62.9781 14.6332 62.8793 14.558 62.8088C14.4451 62.6959 14.4263 62.6489 14.4451 62.4655C14.4545 62.348 14.5063 62.1975 14.558 62.127C14.605 62.0611 14.7414 61.9389 14.8589 61.8589C14.9765 61.779 15.3997 61.5815 15.7994 61.4169C16.1991 61.2523 16.6552 61.0408 16.8103 60.942C16.9702 60.8386 17.3229 60.5188 17.6332 60.1944C17.9295 59.8793 18.3339 59.4608 18.5266 59.2633C18.7712 59.0141 18.9781 58.8542 19.2085 58.7414C19.3918 58.6473 19.7821 58.4263 20.0784 58.2477C20.3746 58.0643 20.9577 57.6975 21.3715 57.4248C21.7853 57.1567 22.3777 56.7853 22.6881 56.5972C22.9984 56.4138 23.4545 56.1787 23.6991 56.0752C23.9436 55.9718 24.2821 55.8636 24.4514 55.8354C24.6207 55.8072 24.8746 55.7978 25.0157 55.8119C25.1614 55.8307 25.4577 55.9295 25.6975 56.0376C26.1019 56.2257 26.1442 56.2351 26.6614 56.2492C27.1646 56.2633 27.2116 56.2586 27.3621 56.1552C27.4514 56.094 27.6301 55.8636 27.7759 55.6238C27.9169 55.3887 28.1097 55.1207 28.2038 55.0219C28.2978 54.9279 28.4718 54.7962 28.5893 54.7351C28.7069 54.6693 28.9796 54.5752 29.2006 54.5235C29.4216 54.4718 29.9812 54.373 30.4467 54.3072C30.9122 54.2414 31.4389 54.1708 31.9514 54.1191L31.9749 53.3668C31.9937 52.7179 32.0125 52.5909 32.0972 52.4498C32.1489 52.3605 32.2759 52.2382 32.3793 52.1818C32.4781 52.1254 32.7085 52.0549 32.8919 52.0266C33.0752 51.9937 33.268 51.9608 33.3245 51.9514C33.4232 51.9326 33.4373 51.8997 33.4608 51.5705C33.4749 51.3683 33.5266 50.9169 33.5784 50.569C33.6301 50.221 33.7147 49.7649 33.7665 49.558C33.8182 49.3511 33.9122 49.0125 33.9828 48.8056C34.0486 48.5987 34.1991 48.2414 34.3213 48.0157C34.4389 47.7853 34.6223 47.4984 34.7304 47.3809C34.8339 47.2586 35.036 47.0846 35.1771 46.9953C35.3182 46.906 35.5533 46.7978 35.6991 46.7508C35.8919 46.6897 36.127 46.6661 37.0063 46.6661L37.011 46.3981C37.011 46.2476 37.0204 46.0408 37.0345 45.9373C37.0439 45.8339 37.058 45.7445 37.0674 45.7398C37.0721 45.7304 37.2461 45.8009 37.453 45.8903C37.7915 46.036 38.0266 46.0831 39.7806 46.3605C41.5016 46.6332 41.7508 46.6614 41.8966 46.6144C41.9859 46.5815 42.2398 46.384 42.4608 46.1724C42.6818 45.9655 42.9357 45.7445 43.0251 45.6787Z" fill="white"/>
</svg>
