<svg width="37" height="58" viewBox="0 0 37 58" fill="none" xmlns="http://www.w3.org/2000/svg">
<path d="M5.21169 52.0874C8.48303 55.6656 13.1804 57.9181 18.4044 57.9452C13.3504 57.9096 9.2045 54.0537 8.71061 49.1215C7.42089 49.9589 6.24513 50.957 5.21169 52.0874Z" fill="white"/>
<path d="M18.4857 57.9455C23.5771 57.9401 27.7606 54.0573 28.2423 49.091C25.4342 47.2801 22.0898 46.2292 18.5 46.2292C14.8901 46.2292 11.5284 47.2919 8.71061 49.1215C9.2045 54.0537 13.3504 57.9096 18.4044 57.9452C18.4314 57.9454 18.4586 57.9455 18.4857 57.9455Z" fill="white"/>
<path d="M18.515 57.9455C23.7712 57.9412 28.5001 55.684 31.7883 52.0874C30.7423 50.9432 29.5505 49.9346 28.2423 49.091C27.7606 54.0573 23.5771 57.9401 18.4857 57.9455L18.5 57.9455C18.505 57.9455 18.51 57.9455 18.515 57.9455Z" fill="white"/>
<path d="M2.17166 32.36C1.09893 34.6651 0.5 37.2354 0.5 39.9455C0.5 44.6244 2.28522 48.8864 5.21169 52.0874C6.24513 50.957 7.42089 49.9589 8.71061 49.1215C8.67802 48.796 8.66133 48.4659 8.66133 48.1319C8.66133 46.8757 8.89734 45.6747 9.32742 44.5708C6.82748 43.5952 5.05633 41.1635 5.05633 38.3182C5.05633 37.9779 5.08166 37.6435 5.13055 37.3168C5.10314 37.1337 5.08314 36.9481 5.07085 36.7604C3.90167 35.4514 2.92105 33.9703 2.17166 32.36Z" fill="white"/>
<path d="M11.7656 45.0275C13.7966 45.0275 15.6167 44.1252 16.847 42.6995C16.1071 42.6322 15.3801 42.52 14.6688 42.3658C13.7903 42.7882 12.8056 43.0248 11.7656 43.0248C11.2291 43.0248 10.7073 42.9618 10.2071 42.8428C9.85974 43.3847 9.56417 43.963 9.32742 44.5708C10.0832 44.8657 10.9055 45.0275 11.7656 45.0275Z" fill="white"/>
<path d="M17.0951 42.3946C16.612 42.2243 16.1542 42.0002 15.729 41.7296C15.3974 41.9727 15.0428 42.1861 14.6688 42.3658C15.3801 42.52 16.1071 42.6322 16.847 42.6995C16.9326 42.6004 17.0154 42.4987 17.0951 42.3946Z" fill="white"/>
<path d="M5.05633 38.3182C5.05633 41.1635 6.82748 43.5952 9.32742 44.5708C9.56417 43.963 9.85974 43.3847 10.2071 42.8428C7.57048 42.2156 5.53691 40.0322 5.13055 37.3168C5.08166 37.6435 5.05633 37.9779 5.05633 38.3182Z" fill="white"/>
<path d="M5.20466 36.9086C5.17588 37.0432 5.15113 37.1794 5.13055 37.3168C5.53691 40.0322 7.57048 42.2156 10.2071 42.8428C10.557 42.297 10.9595 41.788 11.4075 41.3232C9.0331 40.3042 6.92203 38.7892 5.20466 36.9086Z" fill="white"/>
<path d="M12.6716 36.9261C10.7782 35.9583 9.15838 34.5317 7.95862 32.7929C6.57524 33.7478 5.56808 35.2089 5.20466 36.9086C6.92203 38.7892 9.0331 40.3042 11.4075 41.3232C12.0574 40.6487 12.803 40.067 13.6224 39.5999C13.1283 38.8043 12.796 37.8977 12.6716 36.9261Z" fill="white"/>
<path d="M18.1695 38.3229C18.1703 38.3202 18.1712 38.3174 18.172 38.3147C16.1946 38.2687 14.3284 37.7731 12.6716 36.9261C12.796 37.8977 13.1283 38.8043 13.6224 39.5999C14.9707 38.8315 16.5188 38.3734 18.1695 38.3229Z" fill="white"/>
<path d="M15.4362 32.7011C14.8655 32.6032 14.304 32.4785 13.753 32.3282C13.0355 33.3962 12.6168 34.6818 12.6168 36.0651C12.6168 36.3568 12.6354 36.6442 12.6716 36.9261C14.3284 37.7731 16.1946 38.2687 18.172 38.3147C18.2727 37.9919 18.3496 37.6586 18.4007 37.3168C18.1119 35.387 17.0012 33.7258 15.4362 32.7011Z" fill="white"/>
<path d="M24.59 31.9045C22.6879 32.5882 20.6375 32.9608 18.5 32.9608C18.1859 32.9608 17.8736 32.9527 17.5635 32.9368C18.1429 33.9291 18.475 35.0835 18.475 36.3154C18.475 36.6558 18.4496 36.9902 18.4007 37.3168C18.4496 37.6435 18.475 37.9779 18.475 38.3182C21.3028 38.3182 23.916 37.3989 26.0319 35.8427C25.9835 34.3573 25.4522 32.9939 24.59 31.9045Z" fill="white"/>
<path d="M7.95862 32.7929C9.15838 34.5317 10.7782 35.9583 12.6716 36.9261C12.6354 36.6442 12.6168 36.3568 12.6168 36.0651C12.6168 34.6818 13.0355 33.3962 13.753 32.3282C13.0317 32.1315 12.3284 31.8911 11.6461 31.61C10.278 31.6339 9.00972 32.0673 7.95862 32.7929Z" fill="white"/>
<path d="M6.10103 28.7094C5.4225 28.9325 4.72617 29.1163 4.01472 29.2582C3.30178 30.2229 2.68291 31.2613 2.17166 32.36C2.92105 33.9703 3.90167 35.4514 5.07085 36.7604C5.06122 36.6133 5.05633 36.465 5.05633 36.3154C5.05633 34.3992 5.85967 32.6706 7.14794 31.448C6.69925 30.588 6.34563 29.6705 6.10103 28.7094Z" fill="white"/>
<path d="M5.9091 27.8243C5.78455 27.7024 5.66175 27.5786 5.54076 27.4531C4.99391 28.0203 4.48394 28.6233 4.01472 29.2582C4.72617 29.1163 5.4225 28.9325 6.10103 28.7094C6.02692 28.4183 5.96281 28.1231 5.9091 27.8243Z" fill="white"/>
<path d="M5.54076 27.4531C5.66175 27.5786 5.78455 27.7024 5.9091 27.8243C5.8708 27.6112 5.83778 27.3962 5.81019 27.1796C5.71942 27.2698 5.6296 27.361 5.54076 27.4531Z" fill="white"/>
<path d="M9.9863 26.8908C9.30493 26.4041 8.6671 25.8604 8.07979 25.2666C7.27114 25.8416 6.51206 26.4819 5.81019 27.1796C5.83778 27.3962 5.8708 27.6112 5.9091 27.8243C6.15184 28.0619 6.40128 28.2927 6.6571 28.5164C7.82862 28.088 8.94317 27.5413 9.9863 26.8908Z" fill="white"/>
<path d="M5.9091 27.8243C5.96281 28.1231 6.02692 28.4183 6.10103 28.7094C6.28775 28.648 6.47313 28.5837 6.6571 28.5164C6.40128 28.2927 6.15184 28.0619 5.9091 27.8243Z" fill="white"/>
<path d="M6.10103 28.7094C6.34563 29.6705 6.69925 30.588 7.14794 31.448C7.67538 30.9475 8.28409 30.5318 8.95224 30.2227C8.14154 29.7145 7.37422 29.1434 6.6571 28.5164C6.47313 28.5837 6.28775 28.648 6.10103 28.7094Z" fill="white"/>
<path d="M15.3628 30.6509C16.0259 30.1647 16.7816 29.7974 17.5986 29.5803C14.7696 29.413 12.157 28.4414 9.9863 26.8908C8.94317 27.5413 7.82862 28.088 6.6571 28.5164C7.37422 29.1434 8.14154 29.7145 8.95224 30.2227C9.80787 29.827 10.761 29.6061 11.7656 29.6061C13.0892 29.6061 14.3232 29.9894 15.3628 30.6509Z" fill="white"/>
<path d="M11.9409 25.4824C10.859 25.3707 9.81724 25.1239 8.8327 24.7592C8.57727 24.9221 8.32623 25.0913 8.07979 25.2666C8.6671 25.8604 9.30493 26.4041 9.9863 26.8908C10.6698 26.4646 11.3227 25.9937 11.9409 25.4824Z" fill="white"/>
<path d="M14.8848 22.3948C14.6575 22.4236 14.4284 22.4463 14.1976 22.4629C12.2684 22.9361 10.4614 23.7202 8.8327 24.7592C9.81724 25.1239 10.859 25.3707 11.9409 25.4824C13.0395 24.5736 14.0284 23.5368 14.8848 22.3948Z" fill="white"/>
<path d="M21.831 22.2531C21.6726 22.2235 21.5134 22.1959 21.3536 22.1704C20.4284 22.3836 19.4649 22.4963 18.475 22.4963C17.5828 22.4963 16.7119 22.4047 15.8713 22.2306C15.5468 22.2978 15.2178 22.3527 14.8848 22.3948C14.0284 23.5368 13.0395 24.5736 11.9409 25.4824C12.377 25.5274 12.8197 25.5505 13.2677 25.5505C16.5627 25.5505 19.5661 24.3024 21.831 22.2531Z" fill="white"/>
<path d="M18.5 21.9455C17.8834 21.9455 17.274 21.9765 16.6733 22.037C16.4093 22.1099 16.1419 22.1745 15.8713 22.2306C16.7119 22.4047 17.5828 22.4963 18.475 22.4963C19.4649 22.4963 20.4284 22.3836 21.3536 22.1704C20.4242 22.0224 19.4711 21.9455 18.5 21.9455Z" fill="white"/>
<path d="M20.528 29.4631C23.782 29.0058 26.6923 27.4773 28.8908 25.2457C26.8186 23.7783 24.4226 22.738 21.831 22.2531C19.5661 24.3024 16.5627 25.5505 13.2677 25.5505C12.8197 25.5505 12.377 25.5274 11.9409 25.4824C11.3227 25.9937 10.6698 26.4646 9.9863 26.8908C12.157 28.4414 14.7696 29.413 17.5986 29.5803C18.1498 29.4338 18.7288 29.3558 19.3261 29.3558C19.7364 29.3558 20.138 29.3926 20.528 29.4631Z" fill="white"/>
<path d="M5.05633 36.3154C5.05633 36.465 5.06122 36.6133 5.07085 36.7604C5.11518 36.8101 5.15979 36.8595 5.20466 36.9086C5.56808 35.2089 6.57524 33.7478 7.95862 32.7929C7.66197 32.3629 7.39101 31.9139 7.14794 31.448C5.85967 32.6706 5.05633 34.3992 5.05633 36.3154Z" fill="white"/>
<path d="M7.95862 32.7929C9.00972 32.0673 10.278 31.6339 11.6461 31.61C10.7055 31.2223 9.80487 30.7572 8.95224 30.2227C8.28409 30.5318 7.67538 30.9475 7.14794 31.448C7.39101 31.9139 7.66197 32.3629 7.95862 32.7929Z" fill="white"/>
<path d="M11.7656 31.6089C12.5478 31.6089 13.2987 31.7428 13.9967 31.9888C14.386 31.4806 14.8463 31.0297 15.3628 30.6509C14.3232 29.9894 13.0892 29.6061 11.7656 29.6061C10.761 29.6061 9.80787 29.827 8.95224 30.2227C9.80487 30.7572 10.7055 31.2223 11.6461 31.61C11.6859 31.6093 11.7257 31.6089 11.7656 31.6089Z" fill="white"/>
<path d="M11.6461 31.61C12.3284 31.8911 13.0317 32.1315 13.753 32.3282C13.8308 32.2125 13.912 32.0993 13.9967 31.9888C13.2987 31.7428 12.5478 31.6089 11.7656 31.6089C11.7257 31.6089 11.6859 31.6093 11.6461 31.61Z" fill="white"/>
<path d="M13.753 32.3282C14.304 32.4785 14.8655 32.6032 15.4362 32.7011C14.9904 32.4092 14.5077 32.1689 13.9967 31.9888C13.912 32.0993 13.8308 32.2125 13.753 32.3282Z" fill="white"/>
<path d="M15.4362 32.7011C16.1325 32.8205 16.8424 32.8999 17.5635 32.9368C17.0226 32.0106 16.2661 31.2257 15.3628 30.6509C14.8463 31.0297 14.386 31.4806 13.9967 31.9888C14.5077 32.1689 14.9904 32.4092 15.4362 32.7011Z" fill="white"/>
<path d="M15.4362 32.7011C17.0012 33.7258 18.1119 35.387 18.4007 37.3168C18.4496 36.9902 18.475 36.6558 18.475 36.3154C18.475 35.0835 18.1429 33.9291 17.5635 32.9368C16.8424 32.8999 16.1325 32.8205 15.4362 32.7011Z" fill="white"/>
<path d="M18.172 38.3147C18.2727 38.3171 18.3737 38.3182 18.475 38.3182C18.475 37.9779 18.4496 37.6435 18.4007 37.3168C18.3496 37.6586 18.2727 37.9919 18.172 38.3147Z" fill="white"/>
<path d="M18.5 32.9608C20.6375 32.9608 22.6879 32.5882 24.59 31.9045C23.5974 30.6504 22.1661 29.7594 20.528 29.4631C19.8572 29.5574 19.1718 29.6061 18.475 29.6061C18.1807 29.6061 17.8885 29.5974 17.5986 29.5803C16.7816 29.7974 16.0259 30.1647 15.3628 30.6509C16.2661 31.2257 17.0226 32.0106 17.5635 32.9368C17.8736 32.9527 18.1859 32.9608 18.5 32.9608Z" fill="white"/>
<path d="M26.0355 36.0651C26.0355 37.7018 25.4494 39.2016 24.4758 40.3661C24.8599 40.6633 25.2213 40.9884 25.5571 41.3384C29.6459 39.5941 32.9576 36.38 34.8283 32.36C33.9806 30.5382 32.837 28.8821 31.4592 27.4531C31.3186 27.599 31.1755 27.7425 31.03 27.8836C30.4294 31.1365 28.5957 33.9571 26.0319 35.8427C26.0343 35.9166 26.0355 35.9907 26.0355 36.0651Z" fill="white"/>
<path d="M24.59 31.9045C25.4522 32.9939 25.9835 34.3573 26.0319 35.8427C28.5957 33.9571 30.4294 31.1365 31.03 27.8836C29.2116 29.6471 27.0221 31.0302 24.59 31.9045Z" fill="white"/>
<path d="M28.8908 25.2457C26.6923 27.4773 23.782 29.0058 20.528 29.4631C22.1661 29.7594 23.5974 30.6504 24.59 31.9045C27.0221 31.0302 29.2116 29.6471 31.03 27.8836C31.0756 27.6366 31.1141 27.3872 31.1453 27.1355C30.4473 26.4464 29.6933 25.814 28.8908 25.2457Z" fill="white"/>
<path d="M36.5 24.7744C36.5 23.0734 36.264 21.4275 35.8231 19.8676C35.0063 22.7569 33.4861 25.351 31.4592 27.4531C32.837 28.8821 33.9806 30.5382 34.8283 32.36C35.9011 30.0548 36.5 27.4845 36.5 24.7744Z" fill="white"/>
<path d="M30.9162 22.6689C30.4857 20.8028 29.6462 19.0932 28.4972 17.6395C26.8924 19.6698 24.6839 21.2008 22.1426 21.9616C22.0404 22.0605 21.9365 22.1577 21.831 22.2531C24.4226 22.738 26.8186 23.7783 28.8908 25.2457C29.6577 24.4671 30.3381 23.603 30.9162 22.6689Z" fill="white"/>
<path d="M33.0953 14.9858C33.0953 14.7254 33.0885 14.4666 33.075 14.2096C32.4706 13.3773 31.7967 12.5987 31.0618 11.8825C30.6965 14.0321 29.794 15.9988 28.4972 17.6395C29.6462 19.0932 30.4857 20.8028 30.9162 22.6689C32.2978 20.4363 33.0953 17.8042 33.0953 14.9858Z" fill="white"/>
<path d="M31.0542 7.53043C31.1781 8.24454 31.2427 8.97899 31.2427 9.72852C31.2427 10.4626 31.1807 11.1823 31.0618 11.8825C31.7967 12.5987 32.4706 13.3773 33.075 14.2096C32.9478 11.7785 32.2268 9.50465 31.0542 7.53043Z" fill="white"/>
<path d="M18.5 21.9455C19.4711 21.9455 20.4242 22.0224 21.3536 22.1704C21.6199 22.1091 21.883 22.0394 22.1426 21.9616C24.0138 20.152 25.3333 17.7754 25.8241 15.1087C25.5781 14.9352 25.3257 14.7702 25.0674 14.6141C23.5744 18.2158 20.4805 20.986 16.6733 22.037C17.274 21.9765 17.8834 21.9455 18.5 21.9455Z" fill="white"/>
<path d="M18.475 12.7828C18.4623 12.7828 18.4497 12.7828 18.4371 12.7828C18.2149 16.2271 17.0238 19.4076 15.1337 22.0546C15.2936 22.0978 15.4547 22.138 15.6169 22.1751C15.9658 22.119 16.318 22.0728 16.6733 22.037C20.4805 20.986 23.5744 18.2158 25.0674 14.6141C23.143 13.4517 20.8871 12.7828 18.475 12.7828Z" fill="white"/>
<path d="M17.8226 6.78693C18.2478 8.32077 18.475 9.93692 18.475 11.6061C18.475 12.0015 18.4622 12.3938 18.4371 12.7828C18.4497 12.7828 18.4623 12.7828 18.475 12.7828C20.8871 12.7828 23.143 13.4517 25.0674 14.6141C25.5049 13.5586 25.8049 12.4317 25.9451 11.2556C25.8108 10.1294 25.53 9.04825 25.1222 8.03168C23.0725 7.2203 20.8383 6.77442 18.5 6.77442C18.2732 6.77442 18.0474 6.77861 17.8226 6.78693Z" fill="white"/>
<path d="M16.6763 0.475065C16.065 0.550058 15.4654 0.662781 14.8798 0.810833C16.2069 2.57885 17.2161 4.59917 17.8226 6.78693C18.0474 6.77861 18.2732 6.77442 18.5 6.77442C20.8383 6.77442 23.0725 7.2203 25.1222 8.03168C23.6515 4.36549 20.5294 1.53982 16.6763 0.475065Z" fill="white"/>
<path d="M14.8798 0.810833C15.4654 0.662781 16.065 0.550058 16.6763 0.475065C15.9043 0.26176 15.1031 0.119127 14.2799 0.0545654C14.4865 0.301127 14.6865 0.553304 14.8798 0.810833Z" fill="white"/>
<path d="M25.0674 14.6141C25.3257 14.7702 25.5781 14.9352 25.8241 15.1087C25.9629 14.3545 26.0355 13.5771 26.0355 12.7828C26.0355 12.266 26.0048 11.7564 25.9451 11.2556C25.8049 12.4317 25.5049 13.5586 25.0674 14.6141Z" fill="white"/>
<path d="M15.6169 22.1751C15.4547 22.138 15.2936 22.0978 15.1337 22.0546C15.0765 22.1347 15.0187 22.2143 14.9602 22.2934C15.1778 22.2501 15.3967 22.2106 15.6169 22.1751Z" fill="white"/>
<path d="M14.8848 22.3948C15.2178 22.3527 15.5468 22.2978 15.8713 22.2306C15.7862 22.2129 15.7014 22.1945 15.6169 22.1751C15.3967 22.2106 15.1778 22.2501 14.9602 22.2934C14.9352 22.3273 14.91 22.3611 14.8848 22.3948Z" fill="white"/>
<path d="M15.8713 22.2306C16.1419 22.1745 16.4093 22.1099 16.6733 22.037C16.318 22.0728 15.9658 22.119 15.6169 22.1751C15.7014 22.1945 15.7862 22.2129 15.8713 22.2306Z" fill="white"/>
<path d="M21.3536 22.1704C21.5134 22.1959 21.6726 22.2235 21.831 22.2531C21.9365 22.1577 22.0404 22.0605 22.1426 21.9616C21.883 22.0394 21.6199 22.1091 21.3536 22.1704Z" fill="white"/>
<path d="M17.5986 29.5803C17.8885 29.5974 18.1807 29.6061 18.475 29.6061C19.1718 29.6061 19.8572 29.5574 20.528 29.4631C20.138 29.3926 19.7364 29.3558 19.3261 29.3558C18.7288 29.3558 18.1498 29.4338 17.5986 29.5803Z" fill="white"/>
<path d="M31.03 27.8836C31.1755 27.7425 31.3186 27.599 31.4592 27.4531C31.3559 27.346 31.2512 27.2401 31.1453 27.1355C31.1141 27.3872 31.0756 27.6366 31.03 27.8836Z" fill="white"/>
<path d="M5.07085 36.7604C5.08314 36.9481 5.10314 37.1337 5.13055 37.3168C5.15113 37.1794 5.17588 37.0432 5.20466 36.9086C5.15979 36.8595 5.11518 36.8101 5.07085 36.7604Z" fill="white"/>
<path d="M14.1976 22.4629C14.4284 22.4463 14.6575 22.4236 14.8848 22.3948C14.91 22.3611 14.9352 22.3273 14.9602 22.2934C14.704 22.3445 14.4498 22.4011 14.1976 22.4629Z" fill="white"/>
</svg>
