<svg width="36" height="42" viewBox="0 0 36 42" fill="none" xmlns="http://www.w3.org/2000/svg">
<path d="M28.5612 6.47449C26.9918 4.68281 26.1269 2.38186 26.1276 0H19.0332V28.4694C18.9784 30.01 18.328 31.4693 17.2188 32.5399C16.1097 33.6105 14.6283 34.209 13.0867 34.2092C9.82653 34.2092 7.11735 31.5459 7.11735 28.2398C7.11735 24.2908 10.9286 21.3291 14.8546 22.5459V15.2908C6.93367 14.2347 0 20.3878 0 28.2398C0 35.8852 6.33674 41.3265 13.0638 41.3265C20.273 41.3265 26.1276 35.4719 26.1276 28.2398V13.7985C29.0043 15.8645 32.4582 16.9729 36 16.9668V9.87245C36 9.87245 31.6837 10.0791 28.5612 6.47449Z" fill="white"/>
</svg>
