<svg width="36" height="59" viewBox="0 0 36 59" fill="none" xmlns="http://www.w3.org/2000/svg">
<path d="M4.71169 52.7506C7.98303 56.3288 12.6804 58.5813 17.9044 58.6085C12.8504 58.5728 8.7045 54.7169 8.21061 49.7847C6.92089 50.6221 5.74513 51.6202 4.71169 52.7506Z" fill="white"/>
<path d="M17.9857 58.6087C23.0771 58.6033 27.2606 54.7205 27.7423 49.7542C24.9342 47.9433 21.5898 46.8924 18 46.8924C14.3901 46.8924 11.0284 47.9551 8.21061 49.7847C8.7045 54.7169 12.8504 58.5728 17.9044 58.6085C17.9314 58.6086 17.9586 58.6087 17.9857 58.6087Z" fill="white"/>
<path d="M18.015 58.6087C23.2712 58.6044 28.0001 56.3472 31.2883 52.7506C30.2423 51.6064 29.0505 50.5979 27.7423 49.7542C27.2606 54.7205 23.0771 58.6033 17.9857 58.6087L18 58.6087C18.005 58.6087 18.01 58.6087 18.015 58.6087Z" fill="white"/>
<path d="M1.67166 33.0232C0.598934 35.3284 0 37.8986 0 40.6087C0 45.2876 1.78522 49.5496 4.71169 52.7506C5.74513 51.6202 6.92089 50.6221 8.21061 49.7847C8.17802 49.4592 8.16133 49.1291 8.16133 48.7951C8.16133 47.5389 8.39734 46.3379 8.82742 45.234C6.32748 44.2584 4.55633 41.8267 4.55633 38.9814C4.55633 38.6411 4.58166 38.3067 4.63055 37.9801C4.60314 37.7969 4.58314 37.6113 4.57085 37.4236C3.40167 36.1146 2.42105 34.6336 1.67166 33.0232Z" fill="white"/>
<path d="M11.2656 45.6908C13.2966 45.6908 15.1167 44.7884 16.347 43.3627C15.6071 43.2954 14.8801 43.1832 14.1688 43.0291C13.2903 43.4514 12.3056 43.688 11.2656 43.688C10.7291 43.688 10.2073 43.625 9.70713 43.506C9.35974 44.0479 9.06417 44.6263 8.82742 45.234C9.58316 45.5289 10.4055 45.6908 11.2656 45.6908Z" fill="white"/>
<path d="M16.5951 43.0578C16.112 42.8875 15.6542 42.6634 15.229 42.3928C14.8974 42.6359 14.5428 42.8493 14.1688 43.0291C14.8801 43.1832 15.6071 43.2954 16.347 43.3627C16.4326 43.2636 16.5154 43.1619 16.5951 43.0578Z" fill="white"/>
<path d="M4.55633 38.9814C4.55633 41.8267 6.32748 44.2584 8.82742 45.234C9.06417 44.6263 9.35974 44.0479 9.70713 43.506C7.07048 42.8788 5.03691 40.6955 4.63055 37.9801C4.58166 38.3067 4.55633 38.6411 4.55633 38.9814Z" fill="white"/>
<path d="M4.70466 37.5718C4.67588 37.7064 4.65113 37.8426 4.63055 37.9801C5.03691 40.6955 7.07048 42.8788 9.70713 43.506C10.057 42.9602 10.4595 42.4512 10.9075 41.9864C8.5331 40.9675 6.42203 39.4525 4.70466 37.5718Z" fill="white"/>
<path d="M12.1716 37.5893C10.2782 36.6215 8.65837 35.1949 7.45862 33.4561C6.07524 34.411 5.06808 35.8721 4.70466 37.5718C6.42203 39.4525 8.5331 40.9675 10.9075 41.9864C11.5574 41.3119 12.303 40.7302 13.1224 40.2631C12.6283 39.4675 12.296 38.5609 12.1716 37.5893Z" fill="white"/>
<path d="M17.6695 38.9861C17.6703 38.9834 17.6712 38.9806 17.672 38.9779C15.6946 38.9319 13.8284 38.4363 12.1716 37.5893C12.296 38.5609 12.6283 39.4675 13.1224 40.2631C14.4707 39.4947 16.0188 39.0366 17.6695 38.9861Z" fill="white"/>
<path d="M14.9362 33.3643C14.3655 33.2664 13.804 33.1417 13.253 32.9915C12.5355 34.0594 12.1168 35.345 12.1168 36.7283C12.1168 37.02 12.1354 37.3074 12.1716 37.5893C13.8284 38.4363 15.6946 38.9319 17.672 38.9779C17.7727 38.6551 17.8496 38.3218 17.9007 37.9801C17.6119 36.0502 16.5012 34.389 14.9362 33.3643Z" fill="white"/>
<path d="M24.09 32.5677C22.1879 33.2514 20.1375 33.624 18 33.624C17.6859 33.624 17.3736 33.616 17.0635 33.6001C17.6429 34.5923 17.975 35.7467 17.975 36.9787C17.975 37.319 17.9496 37.6534 17.9007 37.9801C17.9496 38.3067 17.975 38.6411 17.975 38.9814C20.8028 38.9814 23.416 38.0621 25.5319 36.5059C25.4835 35.0205 24.9522 33.6571 24.09 32.5677Z" fill="white"/>
<path d="M7.45862 33.4561C8.65837 35.1949 10.2782 36.6215 12.1716 37.5893C12.1354 37.3074 12.1168 37.02 12.1168 36.7283C12.1168 35.345 12.5355 34.0594 13.253 32.9915C12.5317 32.7948 11.8284 32.5543 11.1461 32.2732C9.778 32.2971 8.50972 32.7305 7.45862 33.4561Z" fill="white"/>
<path d="M5.60103 29.3726C4.9225 29.5957 4.22617 29.7795 3.51472 29.9214C2.80178 30.8861 2.18291 31.9245 1.67166 33.0232C2.42105 34.6336 3.40167 36.1146 4.57085 37.4236C4.56122 37.2766 4.55633 37.1282 4.55633 36.9787C4.55633 35.0624 5.35967 33.3338 6.64794 32.1112C6.19925 31.2512 5.84563 30.3337 5.60103 29.3726Z" fill="white"/>
<path d="M5.4091 28.4875C5.28455 28.3656 5.16175 28.2418 5.04076 28.1163C4.49391 28.6835 3.98394 29.2865 3.51472 29.9214C4.22617 29.7795 4.9225 29.5957 5.60103 29.3726C5.52692 29.0815 5.46281 28.7863 5.4091 28.4875Z" fill="white"/>
<path d="M5.04076 28.1163C5.16175 28.2418 5.28455 28.3656 5.4091 28.4875C5.3708 28.2744 5.33778 28.0594 5.31019 27.8428C5.21942 27.933 5.1296 28.0242 5.04076 28.1163Z" fill="white"/>
<path d="M9.4863 27.554C8.80493 27.0673 8.1671 26.5236 7.57979 25.9298C6.77114 26.5048 6.01206 27.1451 5.31019 27.8428C5.33778 28.0594 5.3708 28.2744 5.4091 28.4875C5.65184 28.7251 5.90128 28.9559 6.1571 29.1796C7.32862 28.7512 8.44317 28.2045 9.4863 27.554Z" fill="white"/>
<path d="M5.4091 28.4875C5.46281 28.7863 5.52692 29.0815 5.60103 29.3726C5.78775 29.3113 5.97313 29.2469 6.1571 29.1796C5.90128 28.9559 5.65184 28.7251 5.4091 28.4875Z" fill="white"/>
<path d="M5.60103 29.3726C5.84563 30.3337 6.19925 31.2512 6.64794 32.1112C7.17538 31.6107 7.78409 31.195 8.45224 30.8859C7.64154 30.3777 6.87422 29.8066 6.1571 29.1796C5.97313 29.2469 5.78775 29.3113 5.60103 29.3726Z" fill="white"/>
<path d="M14.8628 31.3141C15.5259 30.8279 16.2816 30.4606 17.0986 30.2435C14.2696 30.0763 11.657 29.1046 9.4863 27.554C8.44317 28.2045 7.32862 28.7512 6.1571 29.1796C6.87422 29.8066 7.64154 30.3777 8.45224 30.8859C9.30787 30.4902 10.261 30.2693 11.2656 30.2693C12.5892 30.2693 13.8232 30.6526 14.8628 31.3141Z" fill="white"/>
<path d="M11.4409 26.1456C10.359 26.0339 9.31724 25.7871 8.3327 25.4224C8.07727 25.5853 7.82623 25.7545 7.57979 25.9298C8.1671 26.5236 8.80493 27.0673 9.4863 27.554C10.1698 27.1278 10.8227 26.6569 11.4409 26.1456Z" fill="white"/>
<path d="M14.3848 23.058C14.1575 23.0868 13.9284 23.1095 13.6976 23.1261C11.7684 23.5993 9.96139 24.3834 8.3327 25.4224C9.31724 25.7871 10.359 26.0339 11.4409 26.1456C12.5395 25.2368 13.5284 24.2 14.3848 23.058Z" fill="white"/>
<path d="M21.331 22.9163C21.1726 22.8867 21.0134 22.8591 20.8536 22.8336C19.9284 23.0468 18.9649 23.1595 17.975 23.1595C17.0828 23.1595 16.2119 23.0679 15.3713 22.8938C15.0468 22.961 14.7178 23.0159 14.3848 23.058C13.5284 24.2 12.5395 25.2368 11.4409 26.1456C11.877 26.1906 12.3197 26.2137 12.7677 26.2137C16.0627 26.2137 19.0661 24.9656 21.331 22.9163Z" fill="white"/>
<path d="M18 22.6087C17.3834 22.6087 16.774 22.6397 16.1733 22.7002C15.9093 22.7731 15.6419 22.8377 15.3713 22.8938C16.2119 23.0679 17.0828 23.1595 17.975 23.1595C18.9649 23.1595 19.9284 23.0468 20.8536 22.8336C19.9242 22.6856 18.9711 22.6087 18 22.6087Z" fill="white"/>
<path d="M20.028 30.1263C23.282 29.669 26.1923 28.1406 28.3908 25.9089C26.3186 24.4415 23.9226 23.4012 21.331 22.9163C19.0661 24.9656 16.0627 26.2137 12.7677 26.2137C12.3197 26.2137 11.877 26.1906 11.4409 26.1456C10.8227 26.6569 10.1698 27.1278 9.4863 27.554C11.657 29.1046 14.2696 30.0763 17.0986 30.2435C17.6498 30.097 18.2288 30.019 18.8261 30.019C19.2364 30.019 19.638 30.0558 20.028 30.1263Z" fill="white"/>
<path d="M4.55633 36.9787C4.55633 37.1282 4.56122 37.2766 4.57085 37.4236C4.61518 37.4733 4.65979 37.5227 4.70466 37.5718C5.06808 35.8721 6.07524 34.411 7.45862 33.4561C7.16197 33.0261 6.89101 32.5771 6.64794 32.1112C5.35967 33.3338 4.55633 35.0624 4.55633 36.9787Z" fill="white"/>
<path d="M7.45862 33.4561C8.50972 32.7305 9.778 32.2971 11.1461 32.2732C10.2055 31.8855 9.30487 31.4205 8.45224 30.8859C7.78409 31.195 7.17538 31.6107 6.64794 32.1112C6.89101 32.5771 7.16197 33.0261 7.45862 33.4561Z" fill="white"/>
<path d="M11.2656 32.2721C12.0478 32.2721 12.7987 32.406 13.4967 32.652C13.886 32.1438 14.3463 31.6929 14.8628 31.3141C13.8232 30.6526 12.5892 30.2693 11.2656 30.2693C10.261 30.2693 9.30787 30.4902 8.45224 30.8859C9.30487 31.4205 10.2055 31.8855 11.1461 32.2732C11.1859 32.2725 11.2257 32.2721 11.2656 32.2721Z" fill="white"/>
<path d="M11.1461 32.2732C11.8284 32.5543 12.5317 32.7948 13.253 32.9915C13.3308 32.8757 13.412 32.7625 13.4967 32.652C12.7987 32.406 12.0478 32.2721 11.2656 32.2721C11.2257 32.2721 11.1859 32.2725 11.1461 32.2732Z" fill="white"/>
<path d="M13.253 32.9915C13.804 33.1417 14.3655 33.2664 14.9362 33.3643C14.4904 33.0724 14.0077 32.8321 13.4967 32.652C13.412 32.7625 13.3308 32.8757 13.253 32.9915Z" fill="white"/>
<path d="M14.9362 33.3643C15.6325 33.4837 16.3424 33.5631 17.0635 33.6001C16.5226 32.6739 15.7661 31.889 14.8628 31.3141C14.3463 31.6929 13.886 32.1438 13.4967 32.652C14.0077 32.8321 14.4904 33.0724 14.9362 33.3643Z" fill="white"/>
<path d="M14.9362 33.3643C16.5012 34.389 17.6119 36.0502 17.9007 37.9801C17.9496 37.6534 17.975 37.319 17.975 36.9787C17.975 35.7467 17.6429 34.5923 17.0635 33.6001C16.3424 33.5631 15.6325 33.4837 14.9362 33.3643Z" fill="white"/>
<path d="M17.672 38.9779C17.7727 38.9803 17.8737 38.9814 17.975 38.9814C17.975 38.6411 17.9496 38.3067 17.9007 37.9801C17.8496 38.3218 17.7727 38.6551 17.672 38.9779Z" fill="white"/>
<path d="M18 33.624C20.1375 33.624 22.1879 33.2514 24.09 32.5677C23.0974 31.3136 21.6661 30.4226 20.028 30.1263C19.3572 30.2206 18.6718 30.2693 17.975 30.2693C17.6807 30.2693 17.3885 30.2606 17.0986 30.2435C16.2816 30.4606 15.5259 30.8279 14.8628 31.3141C15.7661 31.889 16.5226 32.6739 17.0635 33.6001C17.3736 33.616 17.6859 33.624 18 33.624Z" fill="white"/>
<path d="M25.5355 36.7283C25.5355 38.365 24.9494 39.8648 23.9758 41.0293C24.3599 41.3265 24.7213 41.6516 25.0571 42.0016C29.1459 40.2573 32.4576 37.0432 34.3283 33.0232C33.4806 31.2015 32.337 29.5453 30.9592 28.1163C30.8186 28.2622 30.6755 28.4057 30.53 28.5468C29.9294 31.7997 28.0957 34.6203 25.5319 36.5059C25.5343 36.5798 25.5355 36.6539 25.5355 36.7283Z" fill="white"/>
<path d="M24.09 32.5677C24.9522 33.6571 25.4835 35.0205 25.5319 36.5059C28.0957 34.6203 29.9294 31.7997 30.53 28.5468C28.7116 30.3103 26.5221 31.6934 24.09 32.5677Z" fill="white"/>
<path d="M28.3908 25.9089C26.1923 28.1406 23.282 29.669 20.028 30.1263C21.6661 30.4226 23.0974 31.3136 24.09 32.5677C26.5221 31.6934 28.7116 30.3103 30.53 28.5468C30.5756 28.2998 30.6141 28.0504 30.6453 27.7987C29.9473 27.1096 29.1933 26.4772 28.3908 25.9089Z" fill="white"/>
<path d="M36 25.4376C36 23.7366 35.764 22.0907 35.3231 20.5308C34.5063 23.4201 32.9861 26.0142 30.9592 28.1163C32.337 29.5453 33.4806 31.2015 34.3283 33.0232C35.4011 30.718 36 28.1477 36 25.4376Z" fill="white"/>
<path d="M30.4162 23.3321C29.9857 21.466 29.1462 19.7564 27.9972 18.3027C26.3924 20.333 24.1839 21.864 21.6426 22.6248C21.5404 22.7237 21.4365 22.8209 21.331 22.9163C23.9226 23.4012 26.3186 24.4415 28.3908 25.9089C29.1577 25.1303 29.8381 24.2662 30.4162 23.3321Z" fill="white"/>
<path d="M32.5953 15.649C32.5953 15.3886 32.5885 15.1299 32.575 14.8728C31.9706 14.0405 31.2967 13.2619 30.5618 12.5457C30.1965 14.6953 29.294 16.662 27.9972 18.3027C29.1462 19.7564 29.9857 21.466 30.4162 23.3321C31.7978 21.0995 32.5953 18.4674 32.5953 15.649Z" fill="white"/>
<path d="M30.5542 8.19364C30.6781 8.90774 30.7427 9.64219 30.7427 10.3917C30.7427 11.1258 30.6807 11.8455 30.5618 12.5457C31.2967 13.2619 31.9706 14.0405 32.575 14.8728C32.4478 12.4417 31.7268 10.1679 30.5542 8.19364Z" fill="white"/>
<path d="M18 22.6087C18.9711 22.6087 19.9242 22.6856 20.8536 22.8336C21.1199 22.7723 21.383 22.7026 21.6426 22.6248C23.5138 20.8152 24.8333 18.4386 25.3241 15.7719C25.0781 15.5984 24.8257 15.4334 24.5674 15.2773C23.0744 18.879 19.9805 21.6492 16.1733 22.7002C16.774 22.6397 17.3834 22.6087 18 22.6087Z" fill="white"/>
<path d="M17.975 13.446C17.9623 13.446 17.9497 13.446 17.9371 13.446C17.7149 16.8904 16.5238 20.0708 14.6337 22.7178C14.7936 22.7611 14.9547 22.8012 15.1169 22.8384C15.4658 22.7822 15.818 22.7361 16.1733 22.7002C19.9805 21.6492 23.0744 18.879 24.5674 15.2773C22.643 14.1149 20.3871 13.446 17.975 13.446Z" fill="white"/>
<path d="M17.3226 7.45014C17.7478 8.98398 17.975 10.6001 17.975 12.2693C17.975 12.6647 17.9622 13.057 17.9371 13.446C17.9497 13.446 17.9623 13.446 17.975 13.446C20.3871 13.446 22.643 14.1149 24.5674 15.2773C25.0049 14.2218 25.3049 13.0949 25.4451 11.9189C25.3108 10.7927 25.03 9.71146 24.6222 8.69489C22.5725 7.88351 20.3383 7.43763 18 7.43763C17.7732 7.43763 17.5474 7.44182 17.3226 7.45014Z" fill="white"/>
<path d="M16.1763 1.13827C15.565 1.21327 14.9654 1.32599 14.3798 1.47404C15.7069 3.24206 16.7161 5.26237 17.3226 7.45014C17.5474 7.44182 17.7732 7.43763 18 7.43763C20.3383 7.43763 22.5725 7.88351 24.6222 8.69489C23.1515 5.0287 20.0294 2.20302 16.1763 1.13827Z" fill="white"/>
<path d="M14.3798 1.47404C14.9654 1.32599 15.565 1.21327 16.1763 1.13827C15.4043 0.924968 14.6031 0.782335 13.7799 0.717773C13.9865 0.964335 14.1865 1.21651 14.3798 1.47404Z" fill="white"/>
<path d="M24.5674 15.2773C24.8257 15.4334 25.0781 15.5984 25.3241 15.7719C25.4629 15.0177 25.5355 14.2403 25.5355 13.446C25.5355 12.9292 25.5048 12.4196 25.4451 11.9189C25.3049 13.0949 25.0049 14.2218 24.5674 15.2773Z" fill="white"/>
<path d="M15.1169 22.8384C14.9547 22.8012 14.7936 22.7611 14.6337 22.7178C14.5765 22.7979 14.5187 22.8775 14.4602 22.9566C14.6778 22.9133 14.8967 22.8738 15.1169 22.8384Z" fill="white"/>
<path d="M14.3848 23.058C14.7178 23.0159 15.0468 22.961 15.3713 22.8938C15.2862 22.8762 15.2014 22.8577 15.1169 22.8384C14.8967 22.8738 14.6778 22.9133 14.4602 22.9566C14.4352 22.9905 14.41 23.0243 14.3848 23.058Z" fill="white"/>
<path d="M15.3713 22.8938C15.6419 22.8377 15.9093 22.7731 16.1733 22.7002C15.818 22.7361 15.4658 22.7822 15.1169 22.8384C15.2014 22.8577 15.2862 22.8762 15.3713 22.8938Z" fill="white"/>
<path d="M20.8536 22.8336C21.0134 22.8591 21.1726 22.8867 21.331 22.9163C21.4365 22.8209 21.5404 22.7237 21.6426 22.6248C21.383 22.7026 21.1199 22.7723 20.8536 22.8336Z" fill="white"/>
<path d="M17.0986 30.2435C17.3885 30.2606 17.6807 30.2693 17.975 30.2693C18.6718 30.2693 19.3572 30.2206 20.028 30.1263C19.638 30.0558 19.2364 30.019 18.8261 30.019C18.2288 30.019 17.6498 30.097 17.0986 30.2435Z" fill="white"/>
<path d="M30.53 28.5468C30.6755 28.4057 30.8186 28.2622 30.9592 28.1163C30.8559 28.0092 30.7512 27.9033 30.6453 27.7987C30.6141 28.0504 30.5756 28.2998 30.53 28.5468Z" fill="white"/>
<path d="M4.57085 37.4236C4.58314 37.6113 4.60314 37.7969 4.63055 37.9801C4.65113 37.8426 4.67588 37.7064 4.70466 37.5718C4.65979 37.5227 4.61518 37.4733 4.57085 37.4236Z" fill="white"/>
<path d="M13.6976 23.1261C13.9284 23.1095 14.1575 23.0868 14.3848 23.058C14.41 23.0243 14.4352 22.9905 14.4602 22.9566C14.204 23.0077 13.9498 23.0643 13.6976 23.1261Z" fill="white"/>
</svg>
