<svg width="28" height="28" viewBox="0 0 28 28" fill="none" xmlns="http://www.w3.org/2000/svg">
<path fill-rule="evenodd" clip-rule="evenodd" d="M0 14C0 6.2678 6.2678 0 14 0C21.7322 0 28 6.2678 28 14C28 21.7322 21.7322 28 14 28C6.2678 28 0 21.7322 0 14ZM9.8 12.6014C9.4287 12.6014 9.0726 12.7489 8.81005 13.0115C8.5475 13.274 8.4 13.6301 8.4 14.0014C8.4 14.3727 8.5475 14.7288 8.81005 14.9913C9.0726 15.2539 9.4287 15.4014 9.8 15.4014H18.2C18.5713 15.4014 18.9274 15.2539 19.1899 14.9913C19.4525 14.7288 19.6 14.3727 19.6 14.0014C19.6 13.6301 19.4525 13.274 19.1899 13.0115C18.9274 12.7489 18.5713 12.6014 18.2 12.6014H9.8Z" fill="#7743DB"/>
</svg>
