<svg width="28" height="28" viewBox="0 0 28 28" fill="none" xmlns="http://www.w3.org/2000/svg">
<path d="M28 14.0001C28 16.769 27.1789 19.4758 25.6406 21.778C24.1022 24.0803 21.9157 25.8747 19.3576 26.9344C16.7994 27.994 13.9845 28.2712 11.2687 27.7311C8.55301 27.1909 6.05845 25.8575 4.10051 23.8996C2.14258 21.9416 0.809205 19.4471 0.269012 16.7313C-0.271181 14.0156 0.00606593 11.2007 1.06569 8.64249C2.12532 6.08433 3.91973 3.89783 6.22202 2.35949C8.52431 0.821146 11.2311 6.10352e-05 14 6.10352e-05C17.713 6.10352e-05 21.274 1.47506 23.8995 4.10057C26.525 6.72607 28 10.287 28 14.0001ZM20.6413 12.6876H15.3125V7.35881C15.3125 7.01071 15.1742 6.67687 14.9281 6.43073C14.6819 6.18459 14.3481 6.04631 14 6.04631C13.6519 6.04631 13.3181 6.18459 13.0719 6.43073C12.8258 6.67687 12.6875 7.01071 12.6875 7.35881V12.6876H7.35876C7.01066 12.6876 6.67682 12.8258 6.43068 13.072C6.18454 13.3181 6.04626 13.652 6.04626 14.0001C6.04626 14.3482 6.18454 14.682 6.43068 14.9281C6.67682 15.1743 7.01066 15.3126 7.35876 15.3126H12.6875V20.6413C12.6875 20.9894 12.8258 21.3232 13.0719 21.5694C13.3181 21.8155 13.6519 21.9538 14 21.9538C14.3481 21.9538 14.6819 21.8155 14.9281 21.5694C15.1742 21.3232 15.3125 20.9894 15.3125 20.6413V15.3126H20.6413C20.9893 15.3126 21.3232 15.1743 21.5693 14.9281C21.8155 14.682 21.9538 14.3482 21.9538 14.0001C21.9538 13.652 21.8155 13.3181 21.5693 13.072C21.3232 12.8258 20.9893 12.6876 20.6413 12.6876Z" fill="#7743DB"/>
</svg>
