<svg width="72" height="54" viewBox="0 0 72 54" fill="none" xmlns="http://www.w3.org/2000/svg">
<path d="M44.9644 33.6402C44.9644 24.0275 47.2727 16.5019 51.8893 11.0631C56.5692 5.62438 63.1146 2.05126 71.5257 0.34375V10.2094C65.1383 12.1698 60.8379 15.7113 58.6245 20.8339C57.3597 23.5532 56.8538 26.1777 57.1067 28.7074H72V53.656H44.9644V33.6402ZM0 33.6402C0 24.154 2.24506 16.66 6.73518 11.158C11.2885 5.656 17.8972 2.05126 26.5613 0.34375V10.2094C20.1107 12.2331 15.7787 15.7113 13.5652 20.6441C12.4269 23.237 11.9526 25.9248 12.1423 28.7074H27.0356V53.656H0V33.6402Z" fill="#7743DB" fill-opacity="0.5"/>
</svg>
